<?xml version="1.0" encoding="UTF-8"?>
<svg width="193.48mm" height="61.82mm" version="1.1" viewBox="0 0 193.48 61.82" xmlns="http://www.w3.org/2000/svg" xmlns:cc="http://creativecommons.org/ns#" xmlns:dc="http://purl.org/dc/elements/1.1/" xmlns:rdf="http://www.w3.org/1999/02/22-rdf-syntax-ns#">
 <metadata>
  <rdf:RDF>
   <cc:Work rdf:about="">
    <dc:format>image/svg+xml</dc:format>
    <dc:type rdf:resource="http://purl.org/dc/dcmitype/StillImage"/>
   </cc:Work>
  </rdf:RDF>
 </metadata>
 <g transform="translate(.92597 -39.667)">
  <g>
   <g transform="translate(114.04 .80182)" fill="#fff" stroke="#333">
    <path d="m24.079 83.655a5.0232 5.0232 0 0 1-5.0232 5.0232 5.0232 5.0232 0 0 1-5.0232-5.0232 5.0232 5.0232 0 0 1 5.0232-5.0232 5.0232 5.0232 0 0 1 5.0232 5.0232" stroke-width=".51438"/>
    <path d="m22.406 83.655a3.3501 3.3501 0 0 1-3.3501 3.3501 3.3501 3.3501 0 0 1-3.3501-3.3501 3.3501 3.3501 0 0 1 3.3501-3.3501 3.3501 3.3501 0 0 1 3.3501 3.3501" stroke-width=".3577"/>
   </g>
   <g transform="translate(130.08 .80182)" fill="#fff" stroke="#333">
    <path d="m24.079 83.655a5.0232 5.0232 0 0 1-5.0232 5.0232 5.0232 5.0232 0 0 1-5.0232-5.0232 5.0232 5.0232 0 0 1 5.0232-5.0232 5.0232 5.0232 0 0 1 5.0232 5.0232" stroke-width=".51438"/>
    <path d="m22.406 83.655a3.3501 3.3501 0 0 1-3.3501 3.3501 3.3501 3.3501 0 0 1-3.3501-3.3501 3.3501 3.3501 0 0 1 3.3501-3.3501 3.3501 3.3501 0 0 1 3.3501 3.3501" stroke-width=".3577"/>
   </g>
   <g transform="translate(145.85 .80182)" fill="#fff" stroke="#333">
    <path d="m24.079 83.655a5.0232 5.0232 0 0 1-5.0232 5.0232 5.0232 5.0232 0 0 1-5.0232-5.0232 5.0232 5.0232 0 0 1 5.0232-5.0232 5.0232 5.0232 0 0 1 5.0232 5.0232" stroke-width=".51438"/>
    <path d="m22.406 83.655a3.3501 3.3501 0 0 1-3.3501 3.3501 3.3501 3.3501 0 0 1-3.3501-3.3501 3.3501 3.3501 0 0 1 3.3501-3.3501 3.3501 3.3501 0 0 1 3.3501 3.3501" stroke-width=".3577"/>
   </g>
   <g transform="translate(-9.7013 .80182)" fill="#fff" stroke="#333">
    <path d="m24.079 83.655a5.0232 5.0232 0 0 1-5.0232 5.0232 5.0232 5.0232 0 0 1-5.0232-5.0232 5.0232 5.0232 0 0 1 5.0232-5.0232 5.0232 5.0232 0 0 1 5.0232 5.0232" stroke-width=".51438"/>
    <path d="m22.406 83.655a3.3501 3.3501 0 0 1-3.3501 3.3501 3.3501 3.3501 0 0 1-3.3501-3.3501 3.3501 3.3501 0 0 1 3.3501-3.3501 3.3501 3.3501 0 0 1 3.3501 3.3501" stroke-width=".3577"/>
   </g>
   <g transform="translate(6.3349 .80182)" fill="#fff" stroke="#333">
    <path d="m24.079 83.655a5.0232 5.0232 0 0 1-5.0232 5.0232 5.0232 5.0232 0 0 1-5.0232-5.0232 5.0232 5.0232 0 0 1 5.0232-5.0232 5.0232 5.0232 0 0 1 5.0232 5.0232" stroke-width=".51438"/>
    <path d="m22.406 83.655a3.3501 3.3501 0 0 1-3.3501 3.3501 3.3501 3.3501 0 0 1-3.3501-3.3501 3.3501 3.3501 0 0 1 3.3501-3.3501 3.3501 3.3501 0 0 1 3.3501 3.3501" stroke-width=".3577"/>
   </g>
   <g transform="translate(22.104 .80182)" fill="#fff" stroke="#333">
    <path d="m24.079 83.655a5.0232 5.0232 0 0 1-5.0232 5.0232 5.0232 5.0232 0 0 1-5.0232-5.0232 5.0232 5.0232 0 0 1 5.0232-5.0232 5.0232 5.0232 0 0 1 5.0232 5.0232" stroke-width=".51438"/>
    <path d="m22.406 83.655a3.3501 3.3501 0 0 1-3.3501 3.3501 3.3501 3.3501 0 0 1-3.3501-3.3501 3.3501 3.3501 0 0 1 3.3501-3.3501 3.3501 3.3501 0 0 1 3.3501 3.3501" stroke-width=".3577"/>
   </g>
   <g transform="translate(39.476 .80182)" fill="#fff" stroke="#333">
    <path d="m24.079 83.655a5.0232 5.0232 0 0 1-5.0232 5.0232 5.0232 5.0232 0 0 1-5.0232-5.0232 5.0232 5.0232 0 0 1 5.0232-5.0232 5.0232 5.0232 0 0 1 5.0232 5.0232" stroke-width=".51438"/>
    <path d="m22.406 83.655a3.3501 3.3501 0 0 1-3.3501 3.3501 3.3501 3.3501 0 0 1-3.3501-3.3501 3.3501 3.3501 0 0 1 3.3501-3.3501 3.3501 3.3501 0 0 1 3.3501 3.3501" stroke-width=".3577"/>
   </g>
   <path d="m9.3549 79.281h172.92" fill="none" stroke="#000" stroke-width=".465"/>
   <path d="m8.9769 89.769h172.92" fill="none" stroke="#000" stroke-width=".465"/>
  </g>
  <text fill="#000000" font-family="sans-serif" font-size="10.583px" style="line-height:1.25;shape-inside:url(#rect835);white-space:pre" xml:space="preserve"/>
  <path d="m59.13 53.387h72.601v37.71h-72.601z" fill="#fff" stroke="#000" stroke-width=".78"/>
  <g transform="matrix(1.2732 0 0 1.2732 -16.525 -24.024)" style="shape-inside:url(#rect894);white-space:pre" aria-label="subject">
   <path d="m22.732 58.125v0.47956q-0.21497-0.11024-0.44648-0.16536-0.23151-0.05512-0.47956-0.05512-0.37758 0-0.56775 0.11576-0.18741 0.11576-0.18741 0.34726 0 0.17639 0.13505 0.27836 0.13505 0.09922 0.54295 0.19017l0.17363 0.03858q0.54019 0.11576 0.76619 0.32797 0.22875 0.20946 0.22875 0.58704 0 0.42995-0.34175 0.68075-0.339 0.2508-0.93431 0.2508-0.24805 0-0.51814-0.04961-0.26734-0.04685-0.565-0.14332v-0.52365q0.28112 0.14607 0.55397 0.22049 0.27285 0.07166 0.54019 0.07166 0.35829 0 0.55122-0.12127 0.19292-0.12402 0.19292-0.34726 0-0.20671-0.14056-0.31695-0.1378-0.11024-0.60909-0.21222l-0.17639-0.04134q-0.47129-0.09922-0.68075-0.30317-0.20946-0.2067-0.20946-0.565 0-0.43546 0.30868-0.67248 0.30868-0.23702 0.87643-0.23702 0.28112 0 0.52917 0.04134t0.45751 0.12402z"/>
   <path d="m23.656 59.903v-1.8686h0.50712v1.8493q0 0.43822 0.17088 0.6587 0.17088 0.21773 0.51263 0.21773 0.41066 0 0.64768-0.26183 0.23978-0.26183 0.23978-0.71382v-1.7501h0.50712v3.0868h-0.50712v-0.47404q-0.18466 0.28112-0.42995 0.41892-0.24254 0.13505-0.565 0.13505-0.53192 0-0.80753-0.33073-0.27561-0.33073-0.27561-0.96738z"/>
   <path d="m29.507 59.58q0-0.55948-0.23151-0.87643-0.22875-0.3197-0.63114-0.3197t-0.6339 0.3197q-0.22875 0.31695-0.22875 0.87643t0.22875 0.87919q0.23151 0.31695 0.6339 0.31695t0.63114-0.31695q0.23151-0.3197 0.23151-0.87919zm-1.7253-1.0776q0.15985-0.27561 0.40239-0.4079 0.24529-0.13505 0.58429-0.13505 0.56224 0 0.91226 0.44648 0.35278 0.44648 0.35278 1.1741 0 0.7276-0.35278 1.1741-0.35002 0.44648-0.91226 0.44648-0.339 0-0.58429-0.13229-0.24254-0.13505-0.40239-0.41066v0.46302h-0.50987v-4.2885h0.50987z"/>
   <path d="m30.874 58.034h0.50712v3.1419q0 0.5898-0.226 0.85438-0.22324 0.26458-0.72209 0.26458h-0.19292v-0.42995h0.13505q0.28939 0 0.39412-0.13505 0.10473-0.13229 0.10473-0.55397zm0-1.2016h0.50712v0.64216h-0.50712z"/>
   <path d="m35.08 59.451v0.24805h-2.3316q0.03307 0.52366 0.31419 0.79926 0.28388 0.27285 0.78824 0.27285 0.29214 0 0.565-0.07166 0.27561-0.07166 0.5457-0.21497v0.47956q-0.27285 0.11576-0.55948 0.17639-0.28663 0.06063-0.58153 0.06063-0.73863 0-1.1713-0.42995-0.42995-0.42995-0.42995-1.1631 0-0.75792 0.4079-1.2016 0.41066-0.44648 1.1052-0.44648 0.62287 0 0.98392 0.40239 0.3638 0.39963 0.3638 1.0886zm-0.50712-0.14883q-0.0055-0.41617-0.23427-0.66421-0.226-0.24805-0.60082-0.24805-0.42444 0-0.68075 0.23978-0.25356 0.23978-0.29214 0.67524z"/>
   <path d="m38.133 58.153v0.47404q-0.21497-0.11851-0.4327-0.17639-0.21497-0.06063-0.43546-0.06063-0.49334 0-0.76619 0.31419-0.27285 0.31144-0.27285 0.87643t0.27285 0.87919q0.27285 0.31144 0.76619 0.31144 0.22048 0 0.43546-0.05788 0.21773-0.06063 0.4327-0.17914v0.46853q-0.21222 0.09922-0.44097 0.14883-0.226 0.04961-0.48231 0.04961-0.69729 0-1.1079-0.43822t-0.41066-1.1824q0-0.75516 0.41341-1.1879 0.41617-0.4327 1.1383-0.4327 0.23427 0 0.45751 0.04961 0.22324 0.04685 0.4327 0.14332z"/>
   <path d="m39.522 57.158v0.87643h1.0446v0.39412h-1.0446v1.6757q0 0.37758 0.10198 0.48507 0.10473 0.10749 0.42168 0.10749h0.5209v0.42444h-0.5209q-0.58704 0-0.81029-0.21773-0.22324-0.22049-0.22324-0.79926v-1.6757h-0.37207v-0.39412h0.37207v-0.87643z"/>
  </g>
  <path d="m41.077 57.758 8.4271 0.45043 0.13075 2.7873 4.1469-4.4744-4.864-5.8969-0.19328 2.9819-7.5193 0.32709z" fill="#b3b3b3" stroke="#b3b3b3" stroke-width=".26458px"/>
  <g transform="translate(163.22 .80182)" fill="#fff" stroke="#333">
   <path d="m24.079 83.655a5.0232 5.0232 0 0 1-5.0232 5.0232 5.0232 5.0232 0 0 1-5.0232-5.0232 5.0232 5.0232 0 0 1 5.0232-5.0232 5.0232 5.0232 0 0 1 5.0232 5.0232" stroke-width=".51438"/>
   <path d="m22.406 83.655a3.3501 3.3501 0 0 1-3.3501 3.3501 3.3501 3.3501 0 0 1-3.3501-3.3501 3.3501 3.3501 0 0 1 3.3501-3.3501 3.3501 3.3501 0 0 1 3.3501 3.3501" stroke-width=".3577"/>
  </g>
  <path d="m136.5 57.143 8.4271 0.45043 0.13076 2.7873 4.1469-4.4744-4.864-5.8969-0.19328 2.9819-7.5193 0.32709z" fill="#b3b3b3" stroke="#b3b3b3" stroke-width=".26458px"/>
  <text fill="#000000" font-family="sans-serif" font-size="6.35px" style="line-height:1.25;shape-inside:url(#rect1025);white-space:pre" xml:space="preserve"/>
  <g transform="matrix(.79971 -.010535 .010535 .79971 -22.785 57.743)" stroke="#000">
   <path d="m77.164 4.9694a5.1027 4.6302 0 0 1-5.1027 4.6302 5.1027 4.6302 0 0 1-5.1027-4.6302 5.1027 4.6302 0 0 1 5.1027-4.6302 5.1027 4.6302 0 0 1 5.1027 4.6302" fill="#fff" stroke-width=".465"/>
   <g fill="none" stroke-width=".465">
    <path d="m71.953 9.5482v11.092l-6.5481 6.949"/>
    <path d="m71.953 20.64 6.0136 7.0826"/>
    <path d="m66.607 12.622 11.225 0.26727"/>
    <path d="m69.28 5.8064c1.8709 2.2853 4.1427 1.8867 5.3454 0.26727"/>
   </g>
   <path d="m70.554 3.1468a0.37156 0.41801 0 0 1-0.37156 0.41801 0.37156 0.41801 0 0 1-0.37156-0.41801 0.37156 0.41801 0 0 1 0.37156-0.41801 0.37156 0.41801 0 0 1 0.37156 0.41801" stroke-width=".32323"/>
   <path d="m74.062 3.0669a0.37156 0.41801 0 0 1-0.37156 0.41801 0.37156 0.41801 0 0 1-0.37156-0.41801 0.37156 0.41801 0 0 1 0.37156-0.41801 0.37156 0.41801 0 0 1 0.37156 0.41801" stroke-width=".32323"/>
  </g>
  <g transform="translate(-65.241 49.1)" style="shape-inside:url(#rect6017);white-space:pre" aria-label="هغه ">
   <path d="m89.167 12.56q0.14883-0.11162 0.28939-0.3762 0.16123-0.29766 0.16123-0.54984 0-0.19017-0.06201-0.34313-0.09095-0.21498-0.33073-0.21498-0.26872 0-0.3638 0.18604-0.09095 0.17777-0.09095 0.32246 0 0.12402 0.02894 0.27699 0.08682 0.48782 0.36794 0.69866zm-1.3105 0.3514q0.21497 0 0.53744-0.04548-0.18604-0.43408-0.24805-0.71934-0.07441-0.32246-0.07441-0.58704 0-0.34727 0.18604-0.6904 0.19844-0.37207 0.51676-0.33486-0.1819-0.16123-0.51676-0.21911v-0.76481q0.92191 0.28112 1.8149 1.0211 1.0583 0.86403 1.3229 1.7818 0.05788 0.21497 0.05788 0.45062 0 0.42581-0.16536 0.678-0.30592 0.46716-1.0294 0.46716-0.54157 0-1.1782-0.44648-0.49609 0.1695-1.0997 0.1695h-0.56637v-0.76068zm2.3813-1.3395q0.0248 0.15296 0.0248 0.31419 0 0.60772-0.40514 1.0418-0.04961 0.05788-0.11989 0.13642 0.21497 0.19017 0.41754 0.19017 0.51676 0 0.58704-0.27699 0.02894-0.12402 0.02894-0.26045 0-0.24805-0.13643-0.57051-0.11989-0.28525-0.39688-0.57464z"/>
   <path d="m85.455 12.908q-0.80202 0.76481-1.6371 0.76481h-0.48783v-0.76068h0.39688q0.44235 0 0.7152-0.16536 0.24391-0.14883 0.40928-0.31006-0.40101-0.3514-0.68213-0.72347-0.12402-0.16123-0.12402-0.34726 0-0.12816 0.05374-0.29766 0.06615-0.22738 0.49609-0.44235 0.36794-0.18604 0.8599-0.18604t0.8599 0.18604q0.42995 0.21497 0.49609 0.44235 0.05374 0.1695 0.05374 0.29766 0 0.18604-0.12402 0.34726-0.31833 0.40514-0.68213 0.72347 0.12816 0.12816 0.40928 0.31006 0.25218 0.16536 0.7152 0.16536h0.39688v0.76068h-0.48783q-0.83509 0-1.6371-0.76481zm0.23151-1.6743q-0.12402-0.02894-0.23151-0.02894t-0.23151 0.02894q-0.1943 0.04961-0.1943 0.1819 0 0.11989 0.42581 0.51263 0.42581-0.39274 0.42581-0.51263 0-0.13229-0.1943-0.1819zm-0.54157-2.1084h0.62012v0.62012h-0.62012z"/>
   <path d="m81.66 12.507q-0.06201-0.17363-0.11576-0.3762-0.05374-0.20671-0.10335-0.62425-0.49609 0.04961-0.83509 0.3266-0.45889 0.36794-0.45062 0.62425 0.0041 0.1695 0.3762 0.27285 0.37207 0.10335 1.1286-0.22324zm-0.27699-1.5958q-0.01654-0.16123-0.02894-0.339h0.76068q0.0041 0.69453 0.15296 1.4139 0.08682 0.41755 0.31833 0.74414 0.12816 0.1819 0.59118 0.1819h0.31006v0.76068h-0.53744q-0.37207 0-0.67386-0.21084-0.18604-0.12816-0.34313-0.37207-0.57051 0.30179-1.2154 0.30179-0.23151 0-0.47129-0.06201-0.78135-0.19844-0.78135-0.83509 0-0.7152 0.84336-1.2402 0.45062-0.28112 1.0749-0.34313z"/>
  </g>
  <g transform="translate(5.0626 73.857)" style="shape-inside:url(#rect6023);white-space:pre" aria-label="her">
   <g transform="matrix(.26458 0 0 .26458 1.7606 -34.311)" style="shape-inside:url(#rect12470)" aria-label="him">
    <path d="m42.4 117.08h-2.2031v-7.4531q0-0.90234-0.10547-1.6875-0.10547-0.79688-0.38672-1.2422-0.29297-0.49219-0.84375-0.72656-0.55078-0.24609-1.4297-0.24609-0.90234 0-1.8867 0.44531t-1.8867 1.1367v9.7734h-2.2031v-18.234h2.2031v6.5977q1.0312-0.85547 2.1328-1.3359 1.1016-0.48047 2.2617-0.48047 2.1211 0 3.2344 1.2773 1.1133 1.2774 1.1133 3.6797z"/>
    <path d="m49.01 101.8h-2.4844v-2.2852h2.4844zm-0.14062 15.281h-2.2031v-13.09h2.2031z"/>
    <path d="m72.354 117.08h-2.2031v-7.4531q0-0.84375-0.08203-1.6289-0.07031-0.78515-0.31641-1.2539-0.26953-0.50391-0.77344-0.76172-0.50391-0.25781-1.4531-0.25781-0.92578 0-1.8516 0.46875-0.92578 0.45703-1.8516 1.1719 0.03516 0.26953 0.05859 0.63281 0.02344 0.35157 0.02344 0.70313v8.3789h-2.2031v-7.4531q0-0.86719-0.08203-1.6406-0.07031-0.78515-0.31641-1.2539-0.26953-0.50391-0.77344-0.75-0.50391-0.25781-1.4531-0.25781-0.90234 0-1.8164 0.44531-0.90234 0.44531-1.8047 1.1367v9.7734h-2.2031v-13.09h2.2031v1.4531q1.0312-0.85547 2.0508-1.3359 1.0312-0.48047 2.1914-0.48047 1.3359 0 2.2617 0.5625 0.9375 0.5625 1.3945 1.5586 1.3359-1.125 2.4375-1.6172 1.1016-0.50391 2.3555-0.50391 2.1562 0 3.1758 1.3125 1.0312 1.3008 1.0312 3.6445z"/>
   </g>
   <g transform="matrix(.26458 0 0 .26458 24.697 18.998)" style="shape-inside:url(#rect13549)" aria-label="complement">
    <path d="m134.21-118.91q-0.85677 0.41015-1.6315 0.63802-0.76563 0.22786-1.6315 0.22786-1.1029 0-2.0234-0.31901-0.92058-0.32812-1.5768-0.98437-0.66537-0.65625-1.03-1.6589t-0.36458-2.3424q0-2.4974 1.3672-3.9193 1.3763-1.4219 3.6276-1.4219 0.875 0 1.7135 0.2461 0.84766 0.24609 1.5495 0.60156v1.905h-0.0911q-0.78386-0.61068-1.6224-0.9388-0.82943-0.32813-1.6224-0.32813-1.4583 0-2.306 0.98438-0.83855 0.97526-0.83855 2.8711 0 1.8412 0.82032 2.8346 0.82943 0.98437 2.3242 0.98437 0.51953 0 1.0573-0.13671 0.53777-0.13672 0.96615-0.35547 0.3737-0.19141 0.70183-0.40105 0.32812-0.21875 0.51953-0.37369h0.0911z" style="shape-inside:url(#rect13549)"/>
    <path d="m145.09-123.36q0 2.4883-1.276 3.9284-1.276 1.4401-3.418 1.4401-2.1602 0-3.4362-1.4401-1.2669-1.4401-1.2669-3.9284 0-2.4883 1.2669-3.9284 1.276-1.4492 3.4362-1.4492 2.1419 0 3.418 1.4492 1.276 1.4401 1.276 3.9284zm-1.7682 0q0-1.9779-0.77474-2.9349-0.77474-0.96615-2.151-0.96615-1.3945 0-2.1693 0.96615-0.76562 0.95703-0.76562 2.9349 0 1.9141 0.77474 2.9076 0.77474 0.98438 2.1602 0.98438 1.3672 0 2.1419-0.97527 0.78385-0.98437 0.78385-2.9167z" style="shape-inside:url(#rect13549)"/>
    <path d="m162.61-118.27h-1.7136v-5.7969q0-0.65625-0.0638-1.2669-0.0547-0.61067-0.24609-0.97526-0.20964-0.39193-0.60157-0.59245t-1.1302-0.20052q-0.72005 0-1.4401 0.36459-0.72005 0.35547-1.4401 0.91146 0.0273 0.20963 0.0456 0.49218 0.0182 0.27344 0.0182 0.54688v6.5169h-1.7135v-5.7969q0-0.67448-0.0638-1.276-0.0547-0.61068-0.24609-0.97526-0.20964-0.39193-0.60156-0.58334-0.39193-0.20052-1.1302-0.20052-0.70182 0-1.4128 0.34636-0.70182 0.34635-1.4036 0.88411v7.6016h-1.7135v-10.181h1.7135v1.1302q0.80209-0.66536 1.5951-1.0391 0.80208-0.3737 1.7044-0.3737 1.0391 0 1.7591 0.4375 0.72916 0.4375 1.0846 1.2122 1.0391-0.875 1.8958-1.2578 0.85677-0.39193 1.832-0.39193 1.6771 0 2.47 1.0208 0.80209 1.0117 0.80209 2.8346z" style="shape-inside:url(#rect13549)"/>
    <path d="m174.87-123.49q0 1.2396-0.35547 2.2695-0.35547 1.0208-1.0026 1.7318-0.60157 0.67448-1.4219 1.0482-0.8112 0.36458-1.7227 0.36458-0.79297 0-1.4401-0.17318-0.63802-0.17317-1.3034-0.53776v4.2656h-1.7136v-13.936h1.7136v1.0664q0.68359-0.57422 1.5312-0.95703 0.85677-0.39193 1.8229-0.39193 1.8412 0 2.862 1.3945 1.03 1.3854 1.03 3.8555zm-1.7682 0.0456q0-1.8412-0.62891-2.7526-0.6289-0.91146-1.9323-0.91146-0.73828 0-1.4857 0.31901t-1.431 0.83855v5.7695q0.72916 0.32812 1.2487 0.44661 0.52864 0.11849 1.194 0.11849 1.431 0 2.2331-0.96614 0.80208-0.96615 0.80208-2.862z" style="shape-inside:url(#rect13549)"/>
    <path d="m179.27-118.27h-1.7136v-14.182h1.7136z" style="shape-inside:url(#rect13549)"/>
    <path d="m191.2-123.19h-7.5013q0 0.9388 0.28255 1.6406 0.28255 0.69271 0.77474 1.1393 0.47396 0.4375 1.1211 0.65625 0.65625 0.21875 1.4401 0.21875 1.0391 0 2.0872-0.41015 1.0573-0.41927 1.5039-0.82032h0.0911v1.8685q-0.86588 0.36458-1.7682 0.61067-0.90234 0.2461-1.8958 0.2461-2.5338 0-3.9557-1.3672-1.4219-1.3763-1.4219-3.901 0-2.4974 1.3581-3.9648 1.3672-1.4674 3.5912-1.4674 2.0599 0 3.1719 1.2031 1.1211 1.2031 1.1211 3.418zm-1.668-1.3125q-9e-3 -1.349-0.68359-2.0872-0.66537-0.73828-2.0326-0.73828-1.3763 0-2.1966 0.8112-0.8112 0.8112-0.92057 2.0143z" style="shape-inside:url(#rect13549)"/>
    <path d="m208.66-118.27h-1.7135v-5.7969q0-0.65625-0.0638-1.2669-0.0547-0.61067-0.2461-0.97526-0.20963-0.39193-0.60156-0.59245t-1.1302-0.20052q-0.72005 0-1.4401 0.36459-0.72005 0.35547-1.4401 0.91146 0.0273 0.20963 0.0456 0.49218 0.0182 0.27344 0.0182 0.54688v6.5169h-1.7136v-5.7969q0-0.67448-0.0638-1.276-0.0547-0.61068-0.24609-0.97526-0.20964-0.39193-0.60157-0.58334-0.39193-0.20052-1.1302-0.20052-0.70182 0-1.4128 0.34636-0.70183 0.34635-1.4036 0.88411v7.6016h-1.7135v-10.181h1.7135v1.1302q0.80209-0.66536 1.5951-1.0391 0.80208-0.3737 1.7044-0.3737 1.0391 0 1.7591 0.4375 0.72917 0.4375 1.0846 1.2122 1.0391-0.875 1.8958-1.2578 0.85677-0.39193 1.832-0.39193 1.6771 0 2.4701 1.0208 0.80208 1.0117 0.80208 2.8346z" style="shape-inside:url(#rect13549)"/>
    <path d="m220.48-123.19h-7.5013q0 0.9388 0.28255 1.6406 0.28256 0.69271 0.77475 1.1393 0.47395 0.4375 1.1211 0.65625 0.65625 0.21875 1.4401 0.21875 1.0391 0 2.0872-0.41015 1.0573-0.41927 1.5039-0.82032h0.0911v1.8685q-0.86589 0.36458-1.7682 0.61067-0.90234 0.2461-1.8958 0.2461-2.5339 0-3.9557-1.3672-1.4219-1.3763-1.4219-3.901 0-2.4974 1.3581-3.9648 1.3672-1.4674 3.5912-1.4674 2.0599 0 3.1719 1.2031 1.1211 1.2031 1.1211 3.418zm-1.668-1.3125q-9e-3 -1.349-0.6836-2.0872-0.66537-0.73828-2.0326-0.73828-1.3763 0-2.1966 0.8112-0.8112 0.8112-0.92058 2.0143z" style="shape-inside:url(#rect13549)"/>
    <path d="m231.59-118.27h-1.7135v-5.7969q0-0.70182-0.082-1.3125-0.082-0.61979-0.30078-0.96615-0.22787-0.38281-0.65625-0.5651-0.42839-0.19141-1.112-0.19141-0.70182 0-1.4674 0.34636-0.76562 0.34635-1.4674 0.88411v7.6016h-1.7135v-10.181h1.7135v1.1302q0.80209-0.66536 1.6589-1.0391t1.7591-0.3737q1.6497 0 2.5156 0.99349 0.86588 0.99349 0.86588 2.862z" style="shape-inside:url(#rect13549)"/>
    <path d="m240.18-118.37q-0.48307 0.12761-1.0573 0.20964-0.56511 0.082-1.0117 0.082-1.5586 0-2.3698-0.83854-0.8112-0.83855-0.8112-2.6888v-5.4141h-1.1576v-1.4401h1.1576v-2.9258h1.7135v2.9258h3.5365v1.4401h-3.5365v4.6393q0 0.80208 0.0365 1.2578 0.0365 0.44662 0.25521 0.83855 0.20052 0.36458 0.54688 0.53776 0.35547 0.16406 1.0755 0.16406 0.41927 0 0.875-0.11849 0.45573-0.1276 0.65625-0.20963h0.0911z" style="shape-inside:url(#rect13549)"/>
   </g>
  </g>
  <g transform="matrix(1.1632 0 0 1.1632 -25.453 -14.793)" stroke="#000">
   <path d="m166.15 65.135a4.081 3.7031 24.284 0 1-5.2429 1.6971 4.081 3.7031 24.284 0 1-2.1969-5.0538 4.081 3.7031 24.284 0 1 5.2429-1.6971 4.081 3.7031 24.284 0 1 2.1969 5.0538" fill="#fff" stroke-width=".3719"/>
   <g fill="none" stroke-width=".3719">
    <path d="m159.71 66.07c-2.1483 1.5895-3.1899 4.8532-3.2748 8.4548-0.31609 2.7877-2.1741 5.1141-4.9086 6.1744"/>
    <path d="m156.43 74.525c1.8346 1.7114 3.5628 3.5026 3.9966 6.2646"/>
    <path d="m154.13 71.2c3.8184-4.9768 5.1573-2.7904 5.7921 1.4298"/>
    <path d="m159.91 63.735c1.6998 0.89093 1.8253 0.93699 3.3061 2.5765"/>
   </g>
   <path d="m162.29 61.888a0.29717 0.33431 24.284 0 1-0.40836 0.18252 0.29717 0.33431 24.284 0 1-0.13339-0.42695 0.29717 0.33431 24.284 0 1 0.40837-0.18252 0.29717 0.33431 24.284 0 1 0.13338 0.42695" stroke-width=".25851"/>
   <path d="m164.55 63.428a0.29717 0.33431 24.284 0 1-0.40837 0.18252 0.29717 0.33431 24.284 0 1-0.13338-0.42694 0.29717 0.33431 24.284 0 1 0.40836-0.18252 0.29717 0.33431 24.284 0 1 0.13339 0.42695" stroke-width=".25851"/>
   <g fill="none" stroke-width=".3719">
    <path d="m160.92 62.004c0.19786 0.45897 0.40057 0.67846 0.92888 0.93238"/>
    <path d="m161.65 61.194c0.48402 0.29011 0.74027 0.51649 1.0749 0.75944"/>
    <path d="m163.9 62.68c0.48401 0.29011 0.74026 0.51649 1.0749 0.75944"/>
    <path d="m163.28 63.67c0.28239 0.41238 0.5235 0.58881 1.0908 0.73646"/>
   </g>
  </g>
  <g>
   <g transform="translate(61.101 45.878)" style="shape-inside:url(#rect1126);white-space:pre" aria-label="+">
    <path d="m34.687 24.561v2.3027h2.3027v0.7028h-2.3027v2.3027h-0.69453v-2.3027h-2.3027v-0.7028h2.3027v-2.3027z"/>
   </g>
   <g transform="translate(-2.7648 -.31634)" style="shape-inside:url(#rect1855);white-space:pre" aria-label="کېدل">
    <path d="m123.7 69.461h-1.7053v-0.95084h1.602q0.76481 0 0.99735-0.53743 0.0827-0.18603 0.0827-0.37207 0-0.35657-0.27905-0.69763l-1.602-1.9637q-0.25838-0.31523-0.25838-0.7338 0-0.18087 0.0517-0.3514 0.1602-0.60978 0.69763-0.83199l3.8499-1.602v0.96118l-3.0747 1.2919q-0.3669 0.15503-0.47542 0.36173-0.031 0.05684-0.031 0.18603 0 0.16536 0.16019 0.35657l1.4211 1.7053q0.5271 0.63562 0.5271 1.2712 0 0.58394-0.3204 1.1059-0.49092 0.80098-1.6433 0.80098z"/>
    <path d="m120.44 69.017q-0.39791 0.44442-1.1834 0.44442h-0.46509v-0.95084h0.18087q0.5116 0 0.73897-0.22738 0.25321-0.25321 0.25321-0.80098v-1.1214h0.95085v1.1214q0 0.54777 0.25321 0.80098 0.22738 0.22738 0.73897 0.22738h0.28422v0.95084h-0.56844q-0.77514 0-1.1834-0.44442zm-0.38758 2.2531h0.77515v0.77514h-0.77515zm0-1.2919h0.77515v0.77514h-0.77515z"/>
    <path d="m116.16 66.49q-0.29455-0.63045-1.2351-1.4211h1.173q0.50126 0.40308 0.92501 1.111 0.41858 0.69246 0.41858 1.2971 0 0.37724 0.42891 0.80615 0.22737 0.22738 0.73897 0.22738h0.38757v0.95084h-0.67179q-0.75964 0-1.2609-0.67179-0.48059 0.66146-1.5503 0.83199-0.23771 0.03617-0.47025 0.03617-0.5271 0-1.0594-0.19637v-0.95084q0.59428 0.21704 1.0284 0.21704 0.17053 0 0.34623-0.04651 0.88883-0.25321 1.0697-0.83199 0.0413-0.13953 0.0413-0.35657 0-0.3514-0.31006-1.0025z"/>
    <path d="m111.03 69.084q0.40307-0.65112 0.40307-1.8242v-5.8394h0.95085v5.8394q0 1.6381-0.50643 2.3823-0.62528 0.91467-1.974 1.2557-0.69247 0.1757-1.1317 0.1757-0.49093 0-0.86817-0.11369-1.5089-0.47542-1.5141-1.8862-5e-3 -0.71313 0.32556-1.1886h0.95084q-0.33589 0.59428-0.33589 1.1886 0 0.67179 0.85782 0.99218 0.20671 0.08268 0.58395 0.08268 0.41341 0 0.97668-0.1757 0.89916-0.27388 1.2816-0.88883z"/>
   </g>
   <g transform="matrix(.96154 0 0 .96154 75.621 57.129)" style="shape-inside:url(#rect1861);white-space:pre" aria-label="to become">
    <path d="m37.368 16.66v0.98599h1.1751v0.44338h-1.1751v1.8852q0 0.42478 0.11472 0.5457 0.11782 0.12092 0.47439 0.12092h0.58601v0.47749h-0.58601q-0.66042 0-0.91157-0.24495-0.25115-0.24805-0.25115-0.89917v-1.8852h-0.41858v-0.44338h0.41858v-0.98599z"/>
    <path d="m40.642 18.046q-0.45889 0-0.72554 0.35967-0.26665 0.35657-0.26665 0.97978 0 0.62322 0.26355 0.98288 0.26665 0.35657 0.72864 0.35657 0.45579 0 0.72244-0.35967 0.26665-0.35967 0.26665-0.97978 0-0.61702-0.26665-0.97668-0.26665-0.36277-0.72244-0.36277zm0-0.48369q0.74414 0 1.1689 0.48369 0.42478 0.48369 0.42478 1.3395 0 0.85266-0.42478 1.3395-0.42478 0.48369-1.1689 0.48369-0.74724 0-1.172-0.48369-0.42168-0.48679-0.42168-1.3395 0-0.85576 0.42168-1.3395 0.42478-0.48369 1.172-0.48369z"/>
    <path d="m29.778 26.264q0-0.62942-0.26045-0.98599-0.25735-0.35967-0.71003-0.35967-0.45269 0-0.71314 0.35967-0.25735 0.35657-0.25735 0.98599t0.25735 0.98909q0.26045 0.35657 0.71314 0.35657 0.45268 0 0.71003-0.35657 0.26045-0.35967 0.26045-0.98909zm-1.941-1.2123q0.17983-0.31006 0.45268-0.45889 0.27595-0.15193 0.65732-0.15193 0.63252 0 1.0263 0.5023 0.39688 0.5023 0.39688 1.3208 0 0.81856-0.39688 1.3208-0.39377 0.5023-1.0263 0.5023-0.38137 0-0.65732-0.14883-0.27285-0.15193-0.45268-0.46199v0.5209h-0.57361v-4.8245h0.57361z"/>
    <path d="m34.286 26.119v0.27905h-2.6231q0.03721 0.58911 0.35347 0.89917 0.31936 0.30696 0.88677 0.30696 0.32866 0 0.63562-0.08061 0.31006-0.08062 0.61392-0.24184v0.5395q-0.30696 0.13022-0.62942 0.19844-0.32246 0.06821-0.65422 0.06821-0.83096 0-1.3177-0.48369-0.48369-0.48369-0.48369-1.3084 0-0.85266 0.45889-1.3519 0.46199-0.5023 1.2433-0.5023 0.70073 0 1.1069 0.45268 0.40928 0.44958 0.40928 1.2247zm-0.57051-0.16743q-0.0062-0.46819-0.26355-0.74724-0.25425-0.27905-0.67593-0.27905-0.47749 0-0.76584 0.26975-0.28525 0.26975-0.32866 0.75964z"/>
    <path d="m37.721 24.658v0.5333q-0.24184-0.13333-0.48679-0.19844-0.24184-0.06821-0.48989-0.06821-0.555 0-0.86196 0.35347-0.30696 0.35037-0.30696 0.98599t0.30696 0.98909q0.30696 0.35037 0.86196 0.35037 0.24805 0 0.48989-0.06511 0.24495-0.06821 0.48679-0.20154v0.5271q-0.23874 0.11162-0.49609 0.16743-0.25425 0.05581-0.5426 0.05581-0.78445 0-1.2464-0.49299-0.46199-0.49299-0.46199-1.3302 0-0.84956 0.46509-1.3364 0.46819-0.48679 1.2805-0.48679 0.26355 0 0.5147 0.05581 0.25115 0.05271 0.48679 0.16123z"/>
    <path d="m40.065 24.925q-0.45889 0-0.72554 0.35967-0.26665 0.35657-0.26665 0.97978 0 0.62322 0.26355 0.98289 0.26665 0.35657 0.72864 0.35657 0.45579 0 0.72244-0.35967 0.26665-0.35967 0.26665-0.97978 0-0.61702-0.26665-0.97668-0.26665-0.36277-0.72244-0.36277zm0-0.48369q0.74414 0 1.1689 0.48369 0.42478 0.48369 0.42478 1.3395 0 0.85266-0.42478 1.3395-0.42478 0.48369-1.1689 0.48369-0.74724 0-1.172-0.48369-0.42168-0.48679-0.42168-1.3395 0-0.85576 0.42168-1.3395 0.42478-0.48369 1.172-0.48369z"/>
    <path d="m45.305 25.192q0.21394-0.38447 0.5116-0.56741 0.29766-0.18293 0.70073-0.18293 0.5426 0 0.83716 0.38137 0.29456 0.37827 0.29456 1.079v2.096h-0.57361v-2.0774q0-0.49919-0.17673-0.74104-0.17673-0.24184-0.5395-0.24184-0.44338 0-0.70073 0.29456-0.25735 0.29456-0.25735 0.80305v1.9627h-0.57361v-2.0774q0-0.5023-0.17673-0.74104-0.17673-0.24184-0.5457-0.24184-0.43718 0-0.69453 0.29766-0.25735 0.29456-0.25735 0.79995v1.9627h-0.57361v-3.4727h0.57361v0.5395q0.19534-0.31936 0.46819-0.47129 0.27285-0.15193 0.64802-0.15193 0.37827 0 0.64182 0.19224 0.26665 0.19224 0.39378 0.55811z"/>
    <path d="m51.761 26.119v0.27905h-2.6231q0.03721 0.58911 0.35347 0.89917 0.31936 0.30696 0.88677 0.30696 0.32866 0 0.63562-0.08061 0.31006-0.08062 0.61392-0.24184v0.5395q-0.30696 0.13022-0.62942 0.19844-0.32246 0.06821-0.65422 0.06821-0.83096 0-1.3177-0.48369-0.48369-0.48369-0.48369-1.3084 0-0.85266 0.45889-1.3519 0.46199-0.5023 1.2433-0.5023 0.70073 0 1.1069 0.45268 0.40928 0.44958 0.40928 1.2247zm-0.57051-0.16743q-0.0062-0.46819-0.26355-0.74724-0.25425-0.27905-0.67593-0.27905-0.47749 0-0.76584 0.26975-0.28525 0.26975-0.32866 0.75964z"/>
   </g>
   <g transform="translate(51.932 75.752)" style="shape-inside:url(#rect942);white-space:pre" aria-label="ستړی">
    <path d="m31.141-6.6638q-0.22221 0.30489-0.5116 0.47542-0.39274 0.23771-0.90434 0.23771h-0.67179v-0.95084h0.38757q0.5116 0 0.73897-0.22738 0.41341-0.41341 0.41341-0.93017v-0.99218h0.95084v0.80615q0 0.33073 0.22738 0.84749 0.22221 0.5116 0.75964 0.5116 0.56327 0 0.79065-0.63045 0.1912-0.53227 0.1912-1.5348h0.95084q0 1.0594 0.09819 1.3177 0.33073 0.8785 0.89917 0.87333 0.7338-0.010335 0.7338-1.4469v-1.5193h0.95084v1.7673q0 1.0284-0.47542 1.6123-0.38757 0.47542-0.91467 0.59944-0.1912 0.046509-0.37207 0.046509-0.32556 0-0.60978-0.12919-0.70796-0.31523-0.80098-0.99735-0.24805 0.80615-0.74414 0.97668-0.3514 0.12402-0.68729 0.12402-0.50643 0-0.8785-0.25321-0.31006-0.2067-0.52193-0.58394z"/>
    <path d="m27.498-6.3951q-0.39791 0.44442-1.1834 0.44442h-0.46509v-0.95084h0.18087q0.5116 0 0.73897-0.22738 0.25321-0.25321 0.25321-0.80098v-1.1214h0.95084v1.1214q0 0.54777 0.25321 0.80098 0.22738 0.22738 0.73897 0.22738h0.28422v0.95084h-0.56844q-0.77514 0-1.1834-0.44442zm0.25838-4.7232h0.77514v0.77514h-0.77514zm-1.2919 0h0.77514v0.77514h-0.77514z"/>
    <path d="m24.837-4.5038q0-0.20671-0.14469-0.3514-0.14469-0.14986-0.35657-0.14986t-0.35657 0.14469q-0.14469 0.14469-0.14469 0.35657 0 0.21704 0.14469 0.36173 0.14469 0.13953 0.35657 0.13953t0.35657-0.14469q0.14469-0.14469 0.14469-0.35657zm0.30489-0.80615q0.32556 0.33073 0.32556 0.80615t-0.32556 0.80615q-0.33073 0.33073-0.80615 0.33073t-0.80098-0.33073q-0.33073-0.33073-0.33073-0.80615t0.33073-0.80615q0.32556-0.32556 0.80098-0.32556t0.80615 0.32556zm-1.7725-3.483h0.95084q0.15503 0.57877 0.17053 0.7338 0.05168 0.53227 0.42891 0.93017 0.21704 0.22738 0.73897 0.22738h0.38757v0.95084h-0.67179q-0.67179 0-0.93017-0.32039-0.3514 1.4366-1.6485 2.1239-1.4676 0.78031-3.1316 0.78031v-0.95084q1.571 0 2.62-0.66146 1.1265-0.71313 1.3074-1.788 0.05168-0.29972 0.05168-0.67179 0-0.65112-0.27388-1.3539z"/>
    <path d="m18.873-6.0127q-0.5271 0.8785-2.2996 1.2557-0.91467 0.19637-1.5348 0.19637-0.66662 0-1.0387-0.13436-1.5141-0.53743-1.5141-1.8862 0-0.60461 0.32556-1.1886h0.95084q-0.34106 0.67696-0.3359 1.1886 0.01033 0.75964 0.85783 0.99218 0.50126 0.13436 0.81648 0.10335 0.65112-0.056844 1.3177-0.18087 0.91467-0.17053 1.3488-0.58394 0.30489-0.28939 0.30489-0.56327 0-0.3824-0.65112-0.53227-0.34106-0.077514-0.93017-0.31523-0.34623-0.13953-0.64595-0.40307-0.33073-0.29455-0.3359-0.88883 0-0.77514 0.98185-1.1575 0.49092-0.1912 1.0284-0.1912 0.53743 0 1.0335 0.21704 0.72864 0.31523 0.86816 1.2092h-0.95084q-0.06718-0.31523-0.40824-0.48576-0.2067-0.10335-0.56327-0.11369-0.40308-0.010335-0.72347 0.1912-0.31006 0.19637-0.31006 0.37207 0 0.28422 0.64595 0.50126 1.2816 0.42891 1.5761 0.75964 0.39791 0.43925 0.40824 0.89917 0.0052 0.3514-0.22221 0.73897z"/>
   </g>
   <g transform="translate(32.956 -60.823)" style="shape-inside:url(#rect948);white-space:pre" aria-label="tired">
    <path d="m38.903 137.12v0.98599h1.1751v0.44338h-1.1751v1.8852q0 0.42478 0.11472 0.5457 0.11782 0.12093 0.47439 0.12093h0.58601v0.47749h-0.58601q-0.66042 0-0.91157-0.24495-0.25115-0.24805-0.25115-0.89917v-1.8852h-0.41858v-0.44338h0.41858v-0.98599z"/>
    <path d="m40.832 138.11h0.57051v3.4727h-0.57051zm0-1.3519h0.57051v0.72244h-0.57051z"/>
    <path d="m44.605 138.64q-0.09612-0.0558-0.21084-0.0806-0.11162-0.0279-0.24805-0.0279-0.48369 0-0.74414 0.31626-0.25735 0.31316-0.25735 0.90227v1.8294h-0.57361v-3.4727h0.57361v0.5395q0.17983-0.31626 0.46819-0.46819 0.28836-0.15503 0.70073-0.15503 0.05891 0 0.13022 9e-3 0.07131 6e-3 0.15813 0.0217z"/>
    <path d="m48.043 139.7v0.27905h-2.6231q0.03721 0.58912 0.35347 0.89917 0.31936 0.30696 0.88677 0.30696 0.32866 0 0.63562-0.0806 0.31006-0.0806 0.61392-0.24185v0.5395q-0.30696 0.13023-0.62942 0.19844-0.32246 0.0682-0.65422 0.0682-0.83096 0-1.3177-0.48369-0.48369-0.48369-0.48369-1.3084 0-0.85266 0.45889-1.3518 0.46199-0.5023 1.2433-0.5023 0.70073 0 1.1069 0.45269 0.40928 0.44959 0.40928 1.2247zm-0.57051-0.16743q-0.0062-0.46819-0.26355-0.74724-0.25425-0.27905-0.67593-0.27905-0.47749 0-0.76584 0.26975-0.28525 0.26975-0.32866 0.75964z"/>
    <path d="m51.265 138.63v-1.879h0.57051v4.8245h-0.57051v-0.5209q-0.17983 0.31006-0.45579 0.46199-0.27285 0.14882-0.65732 0.14882-0.62942 0-1.0263-0.50229-0.39378-0.5023-0.39378-1.3208 0-0.81856 0.39378-1.3208 0.39688-0.5023 1.0263-0.5023 0.38447 0 0.65732 0.15193 0.27595 0.14883 0.45579 0.45889zm-1.9441 1.2123q0 0.62942 0.25735 0.98909 0.26045 0.35656 0.71314 0.35656 0.45268 0 0.71314-0.35656 0.26045-0.35967 0.26045-0.98909t-0.26045-0.98599q-0.26045-0.35967-0.71314-0.35967-0.45269 0-0.71314 0.35967-0.25735 0.35657-0.25735 0.98599z"/>
   </g>
  </g>
 </g>
</svg>
