<?xml version="1.0" encoding="UTF-8"?>
<!-- Created with Inkscape (http://www.inkscape.org/) -->
<svg width="171.37mm" height="147.36mm" version="1.1" viewBox="0 0 171.37 147.36" xmlns="http://www.w3.org/2000/svg">
 <g transform="translate(-2.1917 -73.237)">
  <g fill="none" stroke="#000">
   <path d="m49.007 100.67h103.14v68.848h-103.14z" stroke-width=".7276"/>
   <g stroke-width=".728">
    <path d="m49.099 100.67v68.848"/>
    <path d="m100.67 100.67v68.848"/>
    <path d="m48.732 135.09h103.68"/>
   </g>
  </g>
  <g transform="matrix(.26458 0 0 .26458 8.7775 2.5332)" style="shape-inside:url(#rect11464);white-space:pre" aria-label="کېدل">
   <path d="m479.84 405.45-10.918 5.2344q-0.625 0.29297-1.4258 0.74219-0.78125 0.42969-0.78125 0.74219t0.72266 0.95703q0.74219 0.64453 1.6797 1.4062l5.2148 4.2773q1.875 1.543 2.6758 3.0078 0.80078 1.4453 0.80078 2.9492 0 1.3477-0.44922 2.6172-0.44921 1.2695-1.3281 2.1289-0.99609 0.97656-2.4609 1.4844-1.4453 0.48828-3.3203 0.48828h-8.6133v-3.6719h8.5742q2.168 0 3.2617-0.78125 1.0938-0.80078 1.0938-2.2266 0-0.87891-0.82032-2.0312-0.80078-1.1719-3.1445-3.0859l-5.3516-4.3945q-0.91797-0.76172-1.582-1.543-0.66406-0.80078-0.66406-1.7383 0-1.3672 1.0938-2.3633 1.1133-0.9961 3.2226-2.0117l12.52-6.0352z"/>
   <path d="m462.98 431.48h-2.2852q-1.2109 0-2.6758-0.64453-1.4453-0.64453-2.0898-1.7578-0.68359 1.1523-2.0508 1.7773t-2.6562 0.625h-3.6523v-3.6719h2.7734q1.7578 0 2.8516-1.2109t1.0938-3.4375v-2.3633h3.2812v2.3633q0 2.1094 1.0938 3.3789 1.1133 1.2695 2.9102 1.2695h1.4062zm-5.7422 4.1797h-2.8906v-2.8906h2.8906zm0 4.082h-2.8906v-2.8906h2.8906z"/>
   <path d="m448.9 431.48h-1.0742q-1.9531 0-3.4375-0.72265-1.4648-0.74219-2.3633-2.0703-1.25 1.3867-2.7148 2.0898-1.4453 0.70312-3.0469 0.70312-2.832 0-5.2344 0t-2.5977 0v-3.6719h7.6758q1.1719 0 2.0703-0.3125 0.89843-0.3125 1.4062-0.85938 0.46875-0.52734 0.64453-1.0938 0.19531-0.5664 0.19531-1.1914 0-0.19531-0.0977-0.625-0.0781-0.42969-0.21484-0.95703l-3.0469-10.293h3.8086l2.6367 9.3164q0.3125 1.1133 0.72265 2.4024 0.41016 1.2891 0.76172 1.9336 0.44922 0.78125 1.0938 1.2305t1.6602 0.44922h1.1523z"/>
   <path d="m424.68 422.89q0 4.1406-3.1055 6.4844-3.0859 2.3438-8.6523 2.3438-5.4102 0-7.6758-1.9531-2.2461-1.9726-2.2461-6.6797 0-1.5234 0.19531-3.1445t0.21484-1.7774h3.3594v0.19531q-0.0586 0.27344-0.29297 1.9531-0.23438 1.6797-0.23438 2.7344 0 1.5039 0.25391 2.4024 0.27344 0.89844 0.9375 1.4648 0.70312 0.58594 2.0117 0.85938 1.3281 0.27343 3.5156 0.27343 2.2266 0 3.8281-0.46875 1.6211-0.46875 2.6367-1.2305 1.0547-0.80079 1.5234-1.7383 0.48829-0.9375 0.48829-1.9726v-21.543h3.2422z"/>
  </g>
  <g transform="matrix(.26458 0 0 .26458 -42.733 2.5332)" style="shape-inside:url(#rect11464-6);white-space:pre" aria-label="کېدل">
   <path d="m479.84 405.45-10.918 5.2344q-0.625 0.29297-1.4258 0.74219-0.78125 0.42969-0.78125 0.74219t0.72266 0.95703q0.74219 0.64453 1.6797 1.4062l5.2148 4.2773q1.875 1.543 2.6758 3.0078 0.80078 1.4453 0.80078 2.9492 0 1.3477-0.44922 2.6172-0.44921 1.2695-1.3281 2.1289-0.99609 0.97656-2.4609 1.4844-1.4453 0.48828-3.3203 0.48828h-8.6133v-3.6719h8.5742q2.168 0 3.2617-0.78125 1.0938-0.80078 1.0938-2.2266 0-0.87891-0.82032-2.0312-0.80078-1.1719-3.1445-3.0859l-5.3516-4.3945q-0.91797-0.76172-1.582-1.543-0.66406-0.80078-0.66406-1.7383 0-1.3672 1.0938-2.3633 1.1133-0.9961 3.2226-2.0117l12.52-6.0352z"/>
   <path d="m462.98 431.48h-2.2852q-1.2109 0-2.6758-0.64453-1.4453-0.64453-2.0898-1.7578-0.68359 1.1523-2.0508 1.7773t-2.6562 0.625h-3.6523v-3.6719h2.7734q1.7578 0 2.8516-1.2109t1.0938-3.4375v-2.3633h3.2812v2.3633q0 2.1094 1.0938 3.3789 1.1133 1.2695 2.9102 1.2695h1.4062zm-5.7422 4.1797h-2.8906v-2.8906h2.8906zm0 4.082h-2.8906v-2.8906h2.8906z"/>
   <path d="m448.9 431.48h-1.0742q-1.9531 0-3.4375-0.72265-1.4648-0.74219-2.3633-2.0703-1.25 1.3867-2.7148 2.0898-1.4453 0.70312-3.0469 0.70312-2.832 0-5.2344 0t-2.5977 0v-3.6719h7.6758q1.1719 0 2.0703-0.3125 0.89843-0.3125 1.4062-0.85938 0.46875-0.52734 0.64453-1.0938 0.19531-0.5664 0.19531-1.1914 0-0.19531-0.0977-0.625-0.0781-0.42969-0.21484-0.95703l-3.0469-10.293h3.8086l2.6367 9.3164q0.3125 1.1133 0.72265 2.4024 0.41016 1.2891 0.76172 1.9336 0.44922 0.78125 1.0938 1.2305t1.6602 0.44922h1.1523z"/>
   <path d="m424.68 422.89q0 4.1406-3.1055 6.4844-3.0859 2.3438-8.6523 2.3438-5.4102 0-7.6758-1.9531-2.2461-1.9726-2.2461-6.6797 0-1.5234 0.19531-3.1445t0.21484-1.7774h3.3594v0.19531q-0.0586 0.27344-0.29297 1.9531-0.23438 1.6797-0.23438 2.7344 0 1.5039 0.25391 2.4024 0.27344 0.89844 0.9375 1.4648 0.70312 0.58594 2.0117 0.85938 1.3281 0.27343 3.5156 0.27343 2.2266 0 3.8281-0.46875 1.6211-0.46875 2.6367-1.2305 1.0547-0.80079 1.5234-1.7383 0.48829-0.9375 0.48829-1.9726v-21.543h3.2422z"/>
  </g>
  <g transform="matrix(.26458 0 0 .26458 -40.567 36.611)" style="shape-inside:url(#rect11464-5);white-space:pre" aria-label="کول">
   <path d="m461.64 405.45-10.918 5.2344q-0.625 0.29297-1.4258 0.74219-0.78125 0.42969-0.78125 0.74219t0.72265 0.95703q0.74219 0.64453 1.6797 1.4062l5.2148 4.2773q1.875 1.543 2.6758 3.0078 0.80078 1.4453 0.80078 2.9492 0 1.3477-0.44922 2.6172t-1.3281 2.1289q-0.99609 0.97656-2.4609 1.4844-1.4453 0.48828-3.3203 0.48828h-8.6133v-3.6719h8.5742q2.168 0 3.2617-0.78125 1.0938-0.80078 1.0938-2.2266 0-0.87891-0.82031-2.0312-0.80078-1.1719-3.1445-3.0859l-5.3516-4.3945q-0.91796-0.76172-1.582-1.543-0.66406-0.80078-0.66406-1.7383 0-1.3672 1.0938-2.3633 1.1133-0.9961 3.2227-2.0117l12.52-6.0352z"/>
   <path d="m444.82 431.48h-3.4375q-0.66406 2.6758-2.3242 4.3555-1.6406 1.6797-4.1797 2.5977-2.2852 0.83984-4.2383 1.0742-1.9531 0.2539-3.5742 0.2539v-3.6719q1.2891 0 2.8906-0.15625t3.125-0.60547q2.0898-0.625 3.1836-1.582t1.6016-2.3438q-2.8711-0.23438-4.707-1.1133-1.8164-0.87891-2.9102-2.1484-1.0547-1.2109-1.4648-2.5781-0.39063-1.3672-0.39063-2.4805 0-2.9297 1.8945-5.1172 1.9141-2.207 4.2969-2.207 3.2422 0 5.2734 3.3789 2.0508 3.3789 2.0508 8.6719h2.9102zm-11.914-5.7422q0.70312 0.72265 2.0508 1.3086 1.3672 0.58594 3.5938 0.72266-0.0977-3.9062-1.1328-6.1133-1.0352-2.207-2.5977-2.207-1.3476 0-2.207 1.1133-0.85937 1.0938-0.85937 2.4023 0 0.56641 0.19531 1.2891 0.19531 0.72266 0.95703 1.4844z"/>
   <path d="m424.68 422.89q0 4.1406-3.1055 6.4844-3.0859 2.3438-8.6523 2.3438-5.4102 0-7.6758-1.9531-2.2461-1.9726-2.2461-6.6797 0-1.5234 0.19531-3.1445t0.21484-1.7774h3.3594v0.19531q-0.0586 0.27344-0.29297 1.9531-0.23438 1.6797-0.23438 2.7344 0 1.5039 0.25391 2.4024 0.27344 0.89844 0.9375 1.4648 0.70312 0.58594 2.0117 0.85938 1.3281 0.27343 3.5156 0.27343 2.2266 0 3.8281-0.46875 1.6211-0.46875 2.6367-1.2305 1.0547-0.80079 1.5234-1.7383 0.48829-0.9375 0.48829-1.9726v-21.543h3.2422z"/>
  </g>
  <g transform="matrix(.26458 0 0 .26458 11.881 36.611)" style="shape-inside:url(#rect11464-6-2);white-space:pre" aria-label="کول">
   <path d="m461.64 405.45-10.918 5.2344q-0.625 0.29297-1.4258 0.74219-0.78125 0.42969-0.78125 0.74219t0.72265 0.95703q0.74219 0.64453 1.6797 1.4062l5.2148 4.2773q1.875 1.543 2.6758 3.0078 0.80078 1.4453 0.80078 2.9492 0 1.3477-0.44922 2.6172t-1.3281 2.1289q-0.99609 0.97656-2.4609 1.4844-1.4453 0.48828-3.3203 0.48828h-8.6133v-3.6719h8.5742q2.168 0 3.2617-0.78125 1.0938-0.80078 1.0938-2.2266 0-0.87891-0.82031-2.0312-0.80078-1.1719-3.1445-3.0859l-5.3516-4.3945q-0.91796-0.76172-1.582-1.543-0.66406-0.80078-0.66406-1.7383 0-1.3672 1.0938-2.3633 1.1133-0.9961 3.2227-2.0117l12.52-6.0352z"/>
   <path d="m444.82 431.48h-3.4375q-0.66406 2.6758-2.3242 4.3555-1.6406 1.6797-4.1797 2.5977-2.2852 0.83984-4.2383 1.0742-1.9531 0.2539-3.5742 0.2539v-3.6719q1.2891 0 2.8906-0.15625t3.125-0.60547q2.0898-0.625 3.1836-1.582t1.6016-2.3438q-2.8711-0.23438-4.707-1.1133-1.8164-0.87891-2.9102-2.1484-1.0547-1.2109-1.4648-2.5781-0.39063-1.3672-0.39063-2.4805 0-2.9297 1.8945-5.1172 1.9141-2.207 4.2969-2.207 3.2422 0 5.2734 3.3789 2.0508 3.3789 2.0508 8.6719h2.9102zm-11.914-5.7422q0.70312 0.72265 2.0508 1.3086 1.3672 0.58594 3.5938 0.72266-0.0977-3.9062-1.1328-6.1133-1.0352-2.207-2.5977-2.207-1.3476 0-2.207 1.1133-0.85937 1.0938-0.85937 2.4023 0 0.56641 0.19531 1.2891 0.19531 0.72266 0.95703 1.4844z"/>
   <path d="m424.68 422.89q0 4.1406-3.1055 6.4844-3.0859 2.3438-8.6523 2.3438-5.4102 0-7.6758-1.9531-2.2461-1.9726-2.2461-6.6797 0-1.5234 0.19531-3.1445t0.21484-1.7774h3.3594v0.19531q-0.0586 0.27344-0.29297 1.9531-0.23438 1.6797-0.23438 2.7344 0 1.5039 0.25391 2.4024 0.27344 0.89844 0.9375 1.4648 0.70312 0.58594 2.0117 0.85938 1.3281 0.27343 3.5156 0.27343 2.2266 0 3.8281-0.46875 1.6211-0.46875 2.6367-1.2305 1.0547-0.80079 1.5234-1.7383 0.48829-0.9375 0.48829-1.9726v-21.543h3.2422z"/>
  </g>
  <g transform="matrix(.26458 0 0 .26458 43.065 -54.761)" style="shape-inside:url(#rect22628);white-space:pre" aria-label='"to happen"'>
   <path d="m52.558 670.67-0.5599 7.5391h-1.7188l-0.5599-7.5391zm-5.026 0-0.5599 7.5391h-1.7188l-0.5599-7.5391z"/>
   <path d="m64.706 690.8q-0.6901 0.18229-1.5104 0.29948-0.80729 0.11719-1.4453 0.11719-2.2266 0-3.3854-1.1979-1.1589-1.1979-1.1589-3.8412v-7.7344h-1.6536v-2.0573h1.6536v-4.1797h2.4479v4.1797h5.0521v2.0573h-5.0521v6.6276q0 1.1458 0.05208 1.7969 0.05208 0.63802 0.36458 1.1979 0.28646 0.52083 0.78125 0.76823 0.50781 0.23438 1.5365 0.23438 0.59896 0 1.25-0.16927 0.65104-0.1823 0.9375-0.29948h0.13021z"/>
   <path d="m80.071 683.67q0 3.5547-1.8229 5.612t-4.8828 2.0573q-3.0859 0-4.9089-2.0573-1.8099-2.0573-1.8099-5.612t1.8099-5.612q1.8229-2.0703 4.9089-2.0703 3.0599 0 4.8828 2.0703 1.8229 2.0573 1.8229 5.612zm-2.526 0q0-2.8255-1.1068-4.1927-1.1068-1.3802-3.0729-1.3802-1.9922 0-3.099 1.3802-1.0938 1.3672-1.0938 4.1927 0 2.7344 1.1068 4.1536 1.1068 1.4063 3.0859 1.4063 1.9531 0 3.0599-1.3932 1.1198-1.4063 1.1198-4.1667z"/>
   <path d="m105.41 690.93h-2.4479v-8.2813q0-1.0026-0.11718-1.875-0.11719-0.88542-0.42969-1.3802-0.32552-0.54688-0.9375-0.8073-0.61198-0.27344-1.5885-0.27344-1.0026 0-2.0964 0.4948-1.0938 0.49479-2.0964 1.263v10.859h-2.4479v-20.26h2.4479v7.3307q1.1458-0.95052 2.3698-1.4844 1.224-0.53386 2.513-0.53386 2.3568 0 3.5938 1.4193t1.237 4.0885z"/>
   <path d="m121.43 690.93h-2.4349v-1.5495q-0.32552 0.22135-0.88542 0.625-0.54688 0.39062-1.0677 0.625-0.61198 0.29948-1.4062 0.49479-0.79427 0.20833-1.862 0.20833-1.9662 0-3.3333-1.3021-1.3672-1.3021-1.3672-3.3203 0-1.6536 0.70313-2.6693 0.71614-1.0286 2.0312-1.6146 1.3281-0.58594 3.1901-0.79427t3.9974-0.3125v-0.3776q0-0.83334-0.29948-1.3802-0.28646-0.54688-0.83334-0.85938-0.52083-0.29948-1.25-0.40365-0.72917-0.10416-1.5234-0.10416-0.96354 0-2.1484 0.26041-1.1849 0.2474-2.4479 0.72917h-0.13021v-2.487q0.71615-0.19531 2.0703-0.42969 1.3542-0.23437 2.6693-0.23437 1.5365 0 2.6693 0.26041 1.1458 0.2474 1.9792 0.85938 0.82031 0.59896 1.25 1.5495t0.42969 2.3568zm-2.4349-3.5807v-4.0495q-1.1198 0.0651-2.6432 0.19531-1.5104 0.13021-2.3958 0.37761-1.0547 0.29948-1.7057 0.9375-0.65105 0.625-0.65105 1.7318 0 1.25 0.75521 1.888 0.75521 0.62501 2.3047 0.62501 1.2891 0 2.3568-0.4948 1.0677-0.50781 1.9792-1.2109z"/>
   <path d="m138.96 683.49q0 1.7708-0.50781 3.2422-0.50782 1.4583-1.4323 2.474-0.85937 0.96355-2.0312 1.4974-1.1588 0.52084-2.4609 0.52084-1.1328 0-2.0573-0.2474-0.91146-0.2474-1.862-0.76823v6.0938h-2.4479v-19.909h2.4479v1.5234q0.97656-0.82032 2.1875-1.3672 1.224-0.5599 2.6042-0.5599 2.6302 0 4.0886 1.9922 1.4714 1.9792 1.4714 5.5078zm-2.526 0.0651q0-2.6302-0.89844-3.9323t-2.7604-1.3021q-1.0547 0-2.1224 0.45573t-2.0443 1.1979v8.2422q1.0417 0.46875 1.7838 0.63802 0.75521 0.16927 1.7057 0.16927 2.0443 0 3.1901-1.3802t1.1458-4.0885z"/>
   <path d="m155.58 683.49q0 1.7708-0.50781 3.2422-0.50782 1.4583-1.4323 2.474-0.85937 0.96355-2.0312 1.4974-1.1588 0.52084-2.4609 0.52084-1.1328 0-2.0573-0.2474-0.91146-0.2474-1.862-0.76823v6.0938h-2.4479v-19.909h2.4479v1.5234q0.97657-0.82032 2.1875-1.3672 1.224-0.5599 2.6042-0.5599 2.6302 0 4.0885 1.9922 1.4714 1.9792 1.4714 5.5078zm-2.526 0.0651q0-2.6302-0.89844-3.9323t-2.7604-1.3021q-1.0547 0-2.1224 0.45573t-2.0443 1.1979v8.2422q1.0417 0.46875 1.7839 0.63802 0.75521 0.16927 1.7057 0.16927 2.0443 0 3.1901-1.3802t1.1458-4.0885z"/>
   <path d="m171.57 683.92h-10.716q0 1.3412 0.40365 2.3438 0.40364 0.98959 1.1068 1.6276 0.67708 0.625 1.6016 0.9375 0.93751 0.3125 2.0573 0.3125 1.4844 0 2.9818-0.58594 1.5104-0.59896 2.1484-1.1719h0.13021v2.6693q-1.237 0.52083-2.526 0.8724-1.2891 0.35156-2.7083 0.35156-3.6198 0-5.651-1.9531-2.0312-1.9662-2.0312-5.5729 0-3.5677 1.9401-5.6641 1.9531-2.0964 5.1302-2.0964 2.9427 0 4.5313 1.7188 1.6016 1.7188 1.6016 4.8828zm-2.3828-1.875q-0.013-1.9271-0.97656-2.9818-0.95052-1.0547-2.9036-1.0547-1.9662 0-3.138 1.1589-1.1589 1.1589-1.3151 2.8776z"/>
   <path d="m187.44 690.93h-2.4479v-8.2813q0-1.0026-0.11719-1.875-0.11719-0.88542-0.42969-1.3802-0.32552-0.54688-0.9375-0.8073-0.61198-0.27344-1.5885-0.27344-1.0026 0-2.0964 0.4948-1.0938 0.49479-2.0964 1.263v10.859h-2.4479v-14.544h2.4479v1.6146q1.1458-0.95052 2.3698-1.4844 1.224-0.53386 2.513-0.53386 2.3568 0 3.5938 1.4193t1.237 4.0885z"/>
   <path d="m199.8 670.67-0.55989 7.5391h-1.7188l-0.55989-7.5391zm-5.026 0-0.55989 7.5391h-1.7188l-0.5599-7.5391z"/>
  </g>
  <g transform="matrix(.26458 0 0 .26458 -7.6574 -62.891)" style="shape-inside:url(#rect22628-6);white-space:pre" aria-label="intransitive">
   <path d="m47.545 673.96h-2.7604v-2.5391h2.7604zm-0.15625 16.979h-2.4479v-14.544h2.4479z"/>
   <path d="m64.42 690.93h-2.4479v-8.2813q0-1.0026-0.11719-1.875-0.11719-0.88542-0.42969-1.3802-0.32552-0.54688-0.9375-0.8073-0.61198-0.27344-1.5885-0.27344-1.0026 0-2.0964 0.4948-1.0938 0.49479-2.0964 1.263v10.859h-2.4479v-14.544h2.4479v1.6146q1.1458-0.95052 2.3698-1.4844 1.224-0.53386 2.513-0.53386 2.3568 0 3.5938 1.4193t1.237 4.0885z"/>
   <path d="m76.686 690.8q-0.6901 0.18229-1.5104 0.29948-0.80729 0.11719-1.4453 0.11719-2.2266 0-3.3854-1.1979-1.1589-1.1979-1.1589-3.8412v-7.7344h-1.6536v-2.0573h1.6536v-4.1797h2.4479v4.1797h5.0521v2.0573h-5.0521v6.6276q0 1.1458 0.05208 1.7969 0.05208 0.63802 0.36458 1.1979 0.28646 0.52083 0.78125 0.76823 0.50781 0.23438 1.5365 0.23438 0.59896 0 1.25-0.16927 0.65104-0.1823 0.9375-0.29948h0.13021z"/>
   <path d="m88.73 679.06h-0.13021q-0.54688-0.13021-1.0677-0.18229-0.50781-0.0651-1.2109-0.0651-1.1328 0-2.1875 0.50781-1.0547 0.49479-2.0313 1.2891v10.326h-2.4479v-14.544h2.4479v2.1484q1.4583-1.1719 2.5651-1.6536 1.1198-0.49479 2.2786-0.49479 0.63802 0 0.92448 0.0391 0.28646 0.026 0.85938 0.11719z"/>
   <path d="m102.36 690.93h-2.4349v-1.5495q-0.32552 0.22135-0.88542 0.625-0.54688 0.39062-1.0677 0.625-0.61198 0.29948-1.4063 0.49479-0.79427 0.20833-1.862 0.20833-1.9661 0-3.3333-1.3021t-1.3672-3.3203q0-1.6536 0.70313-2.6693 0.71615-1.0286 2.0313-1.6146 1.3281-0.58594 3.1901-0.79427t3.9974-0.3125v-0.3776q0-0.83334-0.29948-1.3802-0.28646-0.54688-0.83333-0.85938-0.52083-0.29948-1.25-0.40365-0.72917-0.10416-1.5234-0.10416-0.96354 0-2.1484 0.26041-1.1849 0.2474-2.4479 0.72917h-0.13021v-2.487q0.71615-0.19531 2.0703-0.42969 1.3542-0.23437 2.6693-0.23437 1.5365 0 2.6693 0.26041 1.1458 0.2474 1.9792 0.85938 0.82032 0.59896 1.25 1.5495 0.42968 0.95052 0.42968 2.3568zm-2.4349-3.5807v-4.0495q-1.1198 0.0651-2.6432 0.19531-1.5104 0.13021-2.3958 0.37761-1.0547 0.29948-1.7057 0.9375-0.65104 0.625-0.65104 1.7318 0 1.25 0.75521 1.888 0.75521 0.62501 2.3047 0.62501 1.2891 0 2.3568-0.4948 1.0677-0.50781 1.9792-1.2109z"/>
   <path d="m119.26 690.93h-2.4479v-8.2813q0-1.0026-0.11719-1.875-0.11719-0.88542-0.42969-1.3802-0.32552-0.54688-0.9375-0.8073-0.61198-0.27344-1.5885-0.27344-1.0026 0-2.0964 0.4948-1.0938 0.49479-2.0964 1.263v10.859h-2.4479v-14.544h2.4479v1.6146q1.1458-0.95052 2.3698-1.4844 1.224-0.53386 2.513-0.53386 2.3568 0 3.5938 1.4193t1.237 4.0885z"/>
   <path d="m134.37 686.74q0 1.9922-1.6536 3.2682-1.6406 1.276-4.4922 1.276-1.6146 0-2.9688-0.3776-1.3412-0.39063-2.2526-0.84636v-2.7474h0.13021q1.1589 0.8724 2.5781 1.3932 1.4193 0.50782 2.7214 0.50782 1.6146 0 2.526-0.52084 0.91146-0.52083 0.91146-1.6406 0-0.85937-0.49479-1.3021t-1.901-0.75521q-0.52083-0.11719-1.3672-0.27344-0.83334-0.15625-1.5234-0.33854-1.9141-0.50781-2.7214-1.4844-0.79427-0.98958-0.79427-2.4219 0-0.89844 0.36458-1.6927 0.3776-0.79428 1.1328-1.4193 0.72917-0.61198 1.849-0.96354 1.1328-0.36458 2.526-0.36458 1.3021 0 2.6302 0.32552 1.3412 0.3125 2.2266 0.76823v2.6172h-0.13021q-0.9375-0.69011-2.2786-1.1589-1.3412-0.48177-2.6302-0.48177-1.3412 0-2.2656 0.52083-0.92448 0.50782-0.92448 1.5234 0 0.89844 0.5599 1.3542 0.54687 0.45573 1.7708 0.74219 0.67709 0.15625 1.5104 0.3125 0.84636 0.15625 1.4062 0.28646 1.7057 0.39063 2.6302 1.3412 0.92448 0.96354 0.92448 2.5521z"/>
   <path d="m140.51 673.96h-2.7604v-2.5391h2.7604zm-0.15625 16.979h-2.4479v-14.544h2.4479z"/>
   <path d="m152.78 690.8q-0.6901 0.18229-1.5104 0.29948-0.80729 0.11719-1.4453 0.11719-2.2266 0-3.3854-1.1979-1.1589-1.1979-1.1589-3.8412v-7.7344h-1.6536v-2.0573h1.6536v-4.1797h2.4479v4.1797h5.0521v2.0573h-5.0521v6.6276q0 1.1458 0.0521 1.7969 0.0521 0.63802 0.36458 1.1979 0.28646 0.52083 0.78125 0.76823 0.50781 0.23438 1.5365 0.23438 0.59896 0 1.25-0.16927 0.65104-0.1823 0.9375-0.29948h0.13021z"/>
   <path d="m158.38 673.96h-2.7604v-2.5391h2.7604zm-0.15625 16.979h-2.4479v-14.544h2.4479z"/>
   <path d="m175.67 676.39-5.8854 14.544h-2.4609l-5.8464-14.544h2.6563l4.5052 11.576 4.4662-11.576z"/>
   <path d="m191.05 683.92h-10.716q0 1.3412 0.40364 2.3438 0.40365 0.98959 1.1068 1.6276 0.67708 0.625 1.6016 0.9375 0.9375 0.3125 2.0573 0.3125 1.4844 0 2.9818-0.58594 1.5104-0.59896 2.1484-1.1719h0.13021v2.6693q-1.237 0.52083-2.526 0.8724-1.2891 0.35156-2.7083 0.35156-3.6198 0-5.651-1.9531-2.0312-1.9662-2.0312-5.5729 0-3.5677 1.9401-5.6641 1.9531-2.0964 5.1302-2.0964 2.9427 0 4.5312 1.7188 1.6016 1.7188 1.6016 4.8828zm-2.3828-1.875q-0.013-1.9271-0.97656-2.9818-0.95052-1.0547-2.9036-1.0547-1.9662 0-3.138 1.1589-1.1588 1.1589-1.3151 2.8776z"/>
  </g>
  <g transform="matrix(.26458 0 0 .26458 49.445 -91.428)" style="shape-inside:url(#rect22628-6-5);white-space:pre" aria-label="dynamic">
   <path d="m56.712 690.93h-2.4479v-1.5234q-1.0547 0.91146-2.2005 1.4193t-2.487 0.50781q-2.6042 0-4.1406-2.0052-1.5234-2.0052-1.5234-5.5599 0-1.849 0.52083-3.2943 0.53386-1.4453 1.4323-2.461 0.88542-0.98958 2.0573-1.5104 1.1849-0.52084 2.4479-0.52084 1.1458 0 2.0313 0.2474 0.88542 0.23437 1.862 0.74219v-6.3021h2.4479zm-2.4479-3.5807v-8.3464q-0.98958-0.44271-1.7708-0.61198t-1.7057-0.16927q-2.0573 0-3.2031 1.4323t-1.1458 4.0625q0 2.5912 0.88542 3.9453 0.88542 1.3412 2.8385 1.3412 1.0417 0 2.1094-0.45573 1.0677-0.46875 1.9922-1.1979z"/>
   <path d="m74.107 676.39-8.4896 19.909h-2.6172l2.7083-6.0677-5.7943-13.841h2.6563l4.4662 10.781 4.5052-10.781z"/>
   <path d="m89.472 690.93h-2.4479v-8.2813q0-1.0026-0.11719-1.875-0.11719-0.88542-0.42969-1.3802-0.32552-0.54688-0.9375-0.8073-0.61198-0.27344-1.5885-0.27344-1.0026 0-2.0964 0.4948-1.0938 0.49479-2.0964 1.263v10.859h-2.4479v-14.544h2.4479v1.6146q1.1458-0.95052 2.3698-1.4844 1.224-0.53386 2.513-0.53386 2.3568 0 3.5938 1.4193t1.237 4.0885z"/>
   <path d="m105.49 690.93h-2.4349v-1.5495q-0.32552 0.22135-0.88542 0.625-0.54687 0.39062-1.0677 0.625-0.61198 0.29948-1.4062 0.49479-0.79427 0.20833-1.862 0.20833-1.9661 0-3.3333-1.3021t-1.3672-3.3203q0-1.6536 0.70313-2.6693 0.71615-1.0286 2.0313-1.6146 1.3281-0.58594 3.1901-0.79427t3.9974-0.3125v-0.3776q0-0.83334-0.29948-1.3802-0.28646-0.54688-0.83333-0.85938-0.52084-0.29948-1.25-0.40365-0.72917-0.10416-1.5234-0.10416-0.96354 0-2.1484 0.26041-1.1849 0.2474-2.4479 0.72917h-0.13021v-2.487q0.71615-0.19531 2.0703-0.42969 1.3542-0.23437 2.6693-0.23437 1.5365 0 2.6693 0.26041 1.1458 0.2474 1.9792 0.85938 0.82032 0.59896 1.25 1.5495 0.42969 0.95052 0.42969 2.3568zm-2.4349-3.5807v-4.0495q-1.1198 0.0651-2.6432 0.19531-1.5104 0.13021-2.3958 0.37761-1.0547 0.29948-1.7057 0.9375-0.65104 0.625-0.65104 1.7318 0 1.25 0.75521 1.888 0.75521 0.62501 2.3047 0.62501 1.2891 0 2.3568-0.4948 1.0677-0.50781 1.9792-1.2109z"/>
   <path d="m131.45 690.93h-2.4479v-8.2813q0-0.9375-0.0911-1.8099-0.0781-0.8724-0.35156-1.3932-0.29948-0.5599-0.85938-0.84636t-1.6146-0.28646q-1.0286 0-2.0573 0.52084-1.0286 0.50781-2.0573 1.3021 0.0391 0.29948 0.0651 0.70313 0.026 0.39062 0.026 0.78125v9.3099h-2.4479v-8.2813q0-0.96355-0.0911-1.8229-0.0781-0.8724-0.35157-1.3932-0.29948-0.5599-0.85937-0.83334-0.5599-0.28646-1.6146-0.28646-1.0026 0-2.0182 0.4948-1.0026 0.49479-2.0052 1.263v10.859h-2.4479v-14.544h2.4479v1.6146q1.1458-0.95052 2.2786-1.4844 1.1458-0.53386 2.4349-0.53386 1.4844 0 2.513 0.625 1.0417 0.625 1.5495 1.7318 1.4844-1.25 2.7083-1.7969 1.224-0.5599 2.6172-0.5599 2.3958 0 3.5286 1.4583 1.1458 1.4453 1.1458 4.0495z"/>
   <path d="m138.8 673.96h-2.7604v-2.5391h2.7604zm-0.15625 16.979h-2.4479v-14.544h2.4479z"/>
   <path d="m154.26 690.02q-1.224 0.58594-2.3307 0.91146-1.0938 0.32552-2.3307 0.32552-1.5755 0-2.8906-0.45573-1.3151-0.46875-2.2526-1.4062-0.95052-0.9375-1.4714-2.3698-0.52083-1.4323-0.52083-3.3464 0-3.5677 1.9531-5.599 1.9662-2.0312 5.1823-2.0312 1.25 0 2.4479 0.35156 1.2109 0.35156 2.2135 0.85938v2.7214h-0.13021q-1.1198-0.87239-2.3177-1.3411-1.1849-0.46875-2.3177-0.46875-2.0833 0-3.2943 1.4062-1.1979 1.3932-1.1979 4.1016 0 2.6302 1.1719 4.0495 1.1849 1.4062 3.3203 1.4062 0.74219 0 1.5104-0.19531t1.3802-0.50782q0.53385-0.27343 1.0026-0.57291 0.46875-0.3125 0.74219-0.53386h0.13021z"/>
  </g>
  <g transform="matrix(.26458 0 0 .26458 52.232 -.62612)" style="shape-inside:url(#rect22628-6-5-7);white-space:pre" aria-label="takes و">
   <path d="m51.471 690.82q-0.62109 0.16406-1.3594 0.26953-0.72656 0.10547-1.3008 0.10547-2.0039 0-3.0469-1.0781t-1.043-3.457v-6.9609h-1.4883v-1.8516h1.4883v-3.7617h2.2031v3.7617h4.5469v1.8516h-4.5469v5.9648q0 1.0312 0.04687 1.6172 0.04687 0.57422 0.32812 1.0781 0.25781 0.46875 0.70312 0.69141 0.45703 0.21094 1.3828 0.21094 0.53906 0 1.125-0.15235 0.58594-0.16406 0.84375-0.26953h0.11719z"/>
   <path d="m64.314 690.93h-2.1914v-1.3945q-0.29297 0.19922-0.79688 0.5625-0.49219 0.35156-0.96094 0.5625-0.55078 0.26953-1.2656 0.44531-0.71484 0.1875-1.6758 0.1875-1.7695 0-3-1.1719t-1.2305-2.9883q0-1.4883 0.63281-2.4023 0.64453-0.92578 1.8281-1.4531 1.1953-0.52734 2.8711-0.71484t3.5977-0.28125v-0.33984q0-0.75-0.26953-1.2422-0.25781-0.49219-0.75-0.77344-0.46875-0.26953-1.125-0.36328-0.65625-0.0937-1.3711-0.0937-0.86719 0-1.9336 0.23438-1.0664 0.22265-2.2031 0.65625h-0.11719v-2.2383q0.64453-0.17578 1.8633-0.38671 1.2188-0.21094 2.4023-0.21094 1.3828 0 2.4023 0.23437 1.0312 0.22266 1.7812 0.77344 0.73828 0.53906 1.125 1.3945 0.38672 0.85547 0.38672 2.1211zm-2.1914-3.2227v-3.6445q-1.0078 0.0586-2.3789 0.17578-1.3594 0.11719-2.1562 0.33985-0.94922 0.26953-1.5352 0.84375-0.58594 0.5625-0.58594 1.5586 0 1.125 0.67969 1.6992 0.67969 0.5625 2.0742 0.5625 1.1602 0 2.1211-0.44531 0.96094-0.45704 1.7812-1.0898z"/>
   <path d="m80.463 690.93h-2.9062l-5.25-5.7305-1.4297 1.3594v4.3711h-2.2031v-18.234h2.2031v11.695l6.3633-6.5508h2.7773l-6.082 6.0469z"/>
   <path d="m93.74 684.62h-9.6445q0 1.207 0.36328 2.1094 0.36328 0.89062 0.99609 1.4648 0.60938 0.5625 1.4414 0.84375 0.84375 0.28125 1.8516 0.28125 1.3359 0 2.6836-0.52734 1.3594-0.53907 1.9336-1.0547h0.11719v2.4023q-1.1133 0.46875-2.2734 0.78516-1.1602 0.31641-2.4375 0.31641-3.2578 0-5.0859-1.7578-1.8281-1.7695-1.8281-5.0156 0-3.2109 1.7461-5.0977 1.7578-1.8867 4.6172-1.8867 2.6484 0 4.0781 1.5469 1.4414 1.5469 1.4414 4.3945zm-2.1445-1.6875q-0.01172-1.7344-0.87891-2.6836-0.85547-0.94922-2.6133-0.94922-1.7695 0-2.8242 1.043-1.043 1.043-1.1836 2.5898z"/>
   <path d="m106.43 687.16q0 1.793-1.4883 2.9414-1.4766 1.1484-4.043 1.1484-1.4531 0-2.6719-0.33984-1.207-0.35156-2.0273-0.76172v-2.4726h0.11719q1.043 0.78515 2.3203 1.2539 1.2773 0.45703 2.4492 0.45703 1.4531 0 2.2734-0.46875t0.82031-1.4766q0-0.77344-0.44531-1.1719-0.44531-0.39844-1.7109-0.67969-0.46875-0.10547-1.2305-0.2461-0.75-0.14062-1.3711-0.30468-1.7227-0.45703-2.4492-1.3359-0.71484-0.89063-0.71484-2.1797 0-0.80859 0.32812-1.5234 0.33984-0.71484 1.0195-1.2773 0.65625-0.55078 1.6641-0.86719 1.0195-0.32812 2.2734-0.32812 1.1719 0 2.3672 0.29297 1.207 0.28125 2.0039 0.6914v2.3555h-0.11719q-0.84375-0.62109-2.0508-1.043-1.207-0.43359-2.3672-0.43359-1.207 0-2.0391 0.46875-0.83203 0.45703-0.83203 1.3711 0 0.8086 0.50391 1.2188 0.49219 0.41016 1.5937 0.66797 0.60938 0.14063 1.3594 0.28125 0.76172 0.14063 1.2656 0.25781 1.5352 0.35157 2.3672 1.207 0.83203 0.86718 0.83203 2.2969z"/>
   <path d="m125.76 688.51q0 2.4219-0.91146 4.1146t-2.7214 2.5521q-1.6536 0.71615-3.138 0.98959-1.4844 0.28646-3.125 0.28646v-2.4479q1.4714 0 2.7214-0.22136 1.263-0.20833 2.3828-0.63802 1.25-0.57291 1.901-1.5755t0.65104-2.6432q-0.18229 0.11718-0.83333 0.32552-0.63802 0.20833-1.1979 0.20833-2.2396 0-3.4896-1.1849-1.25-1.1979-1.25-2.9427 0-1.9792 1.276-3.4245 1.2891-1.4583 2.8516-1.4583 2.1615 0 3.5156 2.2526 1.3672 2.2526 1.3672 5.8073zm-2.4089-2.0052q0-0.36458-0.15625-0.96354-0.15625-0.61198-0.48177-1.237-0.28646-0.54688-0.72917-0.96355-0.44271-0.42969-0.95052-0.42969-0.89844 0-1.4714 0.74219-0.57292 0.72917-0.57292 1.6016 0 0.76823 0.70312 1.263 0.71615 0.49479 1.901 0.49479 0.55989 0 1.0547-0.16927 0.49479-0.18229 0.70312-0.33854z"/>
  </g>
  <g transform="matrix(.26458 0 0 .26458 79.279 -3.1155)" style="shape-inside:url(#rect22628-6-5-7-8);white-space:pre" aria-label="no و takes complement">
   <path d="m166.66 688.5h-2.2031v-7.4531q0-0.90234-0.0937-1.6758-0.082-0.78516-0.32813-1.2539-0.26953-0.49218-0.75-0.72656-0.48047-0.24609-1.3125-0.24609-0.82031 0-1.6992 0.44531-0.86718 0.43359-1.6992 1.1367v9.7734h-2.2031v-13.09h2.2031v1.4531q0.98437-0.87891 1.9453-1.3477t2.0273-0.46875q1.9336 0 3.0234 1.2774 1.0898 1.2656 1.0898 3.6797z"/>
   <path d="m180.54 681.96q0 3.3047-1.5938 5.1094-1.5938 1.793-4.2422 1.793-2.7305 0-4.3008-1.8516-1.5586-1.8633-1.5586-5.0508 0-3.2812 1.6055-5.0976 1.6172-1.8164 4.2539-1.8164 2.6484 0 4.2422 1.8164 1.5938 1.8047 1.5938 5.0976zm-2.2734 0q0-2.543-0.92578-3.7734-0.92578-1.2422-2.6367-1.2422-1.7226 0-2.6602 1.2422-0.92578 1.2305-0.92578 3.7734 0 2.4609 0.92578 3.7383 0.9375 1.2656 2.6602 1.2656 1.6992 0 2.625-1.2422 0.9375-1.2539 0.9375-3.7617z"/>
   <path d="m197.62 686.32q0 2.1797-0.82031 3.7031t-2.4492 2.2969q-1.4883 0.64453-2.8242 0.89062-1.3359 0.25782-2.8125 0.25782v-2.2031q1.3242 0 2.4492-0.19922 1.1367-0.1875 2.1445-0.57422 1.125-0.51562 1.7109-1.418 0.58594-0.90235 0.58594-2.3789-0.16407 0.10547-0.75 0.29297-0.57422 0.1875-1.0781 0.1875-2.0156 0-3.1406-1.0664-1.125-1.0781-1.125-2.6484 0-1.7812 1.1484-3.082 1.1602-1.3125 2.5664-1.3125 1.9453 0 3.1641 2.0274 1.2305 2.0273 1.2305 5.2266zm-2.168-1.8047q0-0.32812-0.14062-0.86719-0.14063-0.55078-0.4336-1.1133-0.25781-0.49218-0.65625-0.86718-0.39843-0.38672-0.85547-0.38672-0.80859 0-1.3242 0.66797-0.51563 0.65625-0.51563 1.4414 0 0.69141 0.63281 1.1367 0.64453 0.44531 1.7109 0.44531 0.50391 0 0.94922-0.15234 0.44531-0.16406 0.63281-0.30469z"/>
   <path d="m75.955 718.76q-1.8047 0-2.8125-1.0195-1.0078-1.0312-1.0078-3.2461v-7.2539h-1.4883v-1.8281h1.4883v-3.7617h2.2031v3.7617h4.0547v1.8281h-4.0547v6.2226q0 0.9961 0.03516 1.5352t0.26953 1.0078q0.19922 0.41016 0.64453 0.6211 0.44531 0.19922 1.207 0.19922 0.53906 0 1.043-0.15235 0.50391-0.16406 0.72656-0.26953h0.12891v1.9805q-0.62109 0.17578-1.2656 0.26953-0.63281 0.10547-1.1719 0.10547z"/>
   <path d="m87.322 715.28v-3.6328q-0.78516 0.0703-1.9922 0.19922-1.1953 0.11718-1.9336 0.33984-0.87891 0.26953-1.4531 0.83203-0.57422 0.55078-0.57422 1.5469 0 1.125 0.63281 1.6992 0.63281 0.57421 1.8516 0.57421 1.043 0 1.8867-0.44531 0.84375-0.45703 1.582-1.1133zm0 1.8281q-0.26953 0.19921-0.72656 0.5625-0.44531 0.35156-0.86719 0.5625-0.58594 0.30468-1.1367 0.46875-0.53906 0.16406-1.5234 0.16406-0.80859 0-1.5352-0.30469-0.72656-0.30469-1.2773-0.85547-0.52734-0.53906-0.84375-1.3242-0.31641-0.79687-0.31641-1.6758 0-1.3594 0.57422-2.3086 0.57422-0.96094 1.8164-1.5234 1.1016-0.50391 2.6016-0.69141 1.5-0.19921 3.2344-0.29296v-0.42188q0-0.77344-0.23438-1.2422-0.23438-0.48047-0.65625-0.73828-0.42188-0.26953-1.0312-0.35156-0.60938-0.0937-1.2539-0.0937-0.76172 0-1.793 0.23437-1.0312 0.22266-2.0625 0.65625h-0.12891v-2.2383q0.60938-0.17578 1.7461-0.38672 1.1367-0.21093 2.25-0.21093 1.3477 0 2.2734 0.21093 0.92578 0.21094 1.6641 0.76172 0.71484 0.53907 1.0664 1.3945 0.35156 0.85547 0.35156 2.0859v8.9531h-2.1914z"/>
   <path d="m103.47 718.5h-2.8945l-4.8867-6.3164-0.86719 0.84375v5.4727h-2.2031v-18.234h2.2031v10.676l5.1797-5.5312h2.7422l-5.3789 5.4727z"/>
   <path d="m110.07 718.81q-3.1289 0-4.8633-1.7578-1.7227-1.7695-1.7227-5.0156 0-3.1992 1.6758-5.0859 1.6758-1.8984 4.3828-1.8984 1.2188 0 2.1562 0.35156 0.9375 0.35157 1.6406 1.1016 0.70313 0.75 1.0781 1.8398 0.375 1.0781 0.375 2.6484v1.1953h-9.0703q0 2.2852 1.1484 3.4922t3.1758 1.207q0.72656 0 1.418-0.16406 0.70313-0.16407 1.2656-0.42188 0.59765-0.26953 1.0078-0.51562 0.41015-0.25782 0.67969-0.48047h0.1289v2.4023q-0.38672 0.15235-0.96094 0.38672-0.57421 0.22266-1.0312 0.35156-0.64453 0.17578-1.1719 0.26953-0.51563 0.0937-1.3125 0.0937zm2.5781-8.3086q-0.0234-0.89062-0.21093-1.5352-0.1875-0.64453-0.53907-1.0898-0.38671-0.49219-0.99609-0.75-0.59766-0.25781-1.4883-0.25781-0.87891 0-1.5 0.26953-0.60938 0.25781-1.1133 0.76172-0.49219 0.51562-0.75 1.1484-0.25781 0.62109-0.32813 1.4531z"/>
   <path d="m120.58 718.82q-1.3125 0-2.4609-0.35156-1.1367-0.35156-1.8867-0.75v-2.4727h0.11719q0.28125 0.22266 0.65625 0.49219 0.38672 0.26953 1.0195 0.5625 0.5625 0.25781 1.2305 0.45703 0.67969 0.19922 1.4062 0.19922 0.52734 0 1.125-0.11719 0.59766-0.1289 0.89062-0.3164 0.41016-0.26953 0.58594-0.57422 0.1875-0.30469 0.1875-0.91406 0-0.78516-0.43359-1.1836-0.42188-0.39843-1.5117-0.66797-0.42188-0.10546-1.1016-0.24609-0.67969-0.14062-1.2539-0.30469-1.5-0.43359-2.1797-1.3359-0.67968-0.91407-0.67968-2.2031 0-1.7695 1.3359-2.8828t3.5508-1.1133q1.0898 0 2.1914 0.26953t1.8516 0.67969v2.3555h-0.11718q-0.84375-0.66796-1.8867-1.0547-1.0312-0.38672-2.0859-0.38672-1.0898 0-1.8398 0.45703t-0.75 1.3828q0 0.82031 0.44531 1.2305 0.44531 0.39844 1.4297 0.65625 0.49218 0.12891 1.0898 0.25781 0.60937 0.11719 1.2773 0.28125 1.4531 0.36328 2.1797 1.207 0.73828 0.84375 0.73828 2.2969 0 0.84375-0.33984 1.6055-0.32813 0.75-0.97266 1.2891-0.70312 0.58594-1.5938 0.89063-0.8789 0.30468-2.2148 0.30468z"/>
   <path d="m141.71 718.85q-1.6289 0-2.9883-0.41016-1.3476-0.41015-2.3438-1.2656-0.98437-0.85547-1.5352-2.1445-0.55078-1.3008-0.55078-3.0586 0-1.8867 0.59765-3.2109 0.59766-1.3242 1.6172-2.1797 0.98437-0.82031 2.3086-1.207 1.3359-0.39844 2.7774-0.39844 1.0898 0 2.1797 0.25781 1.0898 0.2461 2.1914 0.79688v3.5156h-0.52734q-0.2461-0.23437-0.60938-0.51562-0.35156-0.28125-0.77344-0.51563-0.44531-0.24609-1.0078-0.41015-0.5625-0.17579-1.2539-0.17579-1.5703 0-2.4375 1.1016-0.85547 1.0898-0.85547 2.9414 0 1.9805 0.91406 2.9531 0.92578 0.97265 2.4492 0.97265 0.77344 0 1.3594-0.17578 0.58594-0.17578 1.0078-0.42187 0.41015-0.2461 0.70312-0.50391 0.29297-0.26953 0.50391-0.48047h0.52734v3.5156q-0.35156 0.15234-0.82031 0.35156-0.45703 0.19922-0.9375 0.32813-0.59766 0.16406-1.125 0.24609-0.51563 0.0937-1.3711 0.0937z"/>
   <path d="m160.54 711.93q0 3.2461-1.7812 5.1211-1.7695 1.8633-5.0156 1.8633-3.2227 0-5.0156-1.8633-1.7812-1.875-1.7812-5.1211 0-3.2812 1.7812-5.1328 1.793-1.8633 5.0156-1.8633 3.2344 0 5.0156 1.875 1.7812 1.8633 1.7812 5.1211zm-4.207 0.0234q0-1.1719-0.19921-1.9453-0.1875-0.78515-0.52735-1.2539-0.36328-0.49219-0.82031-0.67969-0.45703-0.19922-1.043-0.19922-0.55078 0-0.99609 0.17578-0.44532 0.16406-0.82032 0.64453-0.35156 0.45703-0.5625 1.2539-0.21093 0.79687-0.21093 2.0039 0 1.207 0.19922 1.957 0.19921 0.73828 0.51562 1.1836 0.32813 0.45703 0.82031 0.66797 0.49219 0.21094 1.0898 0.21094 0.49218 0 0.99609-0.21094 0.51563-0.21094 0.82031-0.63281 0.36328-0.50391 0.55078-1.207 0.1875-0.71485 0.1875-1.9688z"/>
   <path d="m178.45 718.5v-6.5742q0-0.97266-0.0352-1.6406t-0.21094-1.0898q-0.17578-0.42188-0.55078-0.60938-0.36328-0.19921-1.0312-0.19921-0.46875 0-0.92578 0.21093-0.45703 0.19922-0.99609 0.57422v9.3281h-4.125v-6.5742q0-0.96094-0.0469-1.6289-0.0352-0.67969-0.21094-1.1016-0.17578-0.42188-0.55078-0.60938-0.36328-0.19921-1.0195-0.19921-0.50391 0-0.98437 0.23437-0.48047 0.23438-0.9375 0.55078v9.3281h-4.1016v-13.16h4.1016v1.4531q1.0078-0.85547 1.8984-1.3359 0.89063-0.48047 2.0039-0.48047 1.207 0 2.1211 0.57422 0.91407 0.57422 1.3945 1.7109 1.1836-1.1016 2.2266-1.6875 1.0547-0.59766 2.1328-0.59766 0.91406 0 1.6406 0.29297 0.72657 0.29297 1.2305 0.8789 0.55078 0.63282 0.82032 1.5117 0.28125 0.86719 0.28125 2.2734v8.5664z"/>
   <path d="m198.5 711.74q0 3.1523-1.6055 5.0859-1.5938 1.9336-3.9375 1.9336-0.98438 0-1.7109-0.22266-0.72656-0.22265-1.5469-0.6914v5.4844h-4.1016v-17.988h4.1016v1.3711q0.90234-0.77343 1.8398-1.2539t2.168-0.48047q2.2852 0 3.5391 1.8164t1.2539 4.9453zm-4.1953 0.082q0-1.9219-0.59765-2.7891-0.58594-0.86719-1.8398-0.86719-0.55078 0-1.1016 0.17578-0.53906 0.17578-1.0664 0.52734v6.6211q0.32812 0.14062 0.71484 0.19922 0.39844 0.0586 0.9375 0.0586 1.5 0 2.2266-0.97266 0.72656-0.98437 0.72656-2.9531z"/>
   <path d="m204.79 718.5h-4.1016v-18.234h4.1016z"/>
   <path d="m214.69 718.85q-3.7266 0-5.7188-1.7812-1.9805-1.7812-1.9805-5.0742 0-3.2227 1.8516-5.1445 1.8516-1.9219 5.1797-1.9219 3.0234 0 4.5469 1.6289 1.5234 1.6289 1.5234 4.6641v1.4766h-8.9883q0.0586 0.91406 0.38672 1.5352 0.32813 0.60938 0.86719 0.97266 0.52734 0.36328 1.2305 0.52734 0.70312 0.15235 1.5352 0.15235 0.71485 0 1.4062-0.15235 0.69141-0.16406 1.2656-0.42187 0.5039-0.22266 0.92578-0.48047 0.43359-0.25781 0.70312-0.45703h0.4336v3.3867q-0.50391 0.19921-0.92578 0.375-0.41016 0.16406-1.1367 0.33984-0.66797 0.17578-1.3828 0.26953-0.70313 0.10547-1.7227 0.10547zm1.3594-8.625q-0.0351-1.3008-0.60937-1.9805-0.5625-0.67969-1.7344-0.67969-1.1953 0-1.875 0.71485-0.66796 0.71484-0.73828 1.9453z"/>
   <path d="m237.93 718.5v-6.5742q0-0.97266-0.0352-1.6406-0.0351-0.66797-0.21093-1.0898-0.17578-0.42188-0.55078-0.60938-0.36329-0.19921-1.0312-0.19921-0.46875 0-0.92579 0.21093-0.45703 0.19922-0.99609 0.57422v9.3281h-4.125v-6.5742q0-0.96094-0.0469-1.6289-0.0352-0.67969-0.21094-1.1016-0.17578-0.42188-0.55078-0.60938-0.36328-0.19921-1.0195-0.19921-0.50391 0-0.98438 0.23437-0.48047 0.23438-0.9375 0.55078v9.3281h-4.1016v-13.16h4.1016v1.4531q1.0078-0.85547 1.8984-1.3359 0.89062-0.48047 2.0039-0.48047 1.207 0 2.1211 0.57422t1.3945 1.7109q1.1836-1.1016 2.2266-1.6875 1.0547-0.59766 2.1328-0.59766 0.91407 0 1.6406 0.29297t1.2305 0.8789q0.55078 0.63282 0.82031 1.5117 0.28125 0.86719 0.28125 2.2734v8.5664z"/>
   <path d="m251.82 718.85q-3.7266 0-5.7188-1.7812-1.9805-1.7812-1.9805-5.0742 0-3.2227 1.8516-5.1445 1.8516-1.9219 5.1797-1.9219 3.0234 0 4.5469 1.6289 1.5234 1.6289 1.5234 4.6641v1.4766h-8.9883q0.0586 0.91406 0.38672 1.5352 0.32813 0.60938 0.86719 0.97266 0.52734 0.36328 1.2305 0.52734 0.70312 0.15235 1.5352 0.15235 0.71485 0 1.4062-0.15235 0.69141-0.16406 1.2656-0.42187 0.5039-0.22266 0.92578-0.48047 0.43359-0.25781 0.70312-0.45703h0.4336v3.3867q-0.50391 0.19921-0.92578 0.375-0.41016 0.16406-1.1367 0.33984-0.66797 0.17578-1.3828 0.26953-0.70313 0.10547-1.7227 0.10547zm1.3594-8.625q-0.0351-1.3008-0.60937-1.9805-0.5625-0.67969-1.7344-0.67969-1.1953 0-1.875 0.71485-0.66796 0.71484-0.73828 1.9453z"/>
   <path d="m271.66 718.5h-4.125v-6.5274q0-0.79687-0.0703-1.582-0.0586-0.79687-0.23437-1.1719-0.21094-0.44532-0.60938-0.63282-0.39844-0.19921-1.0664-0.19921-0.5039 0-1.0195 0.1875-0.51562 0.1875-1.1016 0.59765v9.3281h-4.1016v-13.16h4.1016v1.4531q1.0078-0.85547 1.957-1.3359 0.96094-0.48047 2.1211-0.48047 2.0156 0 3.082 1.2773 1.0664 1.2656 1.0664 3.6797z"/>
   <path d="m279.74 718.76q-2.5078 0-3.6562-1.0312-1.1367-1.0312-1.1367-3.375v-6.1523h-1.5703v-2.8594h1.5703v-3.7617h4.1016v3.7617h3.9492v2.8594h-3.9492v4.6641q0 0.6914 0.0117 1.207 0.0117 0.51562 0.1875 0.92578 0.16407 0.41016 0.57422 0.65625 0.42188 0.23438 1.2188 0.23438 0.32813 0 0.85547-0.14063 0.53906-0.14062 0.75-0.25781h0.35156v2.8945q-0.66797 0.17578-1.418 0.26953-0.75 0.10547-1.8398 0.10547z"/>
  </g>
  <g transform="matrix(.26458 0 0 .26458 87.883 14.42)" style="shape-inside:url(#rect22628-6-5-7-8-3);white-space:pre" aria-label="- welded together w/ imperfective or past participle - separate w/ perfecticve ">
   <path d="m48.576 675.62h-4.875v-1.4141h4.875z"/>
   <path d="m67.834 671.28-2.2734 8.7266h-1.3594l-2.2422-6.7266-2.2266 6.7266h-1.3516l-2.2969-8.7266h1.5312l1.6016 6.7578 2.1797-6.7578h1.2109l2.2344 6.7578 1.5156-6.7578z"/>
   <path d="m77.256 675.79h-6.4297q0 0.80468 0.24219 1.4062 0.24219 0.59375 0.66406 0.97656 0.40625 0.375 0.96094 0.5625 0.5625 0.1875 1.2344 0.1875 0.89062 0 1.7891-0.35156 0.90625-0.35938 1.2891-0.70313h0.07813v1.6016q-0.74219 0.3125-1.5156 0.52344-0.77344 0.21094-1.625 0.21094-2.1719 0-3.3906-1.1719-1.2188-1.1797-1.2188-3.3438 0-2.1406 1.1641-3.3984 1.1719-1.2578 3.0781-1.2578 1.7656 0 2.7188 1.0312 0.96094 1.0312 0.96094 2.9297zm-1.4297-1.125q-0.0078-1.1562-0.58594-1.7891-0.57031-0.63281-1.7422-0.63281-1.1797 0-1.8828 0.69531-0.69531 0.69532-0.78906 1.7266z"/>
   <path d="m80.967 680h-1.4688v-12.156h1.4688z"/>
   <path d="m90.967 680h-1.4688v-0.91406q-0.63281 0.54688-1.3203 0.85156-0.6875 0.30469-1.4922 0.30469-1.5625 0-2.4844-1.2031-0.91406-1.2031-0.91406-3.3359 0-1.1094 0.3125-1.9766 0.32031-0.86719 0.85938-1.4766 0.53125-0.59375 1.2344-0.90625 0.71094-0.3125 1.4688-0.3125 0.6875 0 1.2188 0.14844 0.53125 0.14063 1.1172 0.44531v-3.7812h1.4688zm-1.4688-2.1484v-5.0078q-0.59375-0.26562-1.0625-0.36718-0.46875-0.10157-1.0234-0.10157-1.2344 0-1.9219 0.85938-0.6875 0.85937-0.6875 2.4375 0 1.5547 0.53125 2.3672 0.53125 0.80468 1.7031 0.80468 0.625 0 1.2656-0.27343 0.64062-0.28125 1.1953-0.71875z"/>
   <path d="m101.16 675.79h-6.4297q0 0.80468 0.24219 1.4062 0.24219 0.59375 0.66406 0.97656 0.40625 0.375 0.96094 0.5625 0.5625 0.1875 1.2344 0.1875 0.89062 0 1.7891-0.35156 0.90625-0.35938 1.2891-0.70313h0.0781v1.6016q-0.74218 0.3125-1.5156 0.52344-0.77344 0.21094-1.625 0.21094-2.1719 0-3.3906-1.1719-1.2188-1.1797-1.2188-3.3438 0-2.1406 1.1641-3.3984 1.1719-1.2578 3.0781-1.2578 1.7656 0 2.7187 1.0312 0.96094 1.0312 0.96094 2.9297zm-1.4297-1.125q-0.0078-1.1562-0.58594-1.7891-0.57031-0.63281-1.7422-0.63281-1.1797 0-1.8828 0.69531-0.69531 0.69532-0.78906 1.7266z"/>
   <path d="m110.47 680h-1.4688v-0.91406q-0.63282 0.54688-1.3203 0.85156-0.6875 0.30469-1.4922 0.30469-1.5625 0-2.4844-1.2031-0.91406-1.2031-0.91406-3.3359 0-1.1094 0.3125-1.9766 0.32031-0.86719 0.85937-1.4766 0.53125-0.59375 1.2344-0.90625 0.71094-0.3125 1.4688-0.3125 0.6875 0 1.2188 0.14844 0.53125 0.14063 1.1172 0.44531v-3.7812h1.4688zm-1.4688-2.1484v-5.0078q-0.59375-0.26562-1.0625-0.36718-0.46875-0.10157-1.0234-0.10157-1.2344 0-1.9219 0.85938-0.6875 0.85937-0.6875 2.4375 0 1.5547 0.53125 2.3672 0.53125 0.80468 1.7031 0.80468 0.625 0 1.2656-0.27343 0.64063-0.28125 1.1953-0.71875z"/>
   <path d="m123.51 679.92q-0.41406 0.10937-0.90625 0.17969-0.48437 0.0703-0.86719 0.0703-1.3359 0-2.0312-0.71875-0.69531-0.71875-0.69531-2.3047v-4.6406h-0.99219v-1.2344h0.99219v-2.5078h1.4688v2.5078h3.0312v1.2344h-3.0312v3.9766q0 0.6875 0.0312 1.0781 0.0312 0.38282 0.21875 0.71875 0.17188 0.3125 0.46875 0.46094 0.30469 0.14063 0.92188 0.14063 0.35937 0 0.75-0.10157 0.39062-0.10937 0.5625-0.17968h0.0781z"/>
   <path d="m132.73 675.64q0 2.1328-1.0938 3.3672t-2.9297 1.2344q-1.8516 0-2.9453-1.2344-1.0859-1.2344-1.0859-3.3672t1.0859-3.3672q1.0938-1.2422 2.9453-1.2422 1.8359 0 2.9297 1.2422 1.0938 1.2344 1.0938 3.3672zm-1.5156 0q0-1.6953-0.66407-2.5156-0.66406-0.82812-1.8438-0.82812-1.1953 0-1.8594 0.82812-0.65625 0.82032-0.65625 2.5156 0 1.6406 0.66406 2.4922 0.66406 0.84375 1.8516 0.84375 1.1719 0 1.8359-0.83594 0.67188-0.84375 0.67188-2.5z"/>
   <path d="m142.09 679.01q0 2.2188-1.0078 3.2578-1.0078 1.0391-3.1016 1.0391-0.69531 0-1.3594-0.10156-0.65625-0.0937-1.2969-0.27344v-1.5h0.0781q0.35937 0.14063 1.1406 0.34375 0.78125 0.21094 1.5625 0.21094 0.75 0 1.2422-0.17969t0.76562-0.5q0.27344-0.30469 0.39063-0.73437 0.11719-0.42969 0.11719-0.96094v-0.79688q-0.66407 0.53125-1.2734 0.79688-0.60156 0.25781-1.5391 0.25781-1.5625 0-2.4844-1.125-0.91406-1.1328-0.91406-3.1875 0-1.125 0.3125-1.9375 0.32031-0.82031 0.86719-1.4141 0.50781-0.55469 1.2344-0.85938 0.72656-0.3125 1.4453-0.3125 0.75782 0 1.2656 0.15625 0.51562 0.14844 1.0859 0.46094l0.0937-0.375h1.375zm-1.4688-1.4062v-4.7578q-0.58594-0.26562-1.0938-0.375-0.5-0.11718-1-0.11718-1.2109 0-1.9062 0.8125-0.69532 0.8125-0.69532 2.3594 0 1.4688 0.51563 2.2266 0.51562 0.75782 1.7109 0.75782 0.64062 0 1.2812-0.24219 0.64843-0.25 1.1875-0.66406z"/>
   <path d="m152.29 675.79h-6.4297q0 0.80468 0.24219 1.4062 0.24219 0.59375 0.66406 0.97656 0.40625 0.375 0.96094 0.5625 0.5625 0.1875 1.2344 0.1875 0.89063 0 1.7891-0.35156 0.90625-0.35938 1.2891-0.70313h0.0781v1.6016q-0.74218 0.3125-1.5156 0.52344t-1.625 0.21094q-2.1719 0-3.3906-1.1719-1.2188-1.1797-1.2188-3.3438 0-2.1406 1.1641-3.3984 1.1719-1.2578 3.0781-1.2578 1.7656 0 2.7188 1.0312 0.96094 1.0312 0.96094 2.9297zm-1.4297-1.125q-8e-3 -1.1562-0.58594-1.7891-0.57031-0.63281-1.7422-0.63281-1.1797 0-1.8828 0.69531-0.69531 0.69532-0.78906 1.7266z"/>
   <path d="m159.04 679.92q-0.41406 0.10937-0.90625 0.17969-0.48437 0.0703-0.86719 0.0703-1.3359 0-2.0312-0.71875-0.69531-0.71875-0.69531-2.3047v-4.6406h-0.99219v-1.2344h0.99219v-2.5078h1.4688v2.5078h3.0312v1.2344h-3.0312v3.9766q0 0.6875 0.0312 1.0781 0.0312 0.38282 0.21875 0.71875 0.17188 0.3125 0.46875 0.46094 0.30469 0.14063 0.92188 0.14063 0.35937 0 0.75-0.10157 0.39062-0.10937 0.5625-0.17968h0.0781z"/>
   <path d="m168.12 680h-1.4688v-4.9688q0-0.60156-0.0703-1.125-0.0703-0.53125-0.25781-0.82812-0.19531-0.32813-0.5625-0.48438-0.36719-0.16406-0.95312-0.16406-0.60157 0-1.2578 0.29688-0.65625 0.29687-1.2578 0.75781v6.5156h-1.4688v-12.156h1.4688v4.3984q0.6875-0.57031 1.4219-0.89062 0.73437-0.32032 1.5078-0.32032 1.4141 0 2.1562 0.85157 0.74219 0.85156 0.74219 2.4531z"/>
   <path d="m178.26 675.79h-6.4297q0 0.80468 0.24219 1.4062 0.24219 0.59375 0.66406 0.97656 0.40625 0.375 0.96094 0.5625 0.5625 0.1875 1.2344 0.1875 0.89063 0 1.7891-0.35156 0.90625-0.35938 1.2891-0.70313h0.0781v1.6016q-0.74218 0.3125-1.5156 0.52344t-1.625 0.21094q-2.1719 0-3.3906-1.1719-1.2188-1.1797-1.2188-3.3438 0-2.1406 1.1641-3.3984 1.1719-1.2578 3.0781-1.2578 1.7656 0 2.7188 1.0312 0.96094 1.0312 0.96094 2.9297zm-1.4297-1.125q-8e-3 -1.1562-0.58594-1.7891-0.57031-0.63281-1.7422-0.63281-1.1797 0-1.8828 0.69531-0.69531 0.69532-0.78906 1.7266z"/>
   <path d="m185.93 672.88h-0.0781q-0.32813-0.0781-0.64063-0.10937-0.30468-0.0391-0.72656-0.0391-0.67969 0-1.3125 0.30468-0.63281 0.29688-1.2188 0.77344v6.1953h-1.4688v-8.7266h1.4688v1.2891q0.875-0.70312 1.5391-0.99218 0.67188-0.29688 1.3672-0.29688 0.38281 0 0.55469 0.0234 0.17187 0.0156 0.51562 0.0703z"/>
   <path d="m203.93 671.28-2.2734 8.7266h-1.3594l-2.2422-6.7266-2.2266 6.7266h-1.3516l-2.2969-8.7266h1.5312l1.6016 6.7578 2.1797-6.7578h1.2109l2.2344 6.7578 1.5156-6.7578z"/>
   <path d="m211.32 667.85-5.6016 14.531h-1.3516l5.5781-14.531z"/>
   <path d="m220.53 669.82h-1.6562v-1.5234h1.6562zm-0.0937 10.188h-1.4688v-8.7266h1.4688z"/>
   <path d="m236.09 680h-1.4688v-4.9688q0-0.5625-0.0547-1.0859-0.0469-0.52344-0.21094-0.83594-0.17969-0.33594-0.51562-0.50781-0.33594-0.17188-0.96875-0.17188-0.61719 0-1.2344 0.3125-0.61719 0.30469-1.2344 0.78125 0.0234 0.17969 0.0391 0.42188 0.0156 0.23437 0.0156 0.46875v5.5859h-1.4688v-4.9688q0-0.57812-0.0547-1.0938-0.0469-0.52343-0.21094-0.83593-0.17969-0.33594-0.51563-0.5-0.33593-0.17188-0.96875-0.17188-0.60156 0-1.2109 0.29688-0.60157 0.29687-1.2031 0.75781v6.5156h-1.4688v-8.7266h1.4688v0.96875q0.6875-0.57031 1.3672-0.89062 0.6875-0.32032 1.4609-0.32032 0.89062 0 1.5078 0.375 0.625 0.375 0.92969 1.0391 0.89062-0.75 1.625-1.0781 0.73437-0.33594 1.5703-0.33594 1.4375 0 2.1172 0.875 0.6875 0.86719 0.6875 2.4297z"/>
   <path d="m246.6 675.53q0 1.0625-0.30469 1.9453-0.30469 0.875-0.85937 1.4844-0.51563 0.57813-1.2188 0.89844-0.69532 0.3125-1.4766 0.3125-0.67968 0-1.2344-0.14844-0.54688-0.14844-1.1172-0.46094v3.6562h-1.4688v-11.945h1.4688v0.91406q0.58594-0.49218 1.3125-0.82031 0.73438-0.33594 1.5625-0.33594 1.5781 0 2.4531 1.1953 0.88281 1.1875 0.88281 3.3047zm-1.5156 0.0391q0-1.5781-0.53906-2.3594t-1.6562-0.78125q-0.63281 0-1.2734 0.27344-0.64062 0.27344-1.2266 0.71875v4.9453q0.625 0.28125 1.0703 0.38281 0.45313 0.10157 1.0234 0.10157 1.2266 0 1.9141-0.82813 0.6875-0.82812 0.6875-2.4531z"/>
   <path d="m256.19 675.79h-6.4297q0 0.80468 0.24219 1.4062 0.24219 0.59375 0.66406 0.97656 0.40625 0.375 0.96094 0.5625 0.5625 0.1875 1.2344 0.1875 0.89063 0 1.7891-0.35156 0.90625-0.35938 1.2891-0.70313h0.0781v1.6016q-0.74218 0.3125-1.5156 0.52344t-1.625 0.21094q-2.1719 0-3.3906-1.1719-1.2188-1.1797-1.2188-3.3438 0-2.1406 1.1641-3.3984 1.1719-1.2578 3.0781-1.2578 1.7656 0 2.7188 1.0312 0.96094 1.0312 0.96094 2.9297zm-1.4297-1.125q-8e-3 -1.1562-0.58594-1.7891-0.57031-0.63281-1.7422-0.63281-1.1797 0-1.8828 0.69531-0.69531 0.69532-0.78906 1.7266z"/>
   <path d="m263.87 672.88h-0.0781q-0.32813-0.0781-0.64063-0.10937-0.30468-0.0391-0.72656-0.0391-0.67969 0-1.3125 0.30468-0.63281 0.29688-1.2188 0.77344v6.1953h-1.4688v-8.7266h1.4688v1.2891q0.875-0.70312 1.5391-0.99218 0.67188-0.29688 1.3672-0.29688 0.38281 0 0.55469 0.0234 0.17187 0.0156 0.51562 0.0703z"/>
   <path d="m269.96 669.27h-0.0781q-0.24219-0.0703-0.63281-0.14063-0.39063-0.0781-0.6875-0.0781-0.94532 0-1.375 0.42187-0.42188 0.41407-0.42188 1.5078v0.29687h2.6484v1.2344h-2.6016v7.4922h-1.4688v-7.4922h-0.99219v-1.2344h0.99219v-0.28906q0-1.5547 0.77343-2.3828 0.77344-0.83594 2.2344-0.83594 0.49219 0 0.88281 0.0469 0.39844 0.0469 0.72656 0.10938z"/>
   <path d="m278.19 675.79h-6.4297q0 0.80468 0.24219 1.4062 0.24219 0.59375 0.66406 0.97656 0.40625 0.375 0.96094 0.5625 0.5625 0.1875 1.2344 0.1875 0.89063 0 1.7891-0.35156 0.90625-0.35938 1.2891-0.70313h0.0781v1.6016q-0.74218 0.3125-1.5156 0.52344t-1.625 0.21094q-2.1719 0-3.3906-1.1719-1.2188-1.1797-1.2188-3.3438 0-2.1406 1.1641-3.3984 1.1719-1.2578 3.0781-1.2578 1.7656 0 2.7188 1.0312 0.96094 1.0312 0.96094 2.9297zm-1.4297-1.125q-8e-3 -1.1562-0.58594-1.7891-0.57031-0.63281-1.7422-0.63281-1.1797 0-1.8828 0.69531-0.69531 0.69532-0.78906 1.7266z"/>
   <path d="m286.87 679.46q-0.73438 0.35156-1.3984 0.54687-0.65625 0.19532-1.3984 0.19532-0.94531 0-1.7344-0.27344-0.78907-0.28125-1.3516-0.84375-0.57031-0.5625-0.88281-1.4219-0.3125-0.85937-0.3125-2.0078 0-2.1406 1.1719-3.3594 1.1797-1.2188 3.1094-1.2188 0.75 0 1.4688 0.21093 0.72656 0.21094 1.3281 0.51563v1.6328h-0.0781q-0.67187-0.52344-1.3906-0.80469-0.71094-0.28125-1.3906-0.28125-1.25 0-1.9766 0.84375-0.71875 0.83594-0.71875 2.4609 0 1.5781 0.70312 2.4297 0.71094 0.84375 1.9922 0.84375 0.44531 0 0.90625-0.11719t0.82813-0.30469q0.32031-0.16406 0.60156-0.34375 0.28125-0.1875 0.44531-0.32031h0.0781z"/>
   <path d="m293.29 679.92q-0.41406 0.10937-0.90625 0.17969-0.48437 0.0703-0.86719 0.0703-1.3359 0-2.0312-0.71875-0.69531-0.71875-0.69531-2.3047v-4.6406h-0.99219v-1.2344h0.99219v-2.5078h1.4688v2.5078h3.0312v1.2344h-3.0312v3.9766q0 0.6875 0.0312 1.0781 0.0312 0.38282 0.21875 0.71875 0.17188 0.3125 0.46875 0.46094 0.30469 0.14063 0.92188 0.14063 0.35937 0 0.75-0.10157 0.39062-0.10937 0.5625-0.17968h0.0781z"/>
   <path d="m296.65 669.82h-1.6562v-1.5234h1.6562zm-0.0937 10.188h-1.4688v-8.7266h1.4688z"/>
   <path d="m307.03 671.28-3.5312 8.7266h-1.4766l-3.5078-8.7266h1.5938l2.7031 6.9453 2.6797-6.9453z"/>
   <path d="m316.26 675.79h-6.4297q0 0.80468 0.24219 1.4062 0.24219 0.59375 0.66406 0.97656 0.40625 0.375 0.96094 0.5625 0.5625 0.1875 1.2344 0.1875 0.89063 0 1.7891-0.35156 0.90625-0.35938 1.2891-0.70313h0.0781v1.6016q-0.74218 0.3125-1.5156 0.52344t-1.625 0.21094q-2.1719 0-3.3906-1.1719-1.2188-1.1797-1.2188-3.3438 0-2.1406 1.1641-3.3984 1.1719-1.2578 3.0781-1.2578 1.7656 0 2.7188 1.0312 0.96094 1.0312 0.96094 2.9297zm-1.4297-1.125q-8e-3 -1.1562-0.58594-1.7891-0.57031-0.63281-1.7422-0.63281-1.1797 0-1.8828 0.69531-0.69531 0.69532-0.78906 1.7266z"/>
   <path d="m51.389 693.24q0 2.1328-1.0938 3.3672t-2.9297 1.2344q-1.8516 0-2.9453-1.2344-1.0859-1.2344-1.0859-3.3672t1.0859-3.3672q1.0938-1.2422 2.9453-1.2422 1.8359 0 2.9297 1.2422 1.0938 1.2344 1.0938 3.3672zm-1.5156 0q0-1.6953-0.66406-2.5156-0.66406-0.82813-1.8438-0.82813-1.1953 0-1.8594 0.82813-0.65625 0.82031-0.65625 2.5156 0 1.6406 0.66406 2.4922 0.66406 0.84375 1.8516 0.84375 1.1719 0 1.8359-0.83594 0.67188-0.84375 0.67188-2.5z"/>
   <path d="m59.115 690.48h-0.07813q-0.32812-0.0781-0.64062-0.10938-0.30469-0.0391-0.72656-0.0391-0.67969 0-1.3125 0.30469-0.63281 0.29687-1.2188 0.77344v6.1953h-1.4688v-8.7266h1.4688v1.2891q0.875-0.70313 1.5391-0.99219 0.67188-0.29687 1.3672-0.29687 0.38281 0 0.55469 0.0234 0.17188 0.0156 0.51562 0.0703z"/>
   <path d="m73.818 693.13q0 1.0625-0.30469 1.9453-0.30469 0.875-0.85938 1.4844-0.51562 0.57812-1.2188 0.89843-0.69531 0.3125-1.4766 0.3125-0.67969 0-1.2344-0.14843-0.54688-0.14844-1.1172-0.46094v3.6562h-1.4688v-11.945h1.4688v0.91406q0.58594-0.49219 1.3125-0.82031 0.73438-0.33594 1.5625-0.33594 1.5781 0 2.4531 1.1953 0.88281 1.1875 0.88281 3.3047zm-1.5156 0.0391q0-1.5781-0.53906-2.3594-0.53906-0.78125-1.6562-0.78125-0.63281 0-1.2734 0.27343-0.64062 0.27344-1.2266 0.71875v4.9453q0.625 0.28125 1.0703 0.38281 0.45312 0.10156 1.0234 0.10156 1.2266 0 1.9141-0.82812 0.6875-0.82813 0.6875-2.4531z"/>
   <path d="m82.889 697.6h-1.4609v-0.92969q-0.19531 0.13281-0.53125 0.375-0.32812 0.23438-0.64062 0.375-0.36719 0.17969-0.84375 0.29688-0.47656 0.125-1.1172 0.125-1.1797 0-2-0.78125-0.82031-0.78125-0.82031-1.9922 0-0.99219 0.42188-1.6016 0.42969-0.61719 1.2188-0.96875 0.79688-0.35157 1.9141-0.47657 1.1172-0.125 2.3984-0.1875v-0.22656q0-0.5-0.17969-0.82812-0.17188-0.32813-0.5-0.51563-0.3125-0.17969-0.75-0.24219t-0.91406-0.0625q-0.57812 0-1.2891 0.15625-0.71094 0.14844-1.4688 0.4375h-0.07813v-1.4922q0.42969-0.11719 1.2422-0.25782 0.8125-0.14062 1.6016-0.14062 0.92188 0 1.6016 0.15625 0.6875 0.14844 1.1875 0.51562 0.49219 0.35938 0.75 0.92969t0.25781 1.4141zm-1.4609-2.1484v-2.4297q-0.67188 0.0391-1.5859 0.11719-0.90625 0.0781-1.4375 0.22656-0.63281 0.17969-1.0234 0.5625-0.39062 0.375-0.39062 1.0391 0 0.75 0.45312 1.1328 0.45312 0.375 1.3828 0.375 0.77344 0 1.4141-0.29688 0.64062-0.30468 1.1875-0.72656z"/>
   <path d="m91.967 695.09q0 1.1953-0.99219 1.9609-0.98438 0.76563-2.6953 0.76563-0.96875 0-1.7812-0.22657-0.80469-0.23437-1.3516-0.50781v-1.6484h0.07813q0.69531 0.52344 1.5469 0.83594 0.85156 0.30469 1.6328 0.30469 0.96875 0 1.5156-0.3125t0.54688-0.98438q0-0.51562-0.29688-0.78125-0.29688-0.26562-1.1406-0.45312-0.3125-0.0703-0.82031-0.16406-0.5-0.0937-0.91406-0.20313-1.1484-0.30469-1.6328-0.89062-0.47656-0.59375-0.47656-1.4531 0-0.53906 0.21875-1.0156 0.22656-0.47657 0.67969-0.85157 0.4375-0.36718 1.1094-0.57812 0.67969-0.21875 1.5156-0.21875 0.78125 0 1.5781 0.19531 0.80469 0.1875 1.3359 0.46094v1.5703h-0.07813q-0.5625-0.41406-1.3672-0.69531-0.80469-0.28906-1.5781-0.28906-0.80469 0-1.3594 0.3125-0.55469 0.30468-0.55469 0.91406 0 0.53906 0.33594 0.8125 0.32812 0.27344 1.0625 0.44531 0.40625 0.0937 0.90625 0.1875 0.50781 0.0937 0.84375 0.17188 1.0234 0.23437 1.5781 0.80468 0.55469 0.57813 0.55469 1.5312z"/>
   <path d="m98.607 697.52q-0.41406 0.10938-0.90625 0.17969-0.48438 0.0703-0.86719 0.0703-1.3359 0-2.0312-0.71875-0.69531-0.71875-0.69531-2.3047v-4.6406h-0.99219v-1.2344h0.99219v-2.5078h1.4688v2.5078h3.0312v1.2344h-3.0312v3.9766q0 0.6875 0.03125 1.0781 0.03125 0.38281 0.21875 0.71875 0.17188 0.3125 0.46875 0.46094 0.30469 0.14062 0.92188 0.14062 0.35938 0 0.75-0.10156 0.39062-0.10938 0.5625-0.17969h0.07813z"/>
   <path d="m113.69 693.13q0 1.0625-0.30469 1.9453-0.30469 0.875-0.85937 1.4844-0.51563 0.57812-1.2188 0.89843-0.69532 0.3125-1.4766 0.3125-0.67968 0-1.2344-0.14843-0.54688-0.14844-1.1172-0.46094v3.6562h-1.4688v-11.945h1.4688v0.91406q0.58594-0.49219 1.3125-0.82031 0.73438-0.33594 1.5625-0.33594 1.5781 0 2.4531 1.1953 0.88281 1.1875 0.88281 3.3047zm-1.5156 0.0391q0-1.5781-0.53906-2.3594t-1.6562-0.78125q-0.63281 0-1.2734 0.27343-0.64062 0.27344-1.2266 0.71875v4.9453q0.625 0.28125 1.0703 0.38281 0.45313 0.10156 1.0234 0.10156 1.2266 0 1.9141-0.82812 0.6875-0.82813 0.6875-2.4531z"/>
   <path d="m122.76 697.6h-1.4609v-0.92969q-0.19531 0.13281-0.53125 0.375-0.32812 0.23438-0.64062 0.375-0.36719 0.17969-0.84375 0.29688-0.47656 0.125-1.1172 0.125-1.1797 0-2-0.78125t-0.82031-1.9922q0-0.99219 0.42187-1.6016 0.42969-0.61719 1.2188-0.96875 0.79688-0.35157 1.9141-0.47657 1.1172-0.125 2.3984-0.1875v-0.22656q0-0.5-0.17968-0.82812-0.17188-0.32813-0.5-0.51563-0.3125-0.17969-0.75-0.24219t-0.91407-0.0625q-0.57812 0-1.2891 0.15625-0.71094 0.14844-1.4688 0.4375h-0.0781v-1.4922q0.42968-0.11719 1.2422-0.25782 0.8125-0.14062 1.6016-0.14062 0.92187 0 1.6016 0.15625 0.6875 0.14844 1.1875 0.51562 0.49219 0.35938 0.75 0.92969t0.25781 1.4141zm-1.4609-2.1484v-2.4297q-0.67187 0.0391-1.5859 0.11719-0.90625 0.0781-1.4375 0.22656-0.63282 0.17969-1.0234 0.5625-0.39063 0.375-0.39063 1.0391 0 0.75 0.45313 1.1328 0.45312 0.375 1.3828 0.375 0.77344 0 1.4141-0.29688 0.64063-0.30468 1.1875-0.72656z"/>
   <path d="m131.05 690.48h-0.0781q-0.32813-0.0781-0.64063-0.10938-0.30468-0.0391-0.72656-0.0391-0.67969 0-1.3125 0.30469-0.63281 0.29687-1.2188 0.77344v6.1953h-1.4688v-8.7266h1.4688v1.2891q0.875-0.70313 1.5391-0.99219 0.67188-0.29687 1.3672-0.29687 0.38281 0 0.55469 0.0234 0.17187 0.0156 0.51562 0.0703z"/>
   <path d="m136.98 697.52q-0.41406 0.10938-0.90625 0.17969-0.48437 0.0703-0.86719 0.0703-1.3359 0-2.0312-0.71875-0.69531-0.71875-0.69531-2.3047v-4.6406h-0.99219v-1.2344h0.99219v-2.5078h1.4688v2.5078h3.0312v1.2344h-3.0312v3.9766q0 0.6875 0.0312 1.0781 0.0312 0.38281 0.21875 0.71875 0.17188 0.3125 0.46875 0.46094 0.30469 0.14062 0.92188 0.14062 0.35937 0 0.75-0.10156 0.39062-0.10938 0.5625-0.17969h0.0781z"/>
   <path d="m140.34 687.42h-1.6562v-1.5234h1.6562zm-0.0937 10.188h-1.4688v-8.7266h1.4688z"/>
   <path d="m149.62 697.06q-0.73438 0.35157-1.3984 0.54688-0.65625 0.19531-1.3984 0.19531-0.94531 0-1.7344-0.27344-0.78907-0.28125-1.3516-0.84375-0.57031-0.5625-0.88281-1.4219-0.3125-0.85938-0.3125-2.0078 0-2.1406 1.1719-3.3594 1.1797-1.2188 3.1094-1.2188 0.75 0 1.4688 0.21094 0.72656 0.21094 1.3281 0.51562v1.6328h-0.0781q-0.67187-0.52344-1.3906-0.80469-0.71094-0.28125-1.3906-0.28125-1.25 0-1.9766 0.84375-0.71875 0.83594-0.71875 2.4609 0 1.5781 0.70312 2.4297 0.71094 0.84375 1.9922 0.84375 0.44531 0 0.90625-0.11718 0.46094-0.11719 0.82813-0.30469 0.32031-0.16406 0.60156-0.34375 0.28125-0.1875 0.44531-0.32031h0.0781z"/>
   <path d="m153.09 687.42h-1.6562v-1.5234h1.6562zm-0.0937 10.188h-1.4688v-8.7266h1.4688z"/>
   <path d="m163.6 693.13q0 1.0625-0.30469 1.9453-0.30469 0.875-0.85937 1.4844-0.51563 0.57812-1.2188 0.89843-0.69532 0.3125-1.4766 0.3125-0.67968 0-1.2344-0.14843-0.54688-0.14844-1.1172-0.46094v3.6562h-1.4688v-11.945h1.4688v0.91406q0.58594-0.49219 1.3125-0.82031 0.73438-0.33594 1.5625-0.33594 1.5781 0 2.4531 1.1953 0.88281 1.1875 0.88281 3.3047zm-1.5156 0.0391q0-1.5781-0.53906-2.3594t-1.6562-0.78125q-0.63281 0-1.2734 0.27343-0.64062 0.27344-1.2266 0.71875v4.9453q0.625 0.28125 1.0703 0.38281 0.45313 0.10156 1.0234 0.10156 1.2266 0 1.9141-0.82812 0.6875-0.82813 0.6875-2.4531z"/>
   <path d="m167.37 697.6h-1.4688v-12.156h1.4688z"/>
   <path d="m177.6 693.39h-6.4297q0 0.80469 0.24219 1.4062 0.24219 0.59375 0.66406 0.97656 0.40625 0.375 0.96094 0.5625 0.5625 0.1875 1.2344 0.1875 0.89063 0 1.7891-0.35156 0.90625-0.35937 1.2891-0.70312h0.0781v1.6016q-0.74218 0.3125-1.5156 0.52344-0.77344 0.21093-1.625 0.21093-2.1719 0-3.3906-1.1719-1.2188-1.1797-1.2188-3.3438 0-2.1406 1.1641-3.3984 1.1719-1.2578 3.0781-1.2578 1.7656 0 2.7188 1.0312 0.96094 1.0312 0.96094 2.9297zm-1.4297-1.125q-8e-3 -1.1562-0.58594-1.7891-0.57031-0.63281-1.7422-0.63281-1.1797 0-1.8828 0.69531-0.69531 0.69531-0.78906 1.7266z"/>
   <path d="m48.576 717.52h-4.875v-1.4141h4.875z"/>
   <path d="m63.092 719.39q0 1.1953-0.99219 1.9609-0.98438 0.76563-2.6953 0.76563-0.96875 0-1.7812-0.22657-0.80469-0.23437-1.3516-0.50781v-1.6484h0.07813q0.69531 0.52344 1.5469 0.83594 0.85156 0.30469 1.6328 0.30469 0.96875 0 1.5156-0.3125t0.54688-0.98438q0-0.51562-0.29688-0.78125-0.29688-0.26562-1.1406-0.45312-0.3125-0.0703-0.82031-0.16406-0.5-0.0937-0.91406-0.20313-1.1484-0.30469-1.6328-0.89062-0.47656-0.59375-0.47656-1.4531 0-0.53906 0.21875-1.0156 0.22656-0.47657 0.67969-0.85157 0.4375-0.36718 1.1094-0.57812 0.67969-0.21875 1.5156-0.21875 0.78125 0 1.5781 0.19531 0.80469 0.1875 1.3359 0.46094v1.5703h-0.07813q-0.5625-0.41406-1.3672-0.69531-0.80469-0.28906-1.5781-0.28906-0.80469 0-1.3594 0.3125-0.55469 0.30468-0.55469 0.91406 0 0.53906 0.33594 0.8125 0.32812 0.27344 1.0625 0.44531 0.40625 0.0937 0.90625 0.1875 0.50781 0.0937 0.84375 0.17188 1.0234 0.23437 1.5781 0.80468 0.55469 0.57813 0.55469 1.5312z"/>
   <path d="m72.506 717.69h-6.4297q0 0.80469 0.24219 1.4062 0.24219 0.59375 0.66406 0.97656 0.40625 0.375 0.96094 0.5625 0.5625 0.1875 1.2344 0.1875 0.89062 0 1.7891-0.35156 0.90625-0.35937 1.2891-0.70312h0.07813v1.6016q-0.74219 0.3125-1.5156 0.52344-0.77344 0.21093-1.625 0.21093-2.1719 0-3.3906-1.1719-1.2188-1.1797-1.2188-3.3438 0-2.1406 1.1641-3.3984 1.1719-1.2578 3.0781-1.2578 1.7656 0 2.7188 1.0312 0.96094 1.0312 0.96094 2.9297zm-1.4297-1.125q-0.0078-1.1562-0.58594-1.7891-0.57031-0.63281-1.7422-0.63281-1.1797 0-1.8828 0.69531-0.69531 0.69531-0.78906 1.7266z"/>
   <path d="m82.412 717.43q0 1.0625-0.30469 1.9453-0.30469 0.875-0.85938 1.4844-0.51562 0.57812-1.2188 0.89843-0.69531 0.3125-1.4766 0.3125-0.67969 0-1.2344-0.14843-0.54688-0.14844-1.1172-0.46094v3.6562h-1.4688v-11.945h1.4688v0.91406q0.58594-0.49219 1.3125-0.82031 0.73438-0.33594 1.5625-0.33594 1.5781 0 2.4531 1.1953 0.88281 1.1875 0.88281 3.3047zm-1.5156 0.0391q0-1.5781-0.53906-2.3594-0.53906-0.78125-1.6562-0.78125-0.63281 0-1.2734 0.27343-0.64062 0.27344-1.2266 0.71875v4.9453q0.625 0.28125 1.0703 0.38281 0.45312 0.10156 1.0234 0.10156 1.2266 0 1.9141-0.82812 0.6875-0.82813 0.6875-2.4531z"/>
   <path d="m91.482 721.9h-1.4609v-0.92969q-0.19531 0.13281-0.53125 0.375-0.32812 0.23438-0.64062 0.375-0.36719 0.17969-0.84375 0.29688-0.47656 0.125-1.1172 0.125-1.1797 0-2-0.78125-0.82031-0.78125-0.82031-1.9922 0-0.99219 0.42188-1.6016 0.42969-0.61719 1.2188-0.96875 0.79688-0.35157 1.9141-0.47657 1.1172-0.125 2.3984-0.1875v-0.22656q0-0.5-0.17969-0.82812-0.17188-0.32813-0.5-0.51563-0.3125-0.17969-0.75-0.24219t-0.91406-0.0625q-0.57812 0-1.2891 0.15625-0.71094 0.14844-1.4688 0.4375h-0.07813v-1.4922q0.42969-0.11719 1.2422-0.25782 0.8125-0.14062 1.6016-0.14062 0.92188 0 1.6016 0.15625 0.6875 0.14844 1.1875 0.51562 0.49219 0.35938 0.75 0.92969t0.25781 1.4141zm-1.4609-2.1484v-2.4297q-0.67188 0.0391-1.5859 0.11719-0.90625 0.0781-1.4375 0.22656-0.63281 0.17969-1.0234 0.5625-0.39062 0.375-0.39062 1.0391 0 0.75 0.45312 1.1328 0.45312 0.375 1.3828 0.375 0.77344 0 1.4141-0.29688 0.64062-0.30468 1.1875-0.72656z"/>
   <path d="m99.771 714.78h-0.07813q-0.32812-0.0781-0.64062-0.10938-0.30469-0.0391-0.72656-0.0391-0.67969 0-1.3125 0.30469-0.63281 0.29687-1.2188 0.77344v6.1953h-1.4688v-8.7266h1.4688v1.2891q0.875-0.70313 1.5391-0.99219 0.67188-0.29687 1.3672-0.29687 0.38281 0 0.55469 0.0234 0.17188 0.0156 0.51562 0.0703z"/>
   <path d="m107.95 721.9h-1.4609v-0.92969q-0.19531 0.13281-0.53125 0.375-0.32812 0.23438-0.64062 0.375-0.36719 0.17969-0.84375 0.29688-0.47656 0.125-1.1172 0.125-1.1797 0-2-0.78125t-0.82031-1.9922q0-0.99219 0.42187-1.6016 0.42969-0.61719 1.2188-0.96875 0.79688-0.35157 1.9141-0.47657 1.1172-0.125 2.3984-0.1875v-0.22656q0-0.5-0.17968-0.82812-0.17188-0.32813-0.5-0.51563-0.3125-0.17969-0.75-0.24219t-0.91407-0.0625q-0.57812 0-1.2891 0.15625-0.71094 0.14844-1.4688 0.4375h-0.0781v-1.4922q0.42968-0.11719 1.2422-0.25782 0.8125-0.14062 1.6016-0.14062 0.92187 0 1.6016 0.15625 0.6875 0.14844 1.1875 0.51562 0.49219 0.35938 0.75 0.92969t0.25781 1.4141zm-1.4609-2.1484v-2.4297q-0.67187 0.0391-1.5859 0.11719-0.90625 0.0781-1.4375 0.22656-0.63282 0.17969-1.0234 0.5625-0.39063 0.375-0.39063 1.0391 0 0.75 0.45313 1.1328 0.45312 0.375 1.3828 0.375 0.77344 0 1.4141-0.29688 0.64063-0.30468 1.1875-0.72656z"/>
   <path d="m115.33 721.82q-0.41406 0.10938-0.90625 0.17969-0.48437 0.0703-0.86719 0.0703-1.3359 0-2.0312-0.71875-0.69531-0.71875-0.69531-2.3047v-4.6406h-0.99219v-1.2344h0.99219v-2.5078h1.4688v2.5078h3.0312v1.2344h-3.0312v3.9766q0 0.6875 0.0312 1.0781 0.0312 0.38281 0.21875 0.71875 0.17188 0.3125 0.46875 0.46094 0.30469 0.14062 0.92188 0.14062 0.35937 0 0.75-0.10156 0.39062-0.10938 0.5625-0.17969h0.0781z"/>
   <path d="m124.41 717.69h-6.4297q0 0.80469 0.24219 1.4062 0.24219 0.59375 0.66406 0.97656 0.40625 0.375 0.96094 0.5625 0.5625 0.1875 1.2344 0.1875 0.89063 0 1.7891-0.35156 0.90625-0.35937 1.2891-0.70312h0.0781v1.6016q-0.74218 0.3125-1.5156 0.52344-0.77344 0.21093-1.625 0.21093-2.1719 0-3.3906-1.1719-1.2188-1.1797-1.2188-3.3438 0-2.1406 1.1641-3.3984 1.1719-1.2578 3.0781-1.2578 1.7656 0 2.7188 1.0312 0.96094 1.0312 0.96094 2.9297zm-1.4297-1.125q-8e-3 -1.1562-0.58594-1.7891-0.57031-0.63281-1.7422-0.63281-1.1797 0-1.8828 0.69531-0.69531 0.69531-0.78906 1.7266z"/>
   <path d="m143.24 713.17-2.2734 8.7266h-1.3594l-2.2422-6.7266-2.2266 6.7266h-1.3516l-2.2969-8.7266h1.5312l1.6016 6.7578 2.1797-6.7578h1.2109l2.2344 6.7578 1.5156-6.7578z"/>
   <path d="m150.63 709.75-5.6016 14.531h-1.3516l5.5781-14.531z"/>
   <path d="m165.94 717.43q0 1.0625-0.30469 1.9453-0.30469 0.875-0.85937 1.4844-0.51563 0.57812-1.2188 0.89843-0.69532 0.3125-1.4766 0.3125-0.67968 0-1.2344-0.14843-0.54688-0.14844-1.1172-0.46094v3.6562h-1.4688v-11.945h1.4688v0.91406q0.58594-0.49219 1.3125-0.82031 0.73438-0.33594 1.5625-0.33594 1.5781 0 2.4531 1.1953 0.88281 1.1875 0.88281 3.3047zm-1.5156 0.0391q0-1.5781-0.53906-2.3594t-1.6562-0.78125q-0.63281 0-1.2734 0.27343-0.64062 0.27344-1.2266 0.71875v4.9453q0.625 0.28125 1.0703 0.38281 0.45313 0.10156 1.0234 0.10156 1.2266 0 1.9141-0.82812 0.6875-0.82813 0.6875-2.4531z"/>
   <path d="m175.54 717.69h-6.4297q0 0.80469 0.24219 1.4062 0.24219 0.59375 0.66406 0.97656 0.40625 0.375 0.96094 0.5625 0.5625 0.1875 1.2344 0.1875 0.89063 0 1.7891-0.35156 0.90625-0.35937 1.2891-0.70312h0.0781v1.6016q-0.74218 0.3125-1.5156 0.52344-0.77344 0.21093-1.625 0.21093-2.1719 0-3.3906-1.1719-1.2188-1.1797-1.2188-3.3438 0-2.1406 1.1641-3.3984 1.1719-1.2578 3.0781-1.2578 1.7656 0 2.7188 1.0312 0.96094 1.0312 0.96094 2.9297zm-1.4297-1.125q-8e-3 -1.1562-0.58594-1.7891-0.57031-0.63281-1.7422-0.63281-1.1797 0-1.8828 0.69531-0.69531 0.69531-0.78906 1.7266z"/>
   <path d="m183.21 714.78h-0.0781q-0.32813-0.0781-0.64063-0.10938-0.30468-0.0391-0.72656-0.0391-0.67969 0-1.3125 0.30469-0.63281 0.29687-1.2188 0.77344v6.1953h-1.4688v-8.7266h1.4688v1.2891q0.875-0.70313 1.5391-0.99219 0.67188-0.29687 1.3672-0.29687 0.38281 0 0.55469 0.0234 0.17187 0.0156 0.51562 0.0703z"/>
   <path d="m189.3 711.17h-0.0781q-0.24219-0.0703-0.63281-0.14062-0.39063-0.0781-0.6875-0.0781-0.94532 0-1.375 0.42188-0.42188 0.41406-0.42188 1.5078v0.29688h2.6484v1.2344h-2.6016v7.4922h-1.4688v-7.4922h-0.99219v-1.2344h0.99219v-0.28907q0-1.5547 0.77343-2.3828 0.77344-0.83594 2.2344-0.83594 0.49219 0 0.88281 0.0469 0.39844 0.0469 0.72656 0.10937z"/>
   <path d="m197.54 717.69h-6.4297q0 0.80469 0.24219 1.4062 0.24219 0.59375 0.66406 0.97656 0.40625 0.375 0.96094 0.5625 0.5625 0.1875 1.2344 0.1875 0.89063 0 1.7891-0.35156 0.90625-0.35937 1.2891-0.70312h0.0781v1.6016q-0.74218 0.3125-1.5156 0.52344-0.77344 0.21093-1.625 0.21093-2.1719 0-3.3906-1.1719-1.2188-1.1797-1.2188-3.3438 0-2.1406 1.1641-3.3984 1.1719-1.2578 3.0781-1.2578 1.7656 0 2.7188 1.0312 0.96094 1.0312 0.96094 2.9297zm-1.4297-1.125q-8e-3 -1.1562-0.58594-1.7891-0.57031-0.63281-1.7422-0.63281-1.1797 0-1.8828 0.69531-0.69531 0.69531-0.78906 1.7266z"/>
   <path d="m206.22 721.35q-0.73438 0.35157-1.3984 0.54688-0.65625 0.19531-1.3984 0.19531-0.94531 0-1.7344-0.27344-0.78907-0.28125-1.3516-0.84375-0.57031-0.5625-0.88281-1.4219-0.3125-0.85938-0.3125-2.0078 0-2.1406 1.1719-3.3594 1.1797-1.2188 3.1094-1.2188 0.75 0 1.4688 0.21094 0.72656 0.21094 1.3281 0.51562v1.6328h-0.0781q-0.67187-0.52344-1.3906-0.80469-0.71094-0.28125-1.3906-0.28125-1.25 0-1.9766 0.84375-0.71875 0.83594-0.71875 2.4609 0 1.5781 0.70312 2.4297 0.71094 0.84375 1.9922 0.84375 0.44531 0 0.90625-0.11718 0.46094-0.11719 0.82813-0.30469 0.32031-0.16406 0.60156-0.34375 0.28125-0.1875 0.44531-0.32031h0.0781z"/>
   <path d="m212.64 721.82q-0.41406 0.10938-0.90625 0.17969-0.48437 0.0703-0.86719 0.0703-1.3359 0-2.0312-0.71875-0.69531-0.71875-0.69531-2.3047v-4.6406h-0.99219v-1.2344h0.99219v-2.5078h1.4688v2.5078h3.0312v1.2344h-3.0312v3.9766q0 0.6875 0.0312 1.0781 0.0312 0.38281 0.21875 0.71875 0.17188 0.3125 0.46875 0.46094 0.30469 0.14062 0.92188 0.14062 0.35937 0 0.75-0.10156 0.39062-0.10938 0.5625-0.17969h0.0781z"/>
   <path d="m216 711.71h-1.6562v-1.5234h1.6562zm-0.0937 10.188h-1.4688v-8.7266h1.4688z"/>
   <path d="m225.28 721.35q-0.73438 0.35157-1.3984 0.54688-0.65625 0.19531-1.3984 0.19531-0.94531 0-1.7344-0.27344-0.78907-0.28125-1.3516-0.84375-0.57031-0.5625-0.88281-1.4219-0.3125-0.85938-0.3125-2.0078 0-2.1406 1.1719-3.3594 1.1797-1.2188 3.1094-1.2188 0.75 0 1.4688 0.21094 0.72656 0.21094 1.3281 0.51562v1.6328h-0.0781q-0.67187-0.52344-1.3906-0.80469-0.71094-0.28125-1.3906-0.28125-1.25 0-1.9766 0.84375-0.71875 0.83594-0.71875 2.4609 0 1.5781 0.70312 2.4297 0.71094 0.84375 1.9922 0.84375 0.44531 0 0.90625-0.11718 0.46094-0.11719 0.82813-0.30469 0.32031-0.16406 0.60156-0.34375 0.28125-0.1875 0.44531-0.32031h0.0781z"/>
   <path d="m234.72 713.17-3.5312 8.7266h-1.4766l-3.5078-8.7266h1.5938l2.7031 6.9453 2.6797-6.9453z"/>
   <path d="m243.94 717.69h-6.4297q0 0.80469 0.24219 1.4062 0.24219 0.59375 0.66406 0.97656 0.40625 0.375 0.96094 0.5625 0.5625 0.1875 1.2344 0.1875 0.89063 0 1.7891-0.35156 0.90625-0.35937 1.2891-0.70312h0.0781v1.6016q-0.74218 0.3125-1.5156 0.52344-0.77344 0.21093-1.625 0.21093-2.1719 0-3.3906-1.1719-1.2188-1.1797-1.2188-3.3438 0-2.1406 1.1641-3.3984 1.1719-1.2578 3.0781-1.2578 1.7656 0 2.7188 1.0312 0.96094 1.0312 0.96094 2.9297zm-1.4297-1.125q-8e-3 -1.1562-0.58594-1.7891-0.57031-0.63281-1.7422-0.63281-1.1797 0-1.8828 0.69531-0.69531 0.69531-0.78906 1.7266z"/>
  </g>
  <g transform="matrix(.26458 0 0 .26458 103.8 -91.399)" style="shape-inside:url(#rect22628-6-5-5);white-space:pre" aria-label="stative">
   <path d="m55.305 686.74q0 1.9922-1.6536 3.2682-1.6406 1.276-4.4922 1.276-1.6146 0-2.9688-0.3776-1.3411-0.39063-2.2526-0.84636v-2.7474h0.13021q1.1589 0.8724 2.5781 1.3932 1.4193 0.50782 2.7214 0.50782 1.6146 0 2.526-0.52084 0.91146-0.52083 0.91146-1.6406 0-0.85937-0.49479-1.3021-0.49479-0.44271-1.901-0.75521-0.52083-0.11719-1.3672-0.27344-0.83333-0.15625-1.5234-0.33854-1.9141-0.50781-2.7214-1.4844-0.79427-0.98958-0.79427-2.4219 0-0.89844 0.36458-1.6927 0.3776-0.79428 1.1328-1.4193 0.72917-0.61198 1.849-0.96354 1.1328-0.36458 2.526-0.36458 1.3021 0 2.6302 0.32552 1.3411 0.3125 2.2266 0.76823v2.6172h-0.13021q-0.9375-0.69011-2.2786-1.1589-1.3411-0.48177-2.6302-0.48177-1.3411 0-2.2656 0.52083-0.92448 0.50782-0.92448 1.5234 0 0.89844 0.5599 1.3542 0.54688 0.45573 1.7708 0.74219 0.67708 0.15625 1.5104 0.3125 0.84636 0.15625 1.4063 0.28646 1.7057 0.39063 2.6302 1.3412 0.92448 0.96354 0.92448 2.5521z"/>
   <path d="m66.373 690.8q-0.6901 0.18229-1.5104 0.29948-0.80729 0.11719-1.4453 0.11719-2.2266 0-3.3854-1.1979-1.1589-1.1979-1.1589-3.8412v-7.7344h-1.6536v-2.0573h1.6536v-4.1797h2.4479v4.1797h5.0521v2.0573h-5.0521v6.6276q0 1.1458 0.05208 1.7969 0.05208 0.63802 0.36458 1.1979 0.28646 0.52083 0.78125 0.76823 0.50781 0.23438 1.5365 0.23438 0.59896 0 1.25-0.16927 0.65104-0.1823 0.9375-0.29948h0.13021z"/>
   <path d="m80.644 690.93h-2.4349v-1.5495q-0.32552 0.22135-0.88542 0.625-0.54688 0.39062-1.0677 0.625-0.61198 0.29948-1.4063 0.49479-0.79427 0.20833-1.862 0.20833-1.9661 0-3.3333-1.3021t-1.3672-3.3203q0-1.6536 0.70313-2.6693 0.71615-1.0286 2.0313-1.6146 1.3281-0.58594 3.1901-0.79427t3.9974-0.3125v-0.3776q0-0.83334-0.29948-1.3802-0.28646-0.54688-0.83333-0.85938-0.52083-0.29948-1.25-0.40365-0.72917-0.10416-1.5234-0.10416-0.96354 0-2.1484 0.26041-1.1849 0.2474-2.4479 0.72917h-0.13021v-2.487q0.71615-0.19531 2.0703-0.42969 1.3542-0.23437 2.6693-0.23437 1.5365 0 2.6693 0.26041 1.1458 0.2474 1.9792 0.85938 0.82031 0.59896 1.25 1.5495t0.42969 2.3568zm-2.4349-3.5807v-4.0495q-1.1198 0.0651-2.6432 0.19531-1.5104 0.13021-2.3958 0.37761-1.0547 0.29948-1.7057 0.9375-0.65104 0.625-0.65104 1.7318 0 1.25 0.75521 1.888 0.75521 0.62501 2.3047 0.62501 1.2891 0 2.3568-0.4948 1.0677-0.50781 1.9792-1.2109z"/>
   <path d="m92.936 690.8q-0.6901 0.18229-1.5104 0.29948-0.80729 0.11719-1.4453 0.11719-2.2266 0-3.3854-1.1979-1.1589-1.1979-1.1589-3.8412v-7.7344h-1.6536v-2.0573h1.6536v-4.1797h2.4479v4.1797h5.0521v2.0573h-5.0521v6.6276q0 1.1458 0.05208 1.7969 0.05208 0.63802 0.36458 1.1979 0.28646 0.52083 0.78125 0.76823 0.50781 0.23438 1.5365 0.23438 0.59896 0 1.25-0.16927 0.65104-0.1823 0.9375-0.29948h0.13021z"/>
   <path d="m98.535 673.96h-2.7604v-2.5391h2.7604zm-0.15625 16.979h-2.4479v-14.544h2.4479z"/>
   <path d="m115.83 676.39-5.8854 14.544h-2.4609l-5.8464-14.544h2.6562l4.5052 11.576 4.4662-11.576z"/>
   <path d="m131.2 683.92h-10.716q0 1.3412 0.40365 2.3438 0.40364 0.98959 1.1068 1.6276 0.67708 0.625 1.6016 0.9375 0.9375 0.3125 2.0573 0.3125 1.4844 0 2.9818-0.58594 1.5104-0.59896 2.1484-1.1719h0.13021v2.6693q-1.237 0.52083-2.526 0.8724-1.2891 0.35156-2.7083 0.35156-3.6198 0-5.651-1.9531-2.0312-1.9662-2.0312-5.5729 0-3.5677 1.9401-5.6641 1.9531-2.0964 5.1302-2.0964 2.9427 0 4.5312 1.7188 1.6016 1.7188 1.6016 4.8828zm-2.3828-1.875q-0.013-1.9271-0.97656-2.9818-0.95052-1.0547-2.9036-1.0547-1.9662 0-3.138 1.1589-1.1589 1.1589-1.3151 2.8776z"/>
  </g>
  <g transform="matrix(.26458 0 0 .26458 -1.5746 -29.418)" style="shape-inside:url(#rect22628-6-2);white-space:pre" aria-label="transitive">
   <path d="m52.467 690.8q-0.6901 0.18229-1.5104 0.29948-0.80729 0.11719-1.4453 0.11719-2.2266 0-3.3854-1.1979-1.1589-1.1979-1.1589-3.8412v-7.7344h-1.6536v-2.0573h1.6536v-4.1797h2.4479v4.1797h5.0521v2.0573h-5.0521v6.6276q0 1.1458 0.05208 1.7969 0.05208 0.63802 0.36458 1.1979 0.28646 0.52083 0.78125 0.76823 0.50781 0.23438 1.5365 0.23438 0.59896 0 1.25-0.16927 0.65104-0.1823 0.9375-0.29948h0.13021z"/>
   <path d="m64.511 679.06h-0.13021q-0.54688-0.13021-1.0677-0.18229-0.50781-0.0651-1.2109-0.0651-1.1328 0-2.1875 0.50781-1.0547 0.49479-2.0313 1.2891v10.326h-2.4479v-14.544h2.4479v2.1484q1.4583-1.1719 2.5651-1.6536 1.1198-0.49479 2.2786-0.49479 0.63802 0 0.92448 0.0391 0.28646 0.026 0.85938 0.11719z"/>
   <path d="m78.144 690.93h-2.4349v-1.5495q-0.32552 0.22135-0.88542 0.625-0.54688 0.39062-1.0677 0.625-0.61198 0.29948-1.4063 0.49479-0.79427 0.20833-1.862 0.20833-1.9661 0-3.3333-1.3021t-1.3672-3.3203q0-1.6536 0.70313-2.6693 0.71615-1.0286 2.0313-1.6146 1.3281-0.58594 3.1901-0.79427t3.9974-0.3125v-0.3776q0-0.83334-0.29948-1.3802-0.28646-0.54688-0.83333-0.85938-0.52083-0.29948-1.25-0.40365-0.72917-0.10416-1.5234-0.10416-0.96354 0-2.1484 0.26041-1.1849 0.2474-2.4479 0.72917h-0.13021v-2.487q0.71615-0.19531 2.0703-0.42969 1.3542-0.23437 2.6693-0.23437 1.5365 0 2.6693 0.26041 1.1458 0.2474 1.9792 0.85938 0.82031 0.59896 1.25 1.5495t0.42969 2.3568zm-2.4349-3.5807v-4.0495q-1.1198 0.0651-2.6432 0.19531-1.5104 0.13021-2.3958 0.37761-1.0547 0.29948-1.7057 0.9375-0.65104 0.625-0.65104 1.7318 0 1.25 0.75521 1.888 0.75521 0.62501 2.3047 0.62501 1.2891 0 2.3568-0.4948 1.0677-0.50781 1.9792-1.2109z"/>
   <path d="m95.045 690.93h-2.4479v-8.2813q0-1.0026-0.11719-1.875-0.11719-0.88542-0.42969-1.3802-0.32552-0.54688-0.9375-0.8073-0.61198-0.27344-1.5885-0.27344-1.0026 0-2.0964 0.4948-1.0938 0.49479-2.0964 1.263v10.859h-2.4479v-14.544h2.4479v1.6146q1.1458-0.95052 2.3698-1.4844 1.224-0.53386 2.513-0.53386 2.3568 0 3.5938 1.4193t1.237 4.0885z"/>
   <path d="m110.15 686.74q0 1.9922-1.6536 3.2682-1.6406 1.276-4.4922 1.276-1.6146 0-2.9688-0.3776-1.3411-0.39063-2.2526-0.84636v-2.7474h0.13021q1.1589 0.8724 2.5781 1.3932 1.4193 0.50782 2.7214 0.50782 1.6146 0 2.526-0.52084 0.91146-0.52083 0.91146-1.6406 0-0.85937-0.49479-1.3021t-1.901-0.75521q-0.52083-0.11719-1.3672-0.27344-0.83333-0.15625-1.5234-0.33854-1.9141-0.50781-2.7214-1.4844-0.79427-0.98958-0.79427-2.4219 0-0.89844 0.36458-1.6927 0.3776-0.79428 1.1328-1.4193 0.72917-0.61198 1.849-0.96354 1.1328-0.36458 2.526-0.36458 1.3021 0 2.6302 0.32552 1.3412 0.3125 2.2266 0.76823v2.6172h-0.13021q-0.9375-0.69011-2.2786-1.1589-1.3412-0.48177-2.6302-0.48177-1.3412 0-2.2656 0.52083-0.92448 0.50782-0.92448 1.5234 0 0.89844 0.5599 1.3542 0.54687 0.45573 1.7708 0.74219 0.67709 0.15625 1.5104 0.3125 0.84635 0.15625 1.4062 0.28646 1.7057 0.39063 2.6302 1.3412 0.92448 0.96354 0.92448 2.5521z"/>
   <path d="m116.3 673.96h-2.7604v-2.5391h2.7604zm-0.15625 16.979h-2.4479v-14.544h2.4479z"/>
   <path d="m128.56 690.8q-0.6901 0.18229-1.5104 0.29948-0.80729 0.11719-1.4453 0.11719-2.2266 0-3.3854-1.1979-1.1589-1.1979-1.1589-3.8412v-7.7344h-1.6536v-2.0573h1.6536v-4.1797h2.4479v4.1797h5.0521v2.0573h-5.0521v6.6276q0 1.1458 0.0521 1.7969 0.0521 0.63802 0.36459 1.1979 0.28646 0.52083 0.78125 0.76823 0.50781 0.23438 1.5365 0.23438 0.59896 0 1.25-0.16927 0.65104-0.1823 0.9375-0.29948h0.13021z"/>
   <path d="m134.16 673.96h-2.7604v-2.5391h2.7604zm-0.15625 16.979h-2.4479v-14.544h2.4479z"/>
   <path d="m151.45 676.39-5.8854 14.544h-2.4609l-5.8464-14.544h2.6562l4.5052 11.576 4.4662-11.576z"/>
   <path d="m166.83 683.92h-10.716q0 1.3412 0.40365 2.3438 0.40365 0.98959 1.1068 1.6276 0.67709 0.625 1.6016 0.9375 0.9375 0.3125 2.0573 0.3125 1.4844 0 2.9818-0.58594 1.5104-0.59896 2.1484-1.1719h0.13021v2.6693q-1.237 0.52083-2.526 0.8724-1.2891 0.35156-2.7083 0.35156-3.6198 0-5.651-1.9531-2.0313-1.9662-2.0313-5.5729 0-3.5677 1.9401-5.6641 1.9531-2.0964 5.1302-2.0964 2.9427 0 4.5313 1.7188 1.6016 1.7188 1.6016 4.8828zm-2.3828-1.875q-0.013-1.9271-0.97656-2.9818-0.95053-1.0547-2.9036-1.0547-1.9662 0-3.138 1.1589-1.1588 1.1589-1.3151 2.8776z"/>
  </g>
  <g transform="matrix(.26458 0 0 .26458 97.947 -19.141)" style="shape-inside:url(#rect22628-0);white-space:pre" aria-label='"to make"'>
   <path d="m52.558 670.67-0.5599 7.5391h-1.7188l-0.5599-7.5391zm-5.026 0-0.5599 7.5391h-1.7188l-0.5599-7.5391z"/>
   <path d="m64.706 690.8q-0.6901 0.18229-1.5104 0.29948-0.80729 0.11719-1.4453 0.11719-2.2266 0-3.3854-1.1979-1.1589-1.1979-1.1589-3.8412v-7.7344h-1.6536v-2.0573h1.6536v-4.1797h2.4479v4.1797h5.0521v2.0573h-5.0521v6.6276q0 1.1458 0.05208 1.7969 0.05208 0.63802 0.36458 1.1979 0.28646 0.52083 0.78125 0.76823 0.50781 0.23438 1.5365 0.23438 0.59896 0 1.25-0.16927 0.65104-0.1823 0.9375-0.29948h0.13021z"/>
   <path d="m80.071 683.67q0 3.5547-1.8229 5.612t-4.8828 2.0573q-3.0859 0-4.9089-2.0573-1.8099-2.0573-1.8099-5.612t1.8099-5.612q1.8229-2.0703 4.9089-2.0703 3.0599 0 4.8828 2.0703 1.8229 2.0573 1.8229 5.612zm-2.526 0q0-2.8255-1.1068-4.1927-1.1068-1.3802-3.0729-1.3802-1.9922 0-3.099 1.3802-1.0938 1.3672-1.0938 4.1927 0 2.7344 1.1068 4.1536 1.1068 1.4063 3.0859 1.4063 1.9531 0 3.0599-1.3932 1.1198-1.4063 1.1198-4.1667z"/>
   <path d="m114.47 690.93h-2.4479v-8.2813q0-0.9375-0.0911-1.8099-0.0781-0.8724-0.35156-1.3932-0.29948-0.5599-0.85938-0.84636t-1.6146-0.28646q-1.0286 0-2.0573 0.52084-1.0286 0.50781-2.0573 1.3021 0.0391 0.29948 0.0651 0.70313 0.026 0.39062 0.026 0.78125v9.3099h-2.4479v-8.2813q0-0.96355-0.0911-1.8229-0.0781-0.8724-0.35157-1.3932-0.29948-0.5599-0.85937-0.83334-0.5599-0.28646-1.6146-0.28646-1.0026 0-2.0182 0.4948-1.0026 0.49479-2.0052 1.263v10.859h-2.448v-14.544h2.4479v1.6146q1.1458-0.95052 2.2786-1.4844 1.1458-0.53386 2.4349-0.53386 1.4844 0 2.513 0.625 1.0417 0.625 1.5495 1.7318 1.4844-1.25 2.7083-1.7969 1.224-0.5599 2.6172-0.5599 2.3958 0 3.5286 1.4583 1.1458 1.4453 1.1458 4.0495z"/>
   <path d="m130.49 690.93h-2.4349v-1.5495q-0.32552 0.22135-0.88542 0.625-0.54687 0.39062-1.0677 0.625-0.61198 0.29948-1.4063 0.49479-0.79427 0.20833-1.862 0.20833-1.9662 0-3.3333-1.3021-1.3672-1.3021-1.3672-3.3203 0-1.6536 0.70312-2.6693 0.71615-1.0286 2.0312-1.6146 1.3281-0.58594 3.1901-0.79427t3.9974-0.3125v-0.3776q0-0.83334-0.29948-1.3802-0.28646-0.54688-0.83333-0.85938-0.52084-0.29948-1.25-0.40365-0.72917-0.10416-1.5234-0.10416-0.96355 0-2.1484 0.26041-1.1849 0.2474-2.4479 0.72917h-0.13021v-2.487q0.71615-0.19531 2.0703-0.42969 1.3542-0.23437 2.6693-0.23437 1.5365 0 2.6693 0.26041 1.1458 0.2474 1.9792 0.85938 0.82032 0.59896 1.25 1.5495 0.42969 0.95052 0.42969 2.3568zm-2.4349-3.5807v-4.0495q-1.1198 0.0651-2.6432 0.19531-1.5104 0.13021-2.3958 0.37761-1.0547 0.29948-1.7057 0.9375-0.65104 0.625-0.65104 1.7318 0 1.25 0.75521 1.888 0.75521 0.62501 2.3047 0.62501 1.2891 0 2.3568-0.4948 1.0677-0.50781 1.9792-1.2109z"/>
   <path d="m148.43 690.93h-3.2292l-5.8333-6.3672-1.5885 1.5104v4.8568h-2.4479v-20.26h2.4479v12.995l7.0703-7.2786h3.0859l-6.7578 6.7188z"/>
   <path d="m163.18 683.92h-10.716q0 1.3412 0.40365 2.3438 0.40364 0.98959 1.1068 1.6276 0.67708 0.625 1.6016 0.9375 0.9375 0.3125 2.0573 0.3125 1.4844 0 2.9818-0.58594 1.5104-0.59896 2.1484-1.1719h0.13021v2.6693q-1.237 0.52083-2.526 0.8724-1.2891 0.35156-2.7083 0.35156-3.6198 0-5.651-1.9531-2.0312-1.9662-2.0312-5.5729 0-3.5677 1.9401-5.6641 1.9531-2.0964 5.1302-2.0964 2.9427 0 4.5312 1.7188 1.6016 1.7188 1.6016 4.8828zm-2.3828-1.875q-0.013-1.9271-0.97656-2.9818-0.95052-1.0547-2.9036-1.0547-1.9662 0-3.138 1.1589-1.1588 1.1589-1.3151 2.8776z"/>
   <path d="m174.54 670.67-0.5599 7.5391h-1.7188l-0.5599-7.5391zm-5.026 0-0.55989 7.5391h-1.7188l-0.55989-7.5391z"/>
  </g>
  <g transform="matrix(.26458 0 0 .26458 50.219 -19.69)" style="shape-inside:url(#rect22628-1);white-space:pre" aria-label='"to do"'>
   <path d="m52.558 670.67-0.5599 7.5391h-1.7188l-0.5599-7.5391zm-5.026 0-0.5599 7.5391h-1.7188l-0.5599-7.5391z"/>
   <path d="m64.706 690.8q-0.6901 0.18229-1.5104 0.29948-0.80729 0.11719-1.4453 0.11719-2.2266 0-3.3854-1.1979-1.1589-1.1979-1.1589-3.8412v-7.7344h-1.6536v-2.0573h1.6536v-4.1797h2.4479v4.1797h5.0521v2.0573h-5.0521v6.6276q0 1.1458 0.05208 1.7969 0.05208 0.63802 0.36458 1.1979 0.28646 0.52083 0.78125 0.76823 0.50781 0.23438 1.5365 0.23438 0.59896 0 1.25-0.16927 0.65104-0.1823 0.9375-0.29948h0.13021z"/>
   <path d="m80.071 683.67q0 3.5547-1.8229 5.612t-4.8828 2.0573q-3.0859 0-4.9089-2.0573-1.8099-2.0573-1.8099-5.612t1.8099-5.612q1.8229-2.0703 4.9089-2.0703 3.0599 0 4.8828 2.0703 1.8229 2.0573 1.8229 5.612zm-2.526 0q0-2.8255-1.1068-4.1927-1.1068-1.3802-3.0729-1.3802-1.9922 0-3.099 1.3802-1.0938 1.3672-1.0938 4.1927 0 2.7344 1.1068 4.1536 1.1068 1.4063 3.0859 1.4063 1.9531 0 3.0599-1.3932 1.1198-1.4063 1.1198-4.1667z"/>
   <path d="m105.04 690.93h-2.4479v-1.5234q-1.0547 0.91146-2.2005 1.4193-1.1458 0.50781-2.487 0.50781-2.6042 0-4.1406-2.0052-1.5234-2.0052-1.5234-5.5599 0-1.849 0.52083-3.2943 0.53386-1.4453 1.4323-2.461 0.88542-0.98958 2.0573-1.5104 1.1849-0.52084 2.4479-0.52084 1.1458 0 2.0313 0.2474 0.88542 0.23437 1.862 0.74219v-6.3021h2.4479zm-2.4479-3.5807v-8.3464q-0.98958-0.44271-1.7708-0.61198-0.78125-0.16927-1.7057-0.16927-2.0573 0-3.2031 1.4323t-1.1458 4.0625q0 2.5912 0.88542 3.9453 0.88542 1.3412 2.8385 1.3412 1.0417 0 2.1094-0.45573 1.0677-0.46875 1.9922-1.1979z"/>
   <path d="m122.26 683.67q0 3.5547-1.8229 5.612t-4.8828 2.0573q-3.086 0-4.9089-2.0573-1.8099-2.0573-1.8099-5.612t1.8099-5.612q1.8229-2.0703 4.9089-2.0703 3.0599 0 4.8828 2.0703 1.8229 2.0573 1.8229 5.612zm-2.526 0q0-2.8255-1.1068-4.1927-1.1068-1.3802-3.0729-1.3802-1.9922 0-3.099 1.3802-1.0938 1.3672-1.0938 4.1927 0 2.7344 1.1068 4.1536 1.1068 1.4063 3.086 1.4063 1.9531 0 3.0599-1.3932 1.1198-1.4063 1.1198-4.1667z"/>
   <path d="m133.7 670.67-0.5599 7.5391h-1.7188l-0.55989-7.5391zm-5.026 0-0.55989 7.5391h-1.7188l-0.55989-7.5391z"/>
  </g>
  <g transform="matrix(.26458 0 0 .26458 94.381 -54.761)" style="shape-inside:url(#rect22628-5);white-space:pre" aria-label='"to become"'>
   <path d="m52.558 670.67-0.5599 7.5391h-1.7188l-0.5599-7.5391zm-5.026 0-0.5599 7.5391h-1.7188l-0.5599-7.5391z"/>
   <path d="m64.706 690.8q-0.6901 0.18229-1.5104 0.29948-0.80729 0.11719-1.4453 0.11719-2.2266 0-3.3854-1.1979-1.1589-1.1979-1.1589-3.8412v-7.7344h-1.6536v-2.0573h1.6536v-4.1797h2.4479v4.1797h5.0521v2.0573h-5.0521v6.6276q0 1.1458 0.05208 1.7969 0.05208 0.63802 0.36458 1.1979 0.28646 0.52083 0.78125 0.76823 0.50781 0.23438 1.5365 0.23438 0.59896 0 1.25-0.16927 0.65104-0.1823 0.9375-0.29948h0.13021z"/>
   <path d="m80.071 683.67q0 3.5547-1.8229 5.612t-4.8828 2.0573q-3.0859 0-4.9089-2.0573-1.8099-2.0573-1.8099-5.612t1.8099-5.612q1.8229-2.0703 4.9089-2.0703 3.0599 0 4.8828 2.0703 1.8229 2.0573 1.8229 5.612zm-2.526 0q0-2.8255-1.1068-4.1927-1.1068-1.3802-3.0729-1.3802-1.9922 0-3.099 1.3802-1.0938 1.3672-1.0938 4.1927 0 2.7344 1.1068 4.1536 1.1068 1.4063 3.0859 1.4063 1.9531 0 3.0599-1.3932 1.1198-1.4063 1.1198-4.1667z"/>
   <path d="m106.05 683.55q0 1.8229-0.52084 3.2812-0.50781 1.4583-1.3802 2.4479-0.92448 1.0286-2.0312 1.5495-1.1068 0.50781-2.4349 0.50781-1.237 0-2.1615-0.29948-0.92448-0.28645-1.8229-0.78125l-0.15625 0.67709h-2.2917v-20.26h2.4479v7.2396q1.0286-0.84636 2.1875-1.3802 1.1589-0.54688 2.6042-0.54688 2.5781 0 4.0625 1.9792 1.4974 1.9792 1.4974 5.586zm-2.526 0.0651q0-2.6042-0.85938-3.9453-0.85937-1.3542-2.7734-1.3542-1.0677 0-2.1615 0.46876-1.0938 0.45572-2.0313 1.1849v8.3334q1.0417 0.46875 1.7839 0.65104 0.75521 0.18229 1.7057 0.18229 2.0313 0 3.1771-1.3281 1.1589-1.3411 1.1589-4.1927z"/>
   <path d="m122.04 683.92h-10.716q0 1.3412 0.40365 2.3438 0.40364 0.98959 1.1068 1.6276 0.67708 0.625 1.6016 0.9375 0.9375 0.3125 2.0573 0.3125 1.4844 0 2.9818-0.58594 1.5104-0.59896 2.1484-1.1719h0.13021v2.6693q-1.237 0.52083-2.526 0.8724-1.2891 0.35156-2.7083 0.35156-3.6198 0-5.651-1.9531-2.0312-1.9662-2.0312-5.5729 0-3.5677 1.9401-5.6641 1.9531-2.0964 5.1302-2.0964 2.9427 0 4.5312 1.7188 1.6016 1.7188 1.6016 4.8828zm-2.3828-1.875q-0.013-1.9271-0.97656-2.9818-0.95052-1.0547-2.9036-1.0547-1.9662 0-3.138 1.1589-1.1589 1.1589-1.3151 2.8776z"/>
   <path d="m136.5 690.02q-1.224 0.58594-2.3307 0.91146-1.0938 0.32552-2.3307 0.32552-1.5755 0-2.8906-0.45573-1.3151-0.46875-2.2526-1.4062-0.95052-0.9375-1.4714-2.3698-0.52084-1.4323-0.52084-3.3464 0-3.5677 1.9531-5.599 1.9662-2.0312 5.1823-2.0312 1.25 0 2.4479 0.35156 1.2109 0.35156 2.2135 0.85938v2.7214h-0.1302q-1.1198-0.87239-2.3177-1.3411-1.1849-0.46875-2.3177-0.46875-2.0833 0-3.2943 1.4062-1.1979 1.3932-1.1979 4.1016 0 2.6302 1.1719 4.0495 1.1849 1.4062 3.3203 1.4062 0.74219 0 1.5104-0.19531t1.3802-0.50782q0.53386-0.27343 1.0026-0.57291 0.46875-0.3125 0.74219-0.53386h0.1302z"/>
   <path d="m152.05 683.67q0 3.5547-1.8229 5.612t-4.8828 2.0573q-3.0859 0-4.9089-2.0573-1.8099-2.0573-1.8099-5.612t1.8099-5.612q1.8229-2.0703 4.9089-2.0703 3.0599 0 4.8828 2.0703 1.8229 2.0573 1.8229 5.612zm-2.526 0q0-2.8255-1.1068-4.1927-1.1068-1.3802-3.0729-1.3802-1.9922 0-3.099 1.3802-1.0938 1.3672-1.0938 4.1927 0 2.7344 1.1068 4.1536 1.1068 1.4063 3.0859 1.4063 1.9531 0 3.0599-1.3932 1.1198-1.4063 1.1198-4.1667z"/>
   <path d="m177.08 690.93h-2.4479v-8.2813q0-0.9375-0.0911-1.8099-0.0781-0.8724-0.35156-1.3932-0.29948-0.5599-0.85938-0.84636-0.55989-0.28646-1.6146-0.28646-1.0286 0-2.0573 0.52084-1.0286 0.50781-2.0573 1.3021 0.0391 0.29948 0.0651 0.70313 0.026 0.39062 0.026 0.78125v9.3099h-2.4479v-8.2813q0-0.96355-0.0911-1.8229-0.0781-0.8724-0.35156-1.3932-0.29948-0.5599-0.85938-0.83334-0.55989-0.28646-1.6146-0.28646-1.0026 0-2.0182 0.4948-1.0026 0.49479-2.0052 1.263v10.859h-2.4479v-14.544h2.4479v1.6146q1.1458-0.95052 2.2786-1.4844 1.1458-0.53386 2.4349-0.53386 1.4844 0 2.513 0.625 1.0417 0.625 1.5495 1.7318 1.4844-1.25 2.7083-1.7969 1.224-0.5599 2.6172-0.5599 2.3958 0 3.5286 1.4583 1.1458 1.4453 1.1458 4.0495z"/>
   <path d="m193.96 683.92h-10.716q0 1.3412 0.40365 2.3438 0.40364 0.98959 1.1068 1.6276 0.67708 0.625 1.6016 0.9375 0.9375 0.3125 2.0573 0.3125 1.4844 0 2.9818-0.58594 1.5104-0.59896 2.1484-1.1719h0.13021v2.6693q-1.237 0.52083-2.526 0.8724-1.2891 0.35156-2.7083 0.35156-3.6198 0-5.651-1.9531-2.0312-1.9662-2.0312-5.5729 0-3.5677 1.9401-5.6641 1.9531-2.0964 5.1302-2.0964 2.9427 0 4.5312 1.7188 1.6016 1.7188 1.6016 4.8828zm-2.3828-1.875q-0.013-1.9271-0.97656-2.9818-0.95052-1.0547-2.9036-1.0547-1.9662 0-3.138 1.1589-1.1589 1.1589-1.3151 2.8776z"/>
   <path d="m205.32 670.67-0.5599 7.5391h-1.7188l-0.55989-7.5391zm-5.026 0-0.55989 7.5391h-1.7188l-0.55989-7.5391z"/>
  </g>
  <g font-family="sans-serif" font-size="40px">
   <text transform="scale(.26458)" style="line-height:1.25;shape-inside:url(#rect44037);white-space:pre" xml:space="preserve"/>
   <text transform="scale(.26458)" style="line-height:1.25;shape-inside:url(#rect59673);white-space:pre" xml:space="preserve"/>
   <text transform="scale(.26458)" style="line-height:1.25;shape-inside:url(#rect63311);white-space:pre" xml:space="preserve"/>
  </g>
 </g>
 <rect x="97.58" y="7.214" width="62.557" height="132.93" ry="16.291" fill="none" opacity=".49126" stroke="#ff0" stroke-width="10.428"/>
</svg>
