<?xml version="1.0" encoding="UTF-8"?>
<!-- Created with Inkscape (http://www.inkscape.org/) -->
<svg width="129.47mm" height="39.753mm" version="1.1" viewBox="0 0 129.47 39.753" xmlns="http://www.w3.org/2000/svg">
 <g transform="translate(-30.947 -22.793)">
  <g transform="translate(0 .19046)">
   <g transform="matrix(.26458 0 0 .26458 55.019 -78.19)" style="shape-inside:url(#rect3842);white-space:pre" aria-label="complement">
    <path d="m-39.918 449.63q-1.224 0.58594-2.3307 0.91146-1.0938 0.32552-2.3307 0.32552-1.5755 0-2.8906-0.45573-1.3151-0.46875-2.2526-1.4062-0.95052-0.9375-1.4714-2.3698-0.52083-1.4323-0.52083-3.3464 0-3.5677 1.9531-5.599 1.9661-2.0312 5.1823-2.0312 1.25 0 2.4479 0.35156 1.2109 0.35157 2.2135 0.85938v2.7214h-0.13021q-1.1198-0.8724-2.3177-1.3412-1.1849-0.46875-2.3177-0.46875-2.0833 0-3.2943 1.4062-1.1979 1.3932-1.1979 4.1016 0 2.6302 1.1719 4.0495 1.1849 1.4063 3.3203 1.4063 0.74219 0 1.5104-0.19532 0.76823-0.19531 1.3802-0.50781 0.53385-0.27344 1.0026-0.57292 0.46875-0.3125 0.74219-0.53385h0.13021z" style="shape-inside:url(#rect3842);white-space:pre"/>
    <path d="m-24.371 443.28q0 3.5547-1.8229 5.612-1.8229 2.0573-4.8828 2.0573-3.0859 0-4.9089-2.0573-1.8099-2.0573-1.8099-5.612t1.8099-5.612q1.8229-2.0703 4.9089-2.0703 3.0599 0 4.8828 2.0703 1.8229 2.0573 1.8229 5.612zm-2.526 0q0-2.8255-1.1068-4.1927-1.1068-1.3802-3.0729-1.3802-1.9922 0-3.099 1.3802-1.0938 1.3672-1.0938 4.1927 0 2.7344 1.1068 4.1536 1.1068 1.4062 3.0859 1.4062 1.9531 0 3.0599-1.3932 1.1198-1.4062 1.1198-4.1667z" style="shape-inside:url(#rect3842);white-space:pre"/>
    <path d="m0.65502 450.54h-2.4479v-8.2813q0-0.9375-0.091146-1.8099-0.078125-0.87239-0.35156-1.3932-0.29948-0.55989-0.85938-0.84635-0.5599-0.28646-1.6146-0.28646-1.0286 0-2.0573 0.52083-1.0286 0.50782-2.0573 1.3021 0.039063 0.29948 0.065104 0.70312 0.026042 0.39063 0.026042 0.78126v9.3099h-2.4479v-8.2813q0-0.96354-0.09115-1.8229-0.07813-0.87239-0.35156-1.3932-0.29948-0.55989-0.85938-0.83333-0.5599-0.28646-1.6146-0.28646-1.0026 0-2.0182 0.49479-1.0026 0.49479-2.0052 1.263v10.859h-2.4479v-14.544h2.4479v1.6146q1.1458-0.95052 2.2786-1.4844 1.1458-0.53385 2.4349-0.53385 1.4844 0 2.513 0.625 1.0417 0.625 1.5495 1.7318 1.4844-1.25 2.7083-1.7969 1.224-0.55989 2.6172-0.55989 2.3958 0 3.5287 1.4583 1.1458 1.4453 1.1458 4.0495z" style="shape-inside:url(#rect3842);white-space:pre"/>
    <path d="m18.168 443.1q0 1.7708-0.50781 3.2422-0.50781 1.4583-1.4323 2.474-0.85938 0.96354-2.0313 1.4974-1.1589 0.52083-2.4609 0.52083-1.1328 0-2.0573-0.24739-0.91146-0.2474-1.862-0.76823v6.0938h-2.4479v-19.909h2.4479v1.5234q0.97656-0.82031 2.1875-1.3672 1.224-0.55989 2.6042-0.55989 2.6302 0 4.0885 1.9922 1.4714 1.9792 1.4714 5.5078zm-2.526 0.0651q0-2.6302-0.89844-3.9323-0.89844-1.3021-2.7604-1.3021-1.0547 0-2.1224 0.45573-1.0677 0.45573-2.0443 1.1979v8.2422q1.0417 0.46875 1.7839 0.63802 0.75521 0.16927 1.7057 0.16927 2.0443 0 3.1901-1.3802t1.1458-4.0886z" style="shape-inside:url(#rect3842);white-space:pre"/>
    <path d="m24.457 450.54h-2.4479v-20.26h2.4479z" style="shape-inside:url(#rect3842);white-space:pre"/>
    <path d="m41.501 443.53h-10.716q0 1.3412 0.40365 2.3438 0.40365 0.98958 1.1068 1.6276 0.67708 0.625 1.6016 0.93751 0.9375 0.3125 2.0573 0.3125 1.4844 0 2.9818-0.58594 1.5104-0.59896 2.1484-1.1719h0.13021v2.6693q-1.237 0.52083-2.526 0.87239-1.2891 0.35157-2.7083 0.35157-3.6198 0-5.651-1.9531-2.0313-1.9662-2.0313-5.5729 0-3.5677 1.9401-5.6641 1.9531-2.0964 5.1302-2.0964 2.9427 0 4.5313 1.7188 1.6016 1.7188 1.6016 4.8828zm-2.3828-1.875q-0.01302-1.9271-0.97656-2.9818-0.95052-1.0547-2.9036-1.0547-1.9661 0-3.138 1.1588-1.1589 1.1589-1.3151 2.8776z" style="shape-inside:url(#rect3842);white-space:pre"/>
    <path d="m66.436 450.54h-2.4479v-8.2813q0-0.9375-0.09115-1.8099-0.07813-0.87239-0.35156-1.3932-0.29948-0.55989-0.85938-0.84635-0.5599-0.28646-1.6146-0.28646-1.0286 0-2.0573 0.52083-1.0286 0.50782-2.0573 1.3021 0.03906 0.29948 0.0651 0.70312 0.02604 0.39063 0.02604 0.78126v9.3099h-2.4479v-8.2813q0-0.96354-0.09115-1.8229-0.07813-0.87239-0.35156-1.3932-0.29948-0.55989-0.85938-0.83333-0.5599-0.28646-1.6146-0.28646-1.0026 0-2.0182 0.49479-1.0026 0.49479-2.0052 1.263v10.859h-2.4479v-14.544h2.4479v1.6146q1.1458-0.95052 2.2786-1.4844 1.1458-0.53385 2.4349-0.53385 1.4844 0 2.513 0.625 1.0417 0.625 1.5495 1.7318 1.4844-1.25 2.7083-1.7969 1.224-0.55989 2.6172-0.55989 2.3958 0 3.5287 1.4583 1.1458 1.4453 1.1458 4.0495z" style="shape-inside:url(#rect3842);white-space:pre"/>
    <path d="m83.324 443.53h-10.716q0 1.3412 0.40365 2.3438 0.40365 0.98958 1.1068 1.6276 0.67708 0.625 1.6016 0.93751 0.9375 0.3125 2.0573 0.3125 1.4844 0 2.9818-0.58594 1.5104-0.59896 2.1484-1.1719h0.13021v2.6693q-1.237 0.52083-2.526 0.87239-1.2891 0.35157-2.7083 0.35157-3.6198 0-5.651-1.9531-2.0313-1.9662-2.0313-5.5729 0-3.5677 1.9401-5.6641 1.9531-2.0964 5.1302-2.0964 2.9427 0 4.5313 1.7188 1.6016 1.7188 1.6016 4.8828zm-2.3828-1.875q-0.01302-1.9271-0.97656-2.9818-0.95052-1.0547-2.9036-1.0547-1.9661 0-3.138 1.1588-1.1589 1.1589-1.3151 2.8776z" style="shape-inside:url(#rect3842);white-space:pre"/>
    <path d="m99.197 450.54h-2.4479v-8.2813q0-1.0026-0.11719-1.875-0.11719-0.88542-0.42969-1.3802-0.32552-0.54688-0.9375-0.80729-0.61198-0.27344-1.5885-0.27344-1.0026 0-2.0964 0.49479t-2.0964 1.263v10.859h-2.4479v-14.544h2.4479v1.6146q1.1458-0.95052 2.3698-1.4844 1.224-0.53385 2.513-0.53385 2.3568 0 3.5938 1.4193 1.237 1.4193 1.237 4.0886z" style="shape-inside:url(#rect3842);white-space:pre"/>
    <path d="m111.46 450.41q-0.69011 0.1823-1.5104 0.29948-0.8073 0.11719-1.4453 0.11719-2.2266 0-3.3854-1.1979-1.1588-1.1979-1.1588-3.8412v-7.7344h-1.6536v-2.0573h1.6536v-4.1797h2.4479v4.1797h5.0521v2.0573h-5.0521v6.6276q0 1.1458 0.0521 1.7969 0.0521 0.63802 0.36458 1.1979 0.28646 0.52083 0.78125 0.76823 0.50782 0.23437 1.5365 0.23437 0.59896 0 1.25-0.16927 0.65104-0.18229 0.9375-0.29948h0.13021z" style="shape-inside:url(#rect3842);white-space:pre"/>
   </g>
   <path d="m34.311 25.967h57.223v26.157h-57.223z" fill="none" stroke="#000" stroke-width=".728"/>
  </g>
  <g transform="translate(0 -.19046)">
   <path d="m99.83 26.348h57.223v26.157h-57.223z" fill="none" stroke="#000" stroke-width=".728"/>
   <g transform="matrix(.26458 0 0 .26458 33.628 6.413)" style="shape-inside:url(#rect34076);white-space:pre" aria-label="perfective">
    <path d="m311.87 122.69q0 1.5938-0.45703 2.918-0.45704 1.3125-1.2891 2.2266-0.77343 0.86719-1.8281 1.3477-1.043 0.46875-2.2148 0.46875-1.0195 0-1.8516-0.22266-0.82031-0.22266-1.6758-0.69141v5.4844h-2.2031v-17.918h2.2031v1.3711q0.87891-0.73828 1.9688-1.2305 1.1016-0.50391 2.3438-0.50391 2.3672 0 3.6797 1.793 1.3242 1.7812 1.3242 4.957zm-2.2734 0.0586q0-2.3672-0.80859-3.5391-0.8086-1.1719-2.4844-1.1719-0.94922 0-1.9102 0.41015-0.96093 0.41016-1.8398 1.0781v7.418q0.9375 0.42187 1.6055 0.57421 0.67969 0.15235 1.5352 0.15235 1.8398 0 2.8711-1.2422t1.0312-3.6797z"/>
    <path d="m326.26 123.08h-9.6445q0 1.207 0.36328 2.1094 0.36328 0.89063 0.9961 1.4648 0.60937 0.5625 1.4414 0.84375 0.84375 0.28125 1.8516 0.28125 1.3359 0 2.6836-0.52735 1.3594-0.53906 1.9336-1.0547h0.11719v2.4023q-1.1133 0.46875-2.2734 0.78516-1.1602 0.3164-2.4375 0.3164-3.2578 0-5.0859-1.7578-1.8281-1.7695-1.8281-5.0156 0-3.2109 1.7461-5.0976 1.7578-1.8867 4.6172-1.8867 2.6484 0 4.0781 1.5469 1.4414 1.5469 1.4414 4.3945zm-2.1445-1.6875q-0.0117-1.7344-0.87891-2.6836-0.85546-0.94921-2.6133-0.94921-1.7695 0-2.8242 1.043-1.043 1.043-1.1836 2.5898z"/>
    <path d="m337.77 118.71h-0.11718q-0.49219-0.11718-0.96094-0.16406-0.45703-0.0586-1.0898-0.0586-1.0195 0-1.9688 0.45703-0.94922 0.44531-1.8281 1.1602v9.293h-2.2031v-13.09h2.2031v1.9336q1.3125-1.0547 2.3086-1.4883 1.0078-0.44531 2.0508-0.44531 0.57421 0 0.83203 0.0352 0.25781 0.0234 0.77343 0.10547z"/>
    <path d="m346.91 113.29h-0.11719q-0.36328-0.10547-0.94922-0.21094-0.58593-0.11718-1.0312-0.11718-1.418 0-2.0625 0.63281-0.63281 0.62109-0.63281 2.2617v0.44531h3.9727v1.8516h-3.9024v11.238h-2.2031v-11.238h-1.4883v-1.8516h1.4883v-0.43359q0-2.332 1.1602-3.5742 1.1602-1.2539 3.3516-1.2539 0.73828 0 1.3242 0.0703 0.59765 0.0703 1.0898 0.16407z"/>
    <path d="m359.26 123.08h-9.6445q0 1.207 0.36328 2.1094 0.36328 0.89063 0.9961 1.4648 0.60937 0.5625 1.4414 0.84375 0.84375 0.28125 1.8516 0.28125 1.3359 0 2.6836-0.52735 1.3594-0.53906 1.9336-1.0547h0.11719v2.4023q-1.1133 0.46875-2.2734 0.78516-1.1602 0.3164-2.4375 0.3164-3.2578 0-5.0859-1.7578-1.8281-1.7695-1.8281-5.0156 0-3.2109 1.7461-5.0976 1.7578-1.8867 4.6172-1.8867 2.6484 0 4.0781 1.5469 1.4414 1.5469 1.4414 4.3945zm-2.1445-1.6875q-0.0117-1.7344-0.87891-2.6836-0.85546-0.94921-2.6133-0.94921-1.7695 0-2.8242 1.043-1.043 1.043-1.1836 2.5898z"/>
    <path d="m372.28 128.57q-1.1016 0.52735-2.0976 0.82031-0.98438 0.29297-2.0977 0.29297-1.418 0-2.6016-0.41015-1.1836-0.42188-2.0274-1.2656-0.85546-0.84375-1.3242-2.1328t-0.46875-3.0117q0-3.2109 1.7578-5.0391 1.7695-1.8281 4.6641-1.8281 1.125 0 2.2031 0.31641 1.0898 0.31641 1.9922 0.77344v2.4492h-0.11718q-1.0078-0.78516-2.0859-1.207-1.0664-0.42187-2.0859-0.42187-1.875 0-2.9648 1.2656-1.0781 1.2539-1.0781 3.6914 0 2.3672 1.0547 3.6445 1.0664 1.2656 2.9883 1.2656 0.66797 0 1.3594-0.17578 0.6914-0.17579 1.2422-0.45704 0.48047-0.24609 0.90235-0.51562 0.42187-0.28125 0.66797-0.48047h0.11718z"/>
    <path d="m381.91 129.28q-0.6211 0.16406-1.3594 0.26953-0.72656 0.10547-1.3008 0.10547-2.0039 0-3.0469-1.0781-1.043-1.0781-1.043-3.457v-6.9609h-1.4883v-1.8516h1.4883v-3.7617h2.2031v3.7617h4.5469v1.8516h-4.5469v5.9648q0 1.0312 0.0469 1.6172 0.0469 0.57422 0.32812 1.0781 0.25781 0.46875 0.70313 0.69141 0.45703 0.21093 1.3828 0.21093 0.53906 0 1.125-0.15234 0.58594-0.16406 0.84375-0.26953h0.11719z"/>
    <path d="m386.95 114.11h-2.4844v-2.2852h2.4844zm-0.14063 15.281h-2.2031v-13.09h2.2031z"/>
    <path d="m402.51 116.3-5.2969 13.09h-2.2148l-5.2617-13.09h2.3906l4.0547 10.418 4.0195-10.418z"/>
    <path d="m416.35 123.08h-9.6445q0 1.207 0.36328 2.1094 0.36328 0.89063 0.9961 1.4648 0.60937 0.5625 1.4414 0.84375 0.84375 0.28125 1.8516 0.28125 1.3359 0 2.6836-0.52735 1.3594-0.53906 1.9336-1.0547h0.11719v2.4023q-1.1133 0.46875-2.2734 0.78516-1.1602 0.3164-2.4375 0.3164-3.2578 0-5.0859-1.7578-1.8281-1.7695-1.8281-5.0156 0-3.2109 1.7461-5.0976 1.7578-1.8867 4.6172-1.8867 2.6484 0 4.0781 1.5469 1.4414 1.5469 1.4414 4.3945zm-2.1445-1.6875q-0.0117-1.7344-0.87891-2.6836-0.85546-0.94921-2.6133-0.94921-1.7695 0-2.8242 1.043-1.043 1.043-1.1836 2.5898z"/>
   </g>
  </g>
  <g transform="matrix(.26458 0 0 .26458 30.511 20.677)" style="shape-inside:url(#rect3107);white-space:pre" aria-label="perfective head ">
   <path d="m60.556 137.94q0 1.2396-0.35547 2.2695-0.35547 1.0208-1.0026 1.7318-0.60156 0.67448-1.4219 1.0482-0.8112 0.36459-1.7227 0.36459-0.79297 0-1.4401-0.17318-0.63802-0.17318-1.3034-0.53776v4.2656h-1.7135v-13.936h1.7135v1.0664q0.6836-0.57422 1.5313-0.95704 0.85677-0.39192 1.8229-0.39192 1.8411 0 2.862 1.3945 1.03 1.3854 1.03 3.8555zm-1.7682 0.0456q0-1.8412-0.62891-2.7526t-1.9323-0.91146q-0.73828 0-1.4857 0.31901t-1.431 0.83854v5.7696q0.72917 0.32812 1.2487 0.44661 0.52865 0.11849 1.194 0.11849 1.431 0 2.2331-0.96615 0.80208-0.96614 0.80208-2.862z"/>
   <path d="m71.749 138.24h-7.5013q0 0.9388 0.28255 1.6406 0.28255 0.69271 0.77474 1.1393 0.47396 0.4375 1.1211 0.65625 0.65625 0.21875 1.4401 0.21875 1.0391 0 2.0872-0.41015 1.0573-0.41928 1.5039-0.82032h0.09115v1.8685q-0.86589 0.36459-1.7682 0.61068-0.90234 0.2461-1.8958 0.2461-2.5339 0-3.9557-1.3672-1.4219-1.3763-1.4219-3.901 0-2.4974 1.3581-3.9648 1.3672-1.4674 3.5912-1.4674 2.0599 0 3.1719 1.2031 1.1211 1.2031 1.1211 3.418zm-1.668-1.3125q-0.0091-1.349-0.6836-2.0872-0.66537-0.73828-2.0326-0.73828-1.3763 0-2.1966 0.8112-0.8112 0.8112-0.92058 2.0143z"/>
   <path d="m80.699 134.84h-0.09115q-0.38281-0.0911-0.7474-0.1276-0.35547-0.0456-0.84766-0.0456-0.79297 0-1.5313 0.35547-0.73828 0.34636-1.4219 0.90235v7.2279h-1.7135v-10.181h1.7135v1.5039q1.0208-0.82032 1.7956-1.1576 0.78386-0.34635 1.5951-0.34635 0.44662 0 0.64714 0.0273 0.20052 0.0182 0.60156 0.082z"/>
   <path d="m87.809 130.63h-0.09115q-0.28255-0.082-0.73828-0.16407-0.45573-0.0911-0.80208-0.0911-1.1029 0-1.6042 0.49219-0.49219 0.48307-0.49219 1.7591v0.34636h3.0898v1.4401h-3.0352v8.7409h-1.7135v-8.7409h-1.1576v-1.4401h1.1576v-0.33724q0-1.8138 0.90234-2.78 0.90234-0.97527 2.6068-0.97527 0.57422 0 1.03 0.0547 0.46484 0.0547 0.84766 0.12761z"/>
   <path d="m97.415 138.24h-7.5013q0 0.9388 0.28255 1.6406 0.28255 0.69271 0.77474 1.1393 0.47396 0.4375 1.1211 0.65625 0.65625 0.21875 1.4401 0.21875 1.0391 0 2.0872-0.41015 1.0573-0.41928 1.5039-0.82032h0.09115v1.8685q-0.86589 0.36459-1.7682 0.61068-0.90234 0.2461-1.8958 0.2461-2.5339 0-3.9557-1.3672-1.4219-1.3763-1.4219-3.901 0-2.4974 1.3581-3.9648 1.3672-1.4674 3.5912-1.4674 2.0599 0 3.1719 1.2031 1.1211 1.2031 1.1211 3.418zm-1.668-1.3125q-0.0091-1.349-0.6836-2.0872-0.66537-0.73828-2.0326-0.73828-1.3763 0-2.1966 0.8112-0.8112 0.8112-0.92058 2.0143z"/>
   <path d="m107.54 142.51q-0.85677 0.41016-1.6315 0.63803-0.76563 0.22786-1.6315 0.22786-1.1029 0-2.0234-0.31901-0.92057-0.32812-1.5768-0.98438-0.66537-0.65625-1.03-1.6588-0.36458-1.0026-0.36458-2.3425 0-2.4974 1.3672-3.9193 1.3763-1.4219 3.6276-1.4219 0.875 0 1.7135 0.24609 0.84766 0.2461 1.5495 0.60157v1.905h-0.0911q-0.78386-0.61068-1.6224-0.93881-0.82943-0.32812-1.6224-0.32812-1.4583 0-2.306 0.98438-0.83855 0.97526-0.83855 2.8711 0 1.8412 0.82032 2.8346 0.82942 0.98437 2.3242 0.98437 0.51953 0 1.0573-0.13672t0.96615-0.35547q0.3737-0.1914 0.70182-0.40104 0.32813-0.21875 0.51954-0.3737h0.0911z"/>
   <path d="m115.03 143.06q-0.48307 0.12761-1.0573 0.20964-0.56511 0.082-1.0117 0.082-1.5586 0-2.3698-0.83855-0.8112-0.83854-0.8112-2.6888v-5.4141h-1.1576v-1.4401h1.1576v-2.9258h1.7136v2.9258h3.5365v1.4401h-3.5365v4.6393q0 0.80208 0.0364 1.2578 0.0365 0.44662 0.25521 0.83855 0.20052 0.36458 0.54688 0.53776 0.35547 0.16406 1.0755 0.16406 0.41927 0 0.875-0.11849 0.45573-0.1276 0.65626-0.20964h0.0911z"/>
   <path d="m118.95 131.27h-1.9323v-1.7774h1.9323zm-0.10937 11.885h-1.7136v-10.181h1.7136z"/>
   <path d="m131.06 132.97-4.1198 10.181h-1.7227l-4.0924-10.181h1.8594l3.1537 8.1029 3.1263-8.1029z"/>
   <path d="m141.82 138.24h-7.5013q0 0.9388 0.28255 1.6406 0.28256 0.69271 0.77475 1.1393 0.47396 0.4375 1.1211 0.65625 0.65625 0.21875 1.4401 0.21875 1.0391 0 2.0872-0.41015 1.0573-0.41928 1.5039-0.82032h0.0911v1.8685q-0.86589 0.36459-1.7682 0.61068-0.90234 0.2461-1.8958 0.2461-2.5339 0-3.9557-1.3672-1.4219-1.3763-1.4219-3.901 0-2.4974 1.3581-3.9648 1.3672-1.4674 3.5912-1.4674 2.0599 0 3.1719 1.2031 1.1211 1.2031 1.1211 3.418zm-1.668-1.3125q-9e-3 -1.349-0.6836-2.0872-0.66536-0.73828-2.0326-0.73828-1.3763 0-2.1966 0.8112-0.8112 0.8112-0.92058 2.0143z"/>
   <path d="m159.49 143.15h-1.7135v-5.7969q0-0.70182-0.082-1.3125-0.082-0.61979-0.30078-0.96615-0.22786-0.38281-0.65625-0.5651-0.42838-0.19141-1.112-0.19141-0.70182 0-1.4674 0.34635-0.76563 0.34636-1.4674 0.88412v7.6016h-1.7136v-14.182h1.7136v5.1315q0.80208-0.66537 1.6589-1.0391 0.85677-0.3737 1.7591-0.3737 1.6498 0 2.5156 0.99349 0.86589 0.99349 0.86589 2.862z"/>
   <path d="m171.32 138.24h-7.5013q0 0.9388 0.28256 1.6406 0.28255 0.69271 0.77474 1.1393 0.47396 0.4375 1.1211 0.65625 0.65625 0.21875 1.4401 0.21875 1.0391 0 2.0872-0.41015 1.0573-0.41928 1.5039-0.82032h0.0911v1.8685q-0.86589 0.36459-1.7682 0.61068-0.90234 0.2461-1.8958 0.2461-2.5339 0-3.9557-1.3672-1.4219-1.3763-1.4219-3.901 0-2.4974 1.3581-3.9648 1.3672-1.4674 3.5912-1.4674 2.0599 0 3.1719 1.2031 1.1211 1.2031 1.1211 3.418zm-1.668-1.3125q-9e-3 -1.349-0.6836-2.0872-0.66536-0.73828-2.0326-0.73828-1.3763 0-2.1966 0.8112-0.8112 0.8112-0.92058 2.0143z"/>
   <path d="m181.83 143.15h-1.7044v-1.0846q-0.22786 0.15495-0.61979 0.4375-0.38281 0.27344-0.7474 0.4375-0.42838 0.20964-0.98437 0.34636-0.556 0.14583-1.3034 0.14583-1.3763 0-2.3333-0.91146t-0.95703-2.3242q0-1.1576 0.49219-1.8685 0.5013-0.72005 1.4219-1.1302 0.92969-0.41015 2.2331-0.55599 1.3034-0.14583 2.7982-0.21875v-0.26432q0-0.58334-0.20963-0.96615-0.20053-0.38281-0.58334-0.60156-0.36458-0.20964-0.875-0.28255-0.51042-0.0729-1.0664-0.0729-0.67448 0-1.5039 0.18229-0.82943 0.17318-1.7135 0.51042h-0.0911v-1.7409q0.50131-0.13672 1.4492-0.30078 0.94792-0.16407 1.8685-0.16407 1.0755 0 1.8685 0.1823 0.80208 0.17317 1.3854 0.60156 0.57422 0.41927 0.875 1.0846 0.30078 0.66536 0.30078 1.6497zm-1.7044-2.5065v-2.8346q-0.78385 0.0456-1.8503 0.13672-1.0573 0.0911-1.6771 0.26432-0.73828 0.20964-1.194 0.65626-0.45573 0.4375-0.45573 1.2122 0 0.875 0.52865 1.3216 0.52864 0.4375 1.6133 0.4375 0.90235 0 1.6497-0.34635 0.7474-0.35547 1.3854-0.84766z"/>
   <path d="m193.4 143.15h-1.7135v-1.0664q-0.73828 0.63802-1.5404 0.99349-0.80208 0.35547-1.7409 0.35547-1.8229 0-2.8984-1.4036-1.0664-1.4036-1.0664-3.8919 0-1.2943 0.36459-2.306 0.37369-1.0117 1.0026-1.7227 0.61979-0.69271 1.4401-1.0573 0.82943-0.36458 1.7135-0.36458 0.80209 0 1.4219 0.17317 0.61979 0.16407 1.3034 0.51954v-4.4115h1.7135zm-1.7135-2.5065v-5.8425q-0.69271-0.30989-1.2396-0.42838-0.54687-0.11849-1.194-0.11849-1.4401 0-2.2422 1.0026-0.80209 1.0026-0.80209 2.8438 0 1.8138 0.6198 2.7617 0.61979 0.93881 1.987 0.93881 0.72917 0 1.4766-0.31901 0.74739-0.32813 1.3945-0.83855z"/>
  </g>
  <g transform="matrix(.26458 0 0 .26458 109.77 22.031)" style="shape-inside:url(#rect3107-7);white-space:pre" aria-label="verb ">
   <path d="m60.401 128.11-4.1198 10.181h-1.7227l-4.0925-10.181h1.8594l3.1537 8.1029 3.1263-8.1029z"/>
   <path d="m71.165 133.37h-7.5013q0 0.9388 0.28255 1.6406 0.28255 0.69271 0.77474 1.1393 0.47396 0.4375 1.1211 0.65625 0.65625 0.21875 1.4401 0.21875 1.0391 0 2.0872-0.41016 1.0573-0.41927 1.5039-0.82031h0.09115v1.8685q-0.86589 0.36459-1.7682 0.61068-0.90234 0.2461-1.8958 0.2461-2.5339 0-3.9557-1.3672-1.4219-1.3763-1.4219-3.901 0-2.4974 1.3581-3.9648 1.3672-1.4674 3.5912-1.4674 2.0599 0 3.1719 1.2031 1.1211 1.2031 1.1211 3.418zm-1.668-1.3125q-0.0091-1.349-0.6836-2.0872-0.66536-0.73828-2.0326-0.73828-1.3763 0-2.1966 0.8112-0.8112 0.8112-0.92058 2.0143z"/>
   <path d="m80.116 129.97h-0.09115q-0.38281-0.0911-0.7474-0.1276-0.35547-0.0456-0.84766-0.0456-0.79297 0-1.5313 0.35547-0.73828 0.34636-1.4219 0.90235v7.2279h-1.7135v-10.181h1.7135v1.5039q1.0208-0.82032 1.7956-1.1576 0.78386-0.34635 1.5951-0.34635 0.44662 0 0.64714 0.0273 0.20052 0.0182 0.60156 0.082z"/>
   <path d="m90.707 133.12q0 1.276-0.36458 2.2969-0.35547 1.0208-0.96615 1.7135-0.64714 0.72006-1.4219 1.0846-0.77474 0.35547-1.7044 0.35547-0.86589 0-1.513-0.20964-0.64714-0.20052-1.276-0.54687l-0.10938 0.47396h-1.6042v-14.182h1.7135v5.0677q0.72005-0.59245 1.5313-0.96615 0.8112-0.38281 1.8229-0.38281 1.8047 0 2.8438 1.3854 1.0482 1.3854 1.0482 3.9102zm-1.7682 0.0456q0-1.8229-0.60156-2.7617-0.60156-0.94792-1.9414-0.94792-0.7474 0-1.513 0.32812-0.76563 0.31902-1.4219 0.82943v5.8334q0.72917 0.32812 1.2487 0.45573 0.52865 0.1276 1.194 0.1276 1.4219 0 2.224-0.92969 0.8112-0.9388 0.8112-2.9349z"/>
  </g>
 </g>
</svg>
