<?xml version="1.0" encoding="UTF-8"?>
<svg width="193.48mm" height="61.82mm" version="1.1" viewBox="0 0 193.48 61.82" xmlns="http://www.w3.org/2000/svg" xmlns:cc="http://creativecommons.org/ns#" xmlns:dc="http://purl.org/dc/elements/1.1/" xmlns:rdf="http://www.w3.org/1999/02/22-rdf-syntax-ns#">
 <metadata>
  <rdf:RDF>
   <cc:Work rdf:about="">
    <dc:format>image/svg+xml</dc:format>
    <dc:type rdf:resource="http://purl.org/dc/dcmitype/StillImage"/>
   </cc:Work>
  </rdf:RDF>
 </metadata>
 <g transform="translate(.92597 -39.667)">
  <g>
   <g transform="translate(114.04 .80182)" fill="#fff" stroke="#333">
    <path d="m24.079 83.655a5.0232 5.0232 0 0 1-5.0232 5.0232 5.0232 5.0232 0 0 1-5.0232-5.0232 5.0232 5.0232 0 0 1 5.0232-5.0232 5.0232 5.0232 0 0 1 5.0232 5.0232" stroke-width=".51438"/>
    <path d="m22.406 83.655a3.3501 3.3501 0 0 1-3.3501 3.3501 3.3501 3.3501 0 0 1-3.3501-3.3501 3.3501 3.3501 0 0 1 3.3501-3.3501 3.3501 3.3501 0 0 1 3.3501 3.3501" stroke-width=".3577"/>
   </g>
   <g transform="translate(130.08 .80182)" fill="#fff" stroke="#333">
    <path d="m24.079 83.655a5.0232 5.0232 0 0 1-5.0232 5.0232 5.0232 5.0232 0 0 1-5.0232-5.0232 5.0232 5.0232 0 0 1 5.0232-5.0232 5.0232 5.0232 0 0 1 5.0232 5.0232" stroke-width=".51438"/>
    <path d="m22.406 83.655a3.3501 3.3501 0 0 1-3.3501 3.3501 3.3501 3.3501 0 0 1-3.3501-3.3501 3.3501 3.3501 0 0 1 3.3501-3.3501 3.3501 3.3501 0 0 1 3.3501 3.3501" stroke-width=".3577"/>
   </g>
   <g transform="translate(145.85 .80182)" fill="#fff" stroke="#333">
    <path d="m24.079 83.655a5.0232 5.0232 0 0 1-5.0232 5.0232 5.0232 5.0232 0 0 1-5.0232-5.0232 5.0232 5.0232 0 0 1 5.0232-5.0232 5.0232 5.0232 0 0 1 5.0232 5.0232" stroke-width=".51438"/>
    <path d="m22.406 83.655a3.3501 3.3501 0 0 1-3.3501 3.3501 3.3501 3.3501 0 0 1-3.3501-3.3501 3.3501 3.3501 0 0 1 3.3501-3.3501 3.3501 3.3501 0 0 1 3.3501 3.3501" stroke-width=".3577"/>
   </g>
   <g transform="translate(-9.7013 .80182)" fill="#fff" stroke="#333">
    <path d="m24.079 83.655a5.0232 5.0232 0 0 1-5.0232 5.0232 5.0232 5.0232 0 0 1-5.0232-5.0232 5.0232 5.0232 0 0 1 5.0232-5.0232 5.0232 5.0232 0 0 1 5.0232 5.0232" stroke-width=".51438"/>
    <path d="m22.406 83.655a3.3501 3.3501 0 0 1-3.3501 3.3501 3.3501 3.3501 0 0 1-3.3501-3.3501 3.3501 3.3501 0 0 1 3.3501-3.3501 3.3501 3.3501 0 0 1 3.3501 3.3501" stroke-width=".3577"/>
   </g>
   <g transform="translate(6.3349 .80182)" fill="#fff" stroke="#333">
    <path d="m24.079 83.655a5.0232 5.0232 0 0 1-5.0232 5.0232 5.0232 5.0232 0 0 1-5.0232-5.0232 5.0232 5.0232 0 0 1 5.0232-5.0232 5.0232 5.0232 0 0 1 5.0232 5.0232" stroke-width=".51438"/>
    <path d="m22.406 83.655a3.3501 3.3501 0 0 1-3.3501 3.3501 3.3501 3.3501 0 0 1-3.3501-3.3501 3.3501 3.3501 0 0 1 3.3501-3.3501 3.3501 3.3501 0 0 1 3.3501 3.3501" stroke-width=".3577"/>
   </g>
   <g transform="translate(22.104 .80182)" fill="#fff" stroke="#333">
    <path d="m24.079 83.655a5.0232 5.0232 0 0 1-5.0232 5.0232 5.0232 5.0232 0 0 1-5.0232-5.0232 5.0232 5.0232 0 0 1 5.0232-5.0232 5.0232 5.0232 0 0 1 5.0232 5.0232" stroke-width=".51438"/>
    <path d="m22.406 83.655a3.3501 3.3501 0 0 1-3.3501 3.3501 3.3501 3.3501 0 0 1-3.3501-3.3501 3.3501 3.3501 0 0 1 3.3501-3.3501 3.3501 3.3501 0 0 1 3.3501 3.3501" stroke-width=".3577"/>
   </g>
   <g transform="translate(39.476 .80182)" fill="#fff" stroke="#333">
    <path d="m24.079 83.655a5.0232 5.0232 0 0 1-5.0232 5.0232 5.0232 5.0232 0 0 1-5.0232-5.0232 5.0232 5.0232 0 0 1 5.0232-5.0232 5.0232 5.0232 0 0 1 5.0232 5.0232" stroke-width=".51438"/>
    <path d="m22.406 83.655a3.3501 3.3501 0 0 1-3.3501 3.3501 3.3501 3.3501 0 0 1-3.3501-3.3501 3.3501 3.3501 0 0 1 3.3501-3.3501 3.3501 3.3501 0 0 1 3.3501 3.3501" stroke-width=".3577"/>
   </g>
   <path d="m9.3549 79.281h172.92" fill="none" stroke="#000" stroke-width=".465"/>
   <path d="m8.9769 89.769h172.92" fill="none" stroke="#000" stroke-width=".465"/>
  </g>
  <text fill="#000000" font-family="sans-serif" font-size="10.583px" style="line-height:1.25;shape-inside:url(#rect835);white-space:pre" xml:space="preserve"/>
  <path d="m55.94 53.404h78.983v37.677h-78.983z" fill="#fff" stroke="#000" stroke-width=".8132"/>
  <g transform="matrix(1.5178 0 0 1.5178 -13.265 -22.158)" style="shape-inside:url(#rect894);white-space:pre" aria-label="subject">
   <path d="m22.732 58.125v0.47956q-0.21497-0.11024-0.44648-0.16536-0.23151-0.05512-0.47956-0.05512-0.37758 0-0.56775 0.11576-0.18741 0.11576-0.18741 0.34726 0 0.17639 0.13505 0.27836 0.13505 0.09922 0.54295 0.19017l0.17363 0.03858q0.54019 0.11576 0.76619 0.32797 0.22875 0.20946 0.22875 0.58704 0 0.42995-0.34175 0.68075-0.339 0.2508-0.93431 0.2508-0.24805 0-0.51814-0.04961-0.26734-0.04685-0.565-0.14332v-0.52365q0.28112 0.14607 0.55397 0.22049 0.27285 0.07166 0.54019 0.07166 0.35829 0 0.55122-0.12127 0.19292-0.12402 0.19292-0.34726 0-0.20671-0.14056-0.31695-0.1378-0.11024-0.60909-0.21222l-0.17639-0.04134q-0.47129-0.09922-0.68075-0.30317-0.20946-0.2067-0.20946-0.565 0-0.43546 0.30868-0.67248 0.30868-0.23702 0.87643-0.23702 0.28112 0 0.52917 0.04134t0.45751 0.12402z"/>
   <path d="m23.656 59.903v-1.8686h0.50712v1.8493q0 0.43822 0.17088 0.6587 0.17088 0.21773 0.51263 0.21773 0.41066 0 0.64768-0.26183 0.23978-0.26183 0.23978-0.71382v-1.7501h0.50712v3.0868h-0.50712v-0.47404q-0.18466 0.28112-0.42995 0.41892-0.24254 0.13505-0.565 0.13505-0.53192 0-0.80753-0.33073-0.27561-0.33073-0.27561-0.96738z"/>
   <path d="m29.507 59.58q0-0.55948-0.23151-0.87643-0.22875-0.3197-0.63114-0.3197t-0.6339 0.3197q-0.22875 0.31695-0.22875 0.87643t0.22875 0.87919q0.23151 0.31695 0.6339 0.31695t0.63114-0.31695q0.23151-0.3197 0.23151-0.87919zm-1.7253-1.0776q0.15985-0.27561 0.40239-0.4079 0.24529-0.13505 0.58429-0.13505 0.56224 0 0.91226 0.44648 0.35278 0.44648 0.35278 1.1741 0 0.7276-0.35278 1.1741-0.35002 0.44648-0.91226 0.44648-0.339 0-0.58429-0.13229-0.24254-0.13505-0.40239-0.41066v0.46302h-0.50987v-4.2885h0.50987z"/>
   <path d="m30.874 58.034h0.50712v3.1419q0 0.5898-0.226 0.85438-0.22324 0.26458-0.72209 0.26458h-0.19292v-0.42995h0.13505q0.28939 0 0.39412-0.13505 0.10473-0.13229 0.10473-0.55397zm0-1.2016h0.50712v0.64216h-0.50712z"/>
   <path d="m35.08 59.451v0.24805h-2.3316q0.03307 0.52366 0.31419 0.79926 0.28388 0.27285 0.78824 0.27285 0.29214 0 0.565-0.07166 0.27561-0.07166 0.5457-0.21497v0.47956q-0.27285 0.11576-0.55948 0.17639-0.28663 0.06063-0.58153 0.06063-0.73863 0-1.1713-0.42995-0.42995-0.42995-0.42995-1.1631 0-0.75792 0.4079-1.2016 0.41066-0.44648 1.1052-0.44648 0.62287 0 0.98392 0.40239 0.3638 0.39963 0.3638 1.0886zm-0.50712-0.14883q-0.0055-0.41617-0.23427-0.66421-0.226-0.24805-0.60082-0.24805-0.42444 0-0.68075 0.23978-0.25356 0.23978-0.29214 0.67524z"/>
   <path d="m38.133 58.153v0.47404q-0.21497-0.11851-0.4327-0.17639-0.21497-0.06063-0.43546-0.06063-0.49334 0-0.76619 0.31419-0.27285 0.31144-0.27285 0.87643t0.27285 0.87919q0.27285 0.31144 0.76619 0.31144 0.22048 0 0.43546-0.05788 0.21773-0.06063 0.4327-0.17914v0.46853q-0.21222 0.09922-0.44097 0.14883-0.226 0.04961-0.48231 0.04961-0.69729 0-1.1079-0.43822t-0.41066-1.1824q0-0.75516 0.41341-1.1879 0.41617-0.4327 1.1383-0.4327 0.23427 0 0.45751 0.04961 0.22324 0.04685 0.4327 0.14332z"/>
   <path d="m39.522 57.158v0.87643h1.0446v0.39412h-1.0446v1.6757q0 0.37758 0.10198 0.48507 0.10473 0.10749 0.42168 0.10749h0.5209v0.42444h-0.5209q-0.58704 0-0.81029-0.21773-0.22324-0.22049-0.22324-0.79926v-1.6757h-0.37207v-0.39412h0.37207v-0.87643z"/>
  </g>
  <path d="m41.077 57.758 8.4271 0.45043 0.13075 2.7873 4.1469-4.4744-4.864-5.8969-0.19328 2.9819-7.5193 0.32709z" fill="#b3b3b3" stroke="#b3b3b3" stroke-width=".26458px"/>
  <g transform="translate(163.22 .80182)" fill="#fff" stroke="#333">
   <path d="m24.079 83.655a5.0232 5.0232 0 0 1-5.0232 5.0232 5.0232 5.0232 0 0 1-5.0232-5.0232 5.0232 5.0232 0 0 1 5.0232-5.0232 5.0232 5.0232 0 0 1 5.0232 5.0232" stroke-width=".51438"/>
   <path d="m22.406 83.655a3.3501 3.3501 0 0 1-3.3501 3.3501 3.3501 3.3501 0 0 1-3.3501-3.3501 3.3501 3.3501 0 0 1 3.3501-3.3501 3.3501 3.3501 0 0 1 3.3501 3.3501" stroke-width=".3577"/>
  </g>
  <path d="m136.5 57.143 8.4271 0.45043 0.13076 2.7873 4.1469-4.4744-4.864-5.8969-0.19328 2.9819-7.5193 0.32709z" fill="#b3b3b3" stroke="#b3b3b3" stroke-width=".26458px"/>
  <text fill="#000000" font-family="sans-serif" font-size="6.35px" style="line-height:1.25;shape-inside:url(#rect1025);white-space:pre" xml:space="preserve"/>
  <g>
   <g fill="#808080" stroke-width=".26458" aria-label="changed subject">
    <path d="m152.6 62.435v0.59256q-0.26872-0.14814-0.54088-0.22049-0.26872-0.07579-0.54432-0.07579-0.61668 0-0.95774 0.39274-0.34107 0.3893-0.34107 1.0955t0.34107 1.099q0.34106 0.3893 0.95774 0.3893 0.2756 0 0.54432-0.07235 0.27216-0.07579 0.54088-0.22393v0.58567q-0.26527 0.12402-0.55121 0.18604-0.2825 0.06201-0.6029 0.06201-0.87161 0-1.3849-0.54777-0.51332-0.54777-0.51332-1.4779 0-0.94396 0.51677-1.4848 0.52021-0.54088 1.4228-0.54088 0.29284 0 0.57189 0.06201 0.27905 0.05857 0.54088 0.17914z"/>
    <path d="m156.92 63.817v2.3289h-0.6339v-2.3082q0-0.54777-0.2136-0.81993-0.21359-0.27216-0.64078-0.27216-0.51332 0-0.8096 0.32728-0.29628 0.32728-0.29628 0.89228v2.1807h-0.63734v-5.3606h0.63734v2.1015q0.22738-0.34795 0.53399-0.52021 0.31006-0.17226 0.71314-0.17226 0.6649 0 1.006 0.41341 0.34107 0.40997 0.34107 1.2092z"/>
    <path d="m159.94 64.206q-0.76825 0-1.0645 0.1757t-0.29628 0.59945q0 0.33762 0.22049 0.53744 0.22393 0.19637 0.60633 0.19637 0.5271 0 0.84405-0.37207 0.3204-0.37552 0.3204-0.99563v-0.14125zm1.2644-0.26183v2.2014h-0.6339v-0.58567q-0.21704 0.3514-0.54088 0.52021-0.32384 0.16536-0.79237 0.16536-0.59256 0-0.94396-0.33073-0.34796-0.33417-0.34796-0.89228 0-0.65112 0.43409-0.98185 0.43752-0.33073 1.3022-0.33073h0.88884v-0.06201q0-0.43753-0.28939-0.67524-0.28594-0.24116-0.80615-0.24116-0.33073 0-0.64424 0.07924-0.3135 0.07924-0.60289 0.23771v-0.58567q0.34796-0.13436 0.67524-0.19982 0.32728-0.0689 0.63734-0.0689 0.83716 0 1.2506 0.43408 0.41342 0.43408 0.41342 1.316z"/>
    <path d="m165.72 63.817v2.3289h-0.6339v-2.3082q0-0.54777-0.2136-0.81993-0.21359-0.27216-0.64078-0.27216-0.51332 0-0.8096 0.32728-0.29628 0.32728-0.29628 0.89228v2.1807h-0.63734v-3.8585h0.63734v0.59945q0.22738-0.34795 0.53399-0.52021 0.31006-0.17226 0.71314-0.17226 0.6649 0 1.006 0.41341 0.34107 0.40997 0.34107 1.2092z"/>
    <path d="m169.53 64.172q0-0.68902-0.28595-1.068-0.28249-0.37896-0.79581-0.37896-0.50988 0-0.79582 0.37896-0.2825 0.37896-0.2825 1.068 0 0.68557 0.2825 1.0645 0.28594 0.37896 0.79582 0.37896 0.51332 0 0.79581-0.37896 0.28595-0.37896 0.28595-1.0645zm0.6339 1.4952q0 0.9853-0.43753 1.4642-0.43753 0.48231-1.3401 0.48231-0.33418 0-0.63046-0.05168-0.29628-0.04823-0.57533-0.15158v-0.61667q0.27905 0.15158 0.55122 0.22393 0.27216 0.07235 0.55466 0.07235 0.62356 0 0.93362-0.32728 0.31006-0.32384 0.31006-0.98185v-0.3135q-0.19637 0.34106-0.50299 0.50987-0.30661 0.16881-0.7338 0.16881-0.70969 0-1.1438-0.54088-0.43409-0.54088-0.43409-1.4332 0-0.89573 0.43409-1.4366 0.43408-0.54088 1.1438-0.54088 0.42719 0 0.7338 0.16881 0.30662 0.16881 0.50299 0.50987v-0.58567h0.6339z"/>
    <path d="m174.77 64.058v0.31006h-2.9146q0.0413 0.65457 0.39274 0.99908 0.35484 0.34106 0.9853 0.34106 0.36518 0 0.70624-0.08957 0.34451-0.08957 0.68213-0.26872v0.59945q-0.34106 0.14469-0.69935 0.22049-0.35829 0.07579-0.72692 0.07579-0.92329 0-1.4642-0.53744-0.53743-0.53744-0.53743-1.4538 0-0.9474 0.50987-1.5021 0.51332-0.55811 1.3815-0.55811 0.77859 0 1.2299 0.50298 0.45475 0.49954 0.45475 1.3608zm-0.6339-0.18604q-7e-3 -0.52021-0.29283-0.83027-0.2825-0.31006-0.75103-0.31006-0.53055 0-0.85094 0.29972-0.31695 0.29972-0.36518 0.84405z"/>
    <path d="m178.35 62.873v-2.0877h0.6339v5.3606h-0.6339v-0.57878q-0.19982 0.34451-0.50643 0.51332-0.30317 0.16536-0.73036 0.16536-0.69936 0-1.1403-0.55811-0.43753-0.55811-0.43753-1.4676t0.43753-1.4676q0.44097-0.55811 1.1403-0.55811 0.42719 0 0.73036 0.16881 0.30661 0.16536 0.50643 0.50987zm-2.1601 1.347q0 0.69936 0.28595 1.099 0.28938 0.39619 0.79237 0.39619 0.50298 0 0.79237-0.39619 0.28939-0.39963 0.28939-1.099t-0.28939-1.0955q-0.28939-0.39963-0.79237-0.39963-0.50299 0-0.79237 0.39963-0.28595 0.39619-0.28595 1.0955z"/>
    <path d="m154.72 70.338v0.59945q-0.26872-0.1378-0.5581-0.2067-0.28939-0.0689-0.59945-0.0689-0.47198 0-0.70969 0.14469-0.23427 0.14469-0.23427 0.43408 0 0.22049 0.16881 0.34796 0.16881 0.12402 0.67869 0.23771l0.21704 0.04823q0.67524 0.14469 0.95773 0.40997 0.28595 0.26183 0.28595 0.7338 0 0.53744-0.42719 0.85094-0.42375 0.3135-1.1679 0.3135-0.31006 0-0.64768-0.06201-0.33418-0.05857-0.70625-0.17914v-0.65457q0.3514 0.18259 0.69247 0.27561 0.34106 0.08957 0.67524 0.08957 0.44786 0 0.68902-0.15158 0.24115-0.15503 0.24115-0.43408 0-0.25838-0.1757-0.39619-0.17225-0.1378-0.76136-0.26527l-0.22049-0.05168q-0.58911-0.12402-0.85094-0.37896-0.26183-0.25838-0.26183-0.70624 0-0.54433 0.38586-0.8406 0.38585-0.29628 1.0955-0.29628 0.3514 0 0.66146 0.05168 0.31005 0.05168 0.57188 0.15503z"/>
    <path d="m155.88 72.561v-2.3358h0.6339v2.3117q0 0.54777 0.21359 0.82338 0.2136 0.27216 0.64079 0.27216 0.51332 0 0.8096-0.32728 0.29972-0.32728 0.29972-0.89228v-2.1876h0.6339v3.8585h-0.6339v-0.59256q-0.23082 0.3514-0.53743 0.52366-0.30317 0.16881-0.70625 0.16881-0.6649 0-1.0094-0.41341-0.34451-0.41341-0.34451-1.2092z"/>
    <path d="m163.19 72.158q0-0.69936-0.28939-1.0955-0.28594-0.39963-0.78892-0.39963-0.50299 0-0.79238 0.39963-0.28594 0.39619-0.28594 1.0955t0.28594 1.099q0.28939 0.39619 0.79238 0.39619 0.50298 0 0.78892-0.39619 0.28939-0.39963 0.28939-1.099zm-2.1566-1.347q0.19982-0.34451 0.50298-0.50988 0.30662-0.16881 0.73037-0.16881 0.7028 0 1.1403 0.5581 0.44098 0.55811 0.44098 1.4676t-0.44098 1.4676q-0.43752 0.5581-1.1403 0.5581-0.42375 0-0.73037-0.16536-0.30316-0.16881-0.50298-0.51332v0.57878h-0.63734v-5.3606h0.63734z"/>
    <path d="m164.9 70.225h0.6339v3.9274q0 0.73725-0.2825 1.068-0.27905 0.33073-0.90262 0.33073h-0.24115v-0.53744h0.16881q0.36173 0 0.49265-0.16881 0.13091-0.16536 0.13091-0.69246zm0-1.5021h0.6339v0.80271h-0.6339z"/>
    <path d="m170.16 71.996v0.31006h-2.9146q0.0413 0.65457 0.39274 0.99908 0.35484 0.34106 0.9853 0.34106 0.36518 0 0.70624-0.08957 0.34451-0.08957 0.68213-0.26872v0.59945q-0.34106 0.14469-0.69935 0.22049-0.35829 0.07579-0.72692 0.07579-0.92329 0-1.4642-0.53744-0.53743-0.53744-0.53743-1.4538 0-0.9474 0.50987-1.5021 0.51332-0.5581 1.3815-0.5581 0.77859 0 1.2299 0.50298 0.45475 0.49954 0.45475 1.3608zm-0.6339-0.18604q-7e-3 -0.52021-0.29283-0.83027-0.2825-0.31006-0.75103-0.31006-0.53055 0-0.85094 0.29972-0.31695 0.29972-0.36518 0.84405z"/>
    <path d="m173.97 70.373v0.59256q-0.26872-0.14814-0.54088-0.22049-0.26872-0.07579-0.54433-0.07579-0.61667 0-0.95773 0.39274-0.34107 0.3893-0.34107 1.0955t0.34107 1.099q0.34106 0.3893 0.95773 0.3893 0.27561 0 0.54433-0.07235 0.27216-0.07579 0.54088-0.22393v0.58567q-0.26527 0.12402-0.55122 0.18604-0.2825 0.06201-0.60289 0.06201-0.87161 0-1.3849-0.54777-0.51332-0.54777-0.51332-1.4779 0-0.94396 0.51677-1.4848 0.52021-0.54088 1.4228-0.54088 0.29283 0 0.57189 0.06201 0.27905 0.05857 0.54088 0.17914z"/>
    <path d="m175.71 69.129v1.0955h1.3057v0.49265h-1.3057v2.0946q0 0.47198 0.12747 0.60634 0.13091 0.13436 0.5271 0.13436h0.65112v0.53054h-0.65112q-0.73381 0-1.0129-0.27216-0.27906-0.27561-0.27906-0.99908v-2.0946h-0.46508v-0.49265h0.46508v-1.0955z"/>
   </g>
   <g transform="translate(68.755 44.858)" style="shape-inside:url(#rect1126);white-space:pre" aria-label="+">
    <path d="m34.687 24.561v2.3027h2.3027v0.7028h-2.3027v2.3027h-0.69453v-2.3027h-2.3027v-0.7028h2.3027v-2.3027z"/>
   </g>
   <g transform="matrix(.90923 0 0 .90923 14.094 5.1438)" style="shape-inside:url(#rect1855);white-space:pre" aria-label="کېدل">
    <path d="m123.7 69.461h-1.7053v-0.95084h1.602q0.76481 0 0.99735-0.53743 0.0827-0.18603 0.0827-0.37207 0-0.35657-0.27905-0.69763l-1.602-1.9637q-0.25838-0.31523-0.25838-0.7338 0-0.18087 0.0517-0.3514 0.1602-0.60978 0.69763-0.83199l3.8499-1.602v0.96118l-3.0747 1.2919q-0.3669 0.15503-0.47542 0.36173-0.031 0.05684-0.031 0.18603 0 0.16536 0.16019 0.35657l1.4211 1.7053q0.5271 0.63562 0.5271 1.2712 0 0.58394-0.3204 1.1059-0.49092 0.80098-1.6433 0.80098z"/>
    <path d="m120.44 69.017q-0.39791 0.44442-1.1834 0.44442h-0.46509v-0.95084h0.18087q0.5116 0 0.73897-0.22738 0.25321-0.25321 0.25321-0.80098v-1.1214h0.95085v1.1214q0 0.54777 0.25321 0.80098 0.22738 0.22738 0.73897 0.22738h0.28422v0.95084h-0.56844q-0.77514 0-1.1834-0.44442zm-0.38758 2.2531h0.77515v0.77514h-0.77515zm0-1.2919h0.77515v0.77514h-0.77515z"/>
    <path d="m116.16 66.49q-0.29455-0.63045-1.2351-1.4211h1.173q0.50126 0.40308 0.92501 1.111 0.41858 0.69246 0.41858 1.2971 0 0.37724 0.42891 0.80615 0.22737 0.22738 0.73897 0.22738h0.38757v0.95084h-0.67179q-0.75964 0-1.2609-0.67179-0.48059 0.66146-1.5503 0.83199-0.23771 0.03617-0.47025 0.03617-0.5271 0-1.0594-0.19637v-0.95084q0.59428 0.21704 1.0284 0.21704 0.17053 0 0.34623-0.04651 0.88883-0.25321 1.0697-0.83199 0.0413-0.13953 0.0413-0.35657 0-0.3514-0.31006-1.0025z"/>
    <path d="m111.03 69.084q0.40307-0.65112 0.40307-1.8242v-5.8394h0.95085v5.8394q0 1.6381-0.50643 2.3823-0.62528 0.91467-1.974 1.2557-0.69247 0.1757-1.1317 0.1757-0.49093 0-0.86817-0.11369-1.5089-0.47542-1.5141-1.8862-5e-3 -0.71313 0.32556-1.1886h0.95084q-0.33589 0.59428-0.33589 1.1886 0 0.67179 0.85782 0.99218 0.20671 0.08268 0.58395 0.08268 0.41341 0 0.97668-0.1757 0.89916-0.27388 1.2816-0.88883z"/>
   </g>
   <g transform="matrix(.87427 0 0 .87427 85.608 58.104)" style="shape-inside:url(#rect1861);white-space:pre" aria-label="to become">
    <path d="m37.368 16.66v0.98599h1.1751v0.44338h-1.1751v1.8852q0 0.42478 0.11472 0.5457 0.11782 0.12092 0.47439 0.12092h0.58601v0.47749h-0.58601q-0.66042 0-0.91157-0.24495-0.25115-0.24805-0.25115-0.89917v-1.8852h-0.41858v-0.44338h0.41858v-0.98599z"/>
    <path d="m40.642 18.046q-0.45889 0-0.72554 0.35967-0.26665 0.35657-0.26665 0.97978 0 0.62322 0.26355 0.98288 0.26665 0.35657 0.72864 0.35657 0.45579 0 0.72244-0.35967 0.26665-0.35967 0.26665-0.97978 0-0.61702-0.26665-0.97668-0.26665-0.36277-0.72244-0.36277zm0-0.48369q0.74414 0 1.1689 0.48369 0.42478 0.48369 0.42478 1.3395 0 0.85266-0.42478 1.3395-0.42478 0.48369-1.1689 0.48369-0.74724 0-1.172-0.48369-0.42168-0.48679-0.42168-1.3395 0-0.85576 0.42168-1.3395 0.42478-0.48369 1.172-0.48369z"/>
    <path d="m29.778 26.264q0-0.62942-0.26045-0.98599-0.25735-0.35967-0.71003-0.35967-0.45269 0-0.71314 0.35967-0.25735 0.35657-0.25735 0.98599t0.25735 0.98909q0.26045 0.35657 0.71314 0.35657 0.45268 0 0.71003-0.35657 0.26045-0.35967 0.26045-0.98909zm-1.941-1.2123q0.17983-0.31006 0.45268-0.45889 0.27595-0.15193 0.65732-0.15193 0.63252 0 1.0263 0.5023 0.39688 0.5023 0.39688 1.3208 0 0.81856-0.39688 1.3208-0.39377 0.5023-1.0263 0.5023-0.38137 0-0.65732-0.14883-0.27285-0.15193-0.45268-0.46199v0.5209h-0.57361v-4.8245h0.57361z"/>
    <path d="m34.286 26.119v0.27905h-2.6231q0.03721 0.58911 0.35347 0.89917 0.31936 0.30696 0.88677 0.30696 0.32866 0 0.63562-0.08061 0.31006-0.08062 0.61392-0.24184v0.5395q-0.30696 0.13022-0.62942 0.19844-0.32246 0.06821-0.65422 0.06821-0.83096 0-1.3177-0.48369-0.48369-0.48369-0.48369-1.3084 0-0.85266 0.45889-1.3519 0.46199-0.5023 1.2433-0.5023 0.70073 0 1.1069 0.45268 0.40928 0.44958 0.40928 1.2247zm-0.57051-0.16743q-0.0062-0.46819-0.26355-0.74724-0.25425-0.27905-0.67593-0.27905-0.47749 0-0.76584 0.26975-0.28525 0.26975-0.32866 0.75964z"/>
    <path d="m37.721 24.658v0.5333q-0.24184-0.13333-0.48679-0.19844-0.24184-0.06821-0.48989-0.06821-0.555 0-0.86196 0.35347-0.30696 0.35037-0.30696 0.98599t0.30696 0.98909q0.30696 0.35037 0.86196 0.35037 0.24805 0 0.48989-0.06511 0.24495-0.06821 0.48679-0.20154v0.5271q-0.23874 0.11162-0.49609 0.16743-0.25425 0.05581-0.5426 0.05581-0.78445 0-1.2464-0.49299-0.46199-0.49299-0.46199-1.3302 0-0.84956 0.46509-1.3364 0.46819-0.48679 1.2805-0.48679 0.26355 0 0.5147 0.05581 0.25115 0.05271 0.48679 0.16123z"/>
    <path d="m40.065 24.925q-0.45889 0-0.72554 0.35967-0.26665 0.35657-0.26665 0.97978 0 0.62322 0.26355 0.98289 0.26665 0.35657 0.72864 0.35657 0.45579 0 0.72244-0.35967 0.26665-0.35967 0.26665-0.97978 0-0.61702-0.26665-0.97668-0.26665-0.36277-0.72244-0.36277zm0-0.48369q0.74414 0 1.1689 0.48369 0.42478 0.48369 0.42478 1.3395 0 0.85266-0.42478 1.3395-0.42478 0.48369-1.1689 0.48369-0.74724 0-1.172-0.48369-0.42168-0.48679-0.42168-1.3395 0-0.85576 0.42168-1.3395 0.42478-0.48369 1.172-0.48369z"/>
    <path d="m45.305 25.192q0.21394-0.38447 0.5116-0.56741 0.29766-0.18293 0.70073-0.18293 0.5426 0 0.83716 0.38137 0.29456 0.37827 0.29456 1.079v2.096h-0.57361v-2.0774q0-0.49919-0.17673-0.74104-0.17673-0.24184-0.5395-0.24184-0.44338 0-0.70073 0.29456-0.25735 0.29456-0.25735 0.80305v1.9627h-0.57361v-2.0774q0-0.5023-0.17673-0.74104-0.17673-0.24184-0.5457-0.24184-0.43718 0-0.69453 0.29766-0.25735 0.29456-0.25735 0.79995v1.9627h-0.57361v-3.4727h0.57361v0.5395q0.19534-0.31936 0.46819-0.47129 0.27285-0.15193 0.64802-0.15193 0.37827 0 0.64182 0.19224 0.26665 0.19224 0.39378 0.55811z"/>
    <path d="m51.761 26.119v0.27905h-2.6231q0.03721 0.58911 0.35347 0.89917 0.31936 0.30696 0.88677 0.30696 0.32866 0 0.63562-0.08061 0.31006-0.08062 0.61392-0.24184v0.5395q-0.30696 0.13022-0.62942 0.19844-0.32246 0.06821-0.65422 0.06821-0.83096 0-1.3177-0.48369-0.48369-0.48369-0.48369-1.3084 0-0.85266 0.45889-1.3519 0.46199-0.5023 1.2433-0.5023 0.70073 0 1.1069 0.45268 0.40928 0.44958 0.40928 1.2247zm-0.57051-0.16743q-0.0062-0.46819-0.26355-0.74724-0.25425-0.27905-0.67593-0.27905-0.47749 0-0.76584 0.26975-0.28525 0.26975-0.32866 0.75964z"/>
   </g>
  </g>
  <g transform="matrix(.26458 0 0 .26458 -6.5386 42.875)" style="shape-inside:url(#rect3190);white-space:pre" aria-label="complement">
   <path d="m254.29 117.04q-1.1016 0.52734-2.0977 0.82031-0.98438 0.29297-2.0977 0.29297-1.418 0-2.6016-0.41016-1.1836-0.42187-2.0273-1.2656-0.85547-0.84375-1.3242-2.1328-0.46875-1.2891-0.46875-3.0117 0-3.2109 1.7578-5.0391 1.7695-1.8281 4.6641-1.8281 1.125 0 2.2031 0.31641 1.0898 0.3164 1.9922 0.77343v2.4492h-0.11719q-1.0078-0.78515-2.0859-1.207-1.0664-0.42187-2.0859-0.42187-1.875 0-2.9648 1.2656-1.0781 1.2539-1.0781 3.6914 0 2.3672 1.0547 3.6445 1.0664 1.2656 2.9883 1.2656 0.66797 0 1.3594-0.17578 0.6914-0.17578 1.2422-0.45703 0.48046-0.24609 0.90234-0.51562 0.42187-0.28125 0.66797-0.48047h0.11719z"/>
   <path d="m268.28 111.32q0 3.1992-1.6406 5.0508-1.6406 1.8516-4.3945 1.8516-2.7774 0-4.418-1.8516-1.6289-1.8516-1.6289-5.0508t1.6289-5.0508q1.6406-1.8633 4.418-1.8633 2.7539 0 4.3945 1.8633 1.6406 1.8516 1.6406 5.0508zm-2.2734 0q0-2.543-0.9961-3.7734-0.99609-1.2422-2.7656-1.2422-1.793 0-2.7891 1.2422-0.98437 1.2305-0.98437 3.7734 0 2.4609 0.99609 3.7383 0.9961 1.2656 2.7774 1.2656 1.7578 0 2.7539-1.2539 1.0078-1.2656 1.0078-3.75z"/>
   <path d="m290.8 117.86h-2.2031v-7.4531q0-0.84375-0.082-1.6289-0.0703-0.78516-0.3164-1.2539-0.26953-0.5039-0.77344-0.76171-0.50391-0.25782-1.4531-0.25782-0.92579 0-1.8516 0.46875-0.92578 0.45703-1.8516 1.1719 0.0352 0.26953 0.0586 0.63281 0.0234 0.35156 0.0234 0.70313v8.3789h-2.2031v-7.4531q0-0.86719-0.082-1.6406-0.0703-0.78515-0.31641-1.2539-0.26953-0.50391-0.77344-0.75-0.5039-0.25782-1.4531-0.25782-0.90235 0-1.8164 0.44532-0.90234 0.44531-1.8047 1.1367v9.7734h-2.2031v-13.09h2.2031v1.4531q1.0312-0.85547 2.0508-1.3359 1.0312-0.48047 2.1914-0.48047 1.3359 0 2.2617 0.5625 0.9375 0.5625 1.3945 1.5586 1.3359-1.125 2.4375-1.6172 1.1016-0.5039 2.3555-0.5039 2.1562 0 3.1758 1.3125 1.0312 1.3008 1.0312 3.6445z"/>
   <path d="m306.56 111.16q0 1.5938-0.45703 2.918-0.45703 1.3125-1.2891 2.2266-0.77344 0.86719-1.8281 1.3476-1.043 0.46875-2.2148 0.46875-1.0195 0-1.8516-0.22265-0.82031-0.22266-1.6758-0.69141v5.4844h-2.2031v-17.918h2.2031v1.3711q0.87891-0.73828 1.9688-1.2305 1.1016-0.5039 2.3438-0.5039 2.3672 0 3.6797 1.793 1.3242 1.7812 1.3242 4.957zm-2.2734 0.0586q0-2.3672-0.80859-3.5391-0.8086-1.1719-2.4844-1.1719-0.94922 0-1.9102 0.41016-0.96094 0.41016-1.8398 1.0781v7.418q0.9375 0.42188 1.6055 0.57422 0.67969 0.15235 1.5352 0.15235 1.8398 0 2.8711-1.2422t1.0312-3.6797z"/>
   <path d="m312.22 117.86h-2.2031v-18.234h2.2031z"/>
   <path d="m327.56 111.54h-9.6445q0 1.207 0.36328 2.1094 0.36328 0.89063 0.99609 1.4648 0.60938 0.5625 1.4414 0.84375 0.84375 0.28125 1.8516 0.28125 1.3359 0 2.6836-0.52734 1.3594-0.53906 1.9336-1.0547h0.11719v2.4024q-1.1133 0.46875-2.2734 0.78515-1.1602 0.31641-2.4375 0.31641-3.2578 0-5.0859-1.7578-1.8281-1.7695-1.8281-5.0156 0-3.2109 1.7461-5.0976 1.7578-1.8867 4.6172-1.8867 2.6484 0 4.0781 1.5469 1.4414 1.5469 1.4414 4.3945zm-2.1445-1.6875q-0.0117-1.7344-0.87891-2.6836-0.85547-0.94922-2.6133-0.94922-1.7695 0-2.8242 1.043-1.043 1.043-1.1836 2.5898z"/>
   <path d="m350 117.86h-2.2031v-7.4531q0-0.84375-0.082-1.6289-0.0703-0.78516-0.31641-1.2539-0.26953-0.5039-0.77343-0.76171-0.50391-0.25782-1.4531-0.25782-0.92578 0-1.8516 0.46875-0.92578 0.45703-1.8516 1.1719 0.0351 0.26953 0.0586 0.63281 0.0234 0.35156 0.0234 0.70313v8.3789h-2.2031v-7.4531q0-0.86719-0.082-1.6406-0.0703-0.78515-0.31641-1.2539-0.26953-0.50391-0.77343-0.75-0.50391-0.25782-1.4531-0.25782-0.90234 0-1.8164 0.44532-0.90235 0.44531-1.8047 1.1367v9.7734h-2.2031v-13.09h2.2031v1.4531q1.0312-0.85547 2.0508-1.3359 1.0312-0.48047 2.1914-0.48047 1.3359 0 2.2617 0.5625 0.9375 0.5625 1.3945 1.5586 1.3359-1.125 2.4375-1.6172 1.1016-0.5039 2.3555-0.5039 2.1562 0 3.1758 1.3125 1.0312 1.3008 1.0312 3.6445z"/>
   <path d="m365.2 111.54h-9.6445q0 1.207 0.36328 2.1094 0.36329 0.89063 0.9961 1.4648 0.60937 0.5625 1.4414 0.84375 0.84375 0.28125 1.8516 0.28125 1.3359 0 2.6836-0.52734 1.3594-0.53906 1.9336-1.0547h0.11719v2.4024q-1.1133 0.46875-2.2734 0.78515-1.1602 0.31641-2.4375 0.31641-3.2578 0-5.0859-1.7578-1.8281-1.7695-1.8281-5.0156 0-3.2109 1.7461-5.0976 1.7578-1.8867 4.6172-1.8867 2.6484 0 4.0781 1.5469 1.4414 1.5469 1.4414 4.3945zm-2.1445-1.6875q-0.0117-1.7344-0.8789-2.6836-0.85547-0.94922-2.6133-0.94922-1.7695 0-2.8242 1.043-1.043 1.043-1.1836 2.5898z"/>
   <path d="m379.49 117.86h-2.2031v-7.4531q0-0.90235-0.10547-1.6875-0.10547-0.79688-0.38672-1.2422-0.29297-0.49219-0.84375-0.72656-0.55078-0.2461-1.4297-0.2461-0.90234 0-1.8867 0.44532-0.98437 0.44531-1.8867 1.1367v9.7734h-2.2031v-13.09h2.2031v1.4531q1.0312-0.85547 2.1328-1.3359 1.1016-0.48047 2.2617-0.48047 2.1211 0 3.2344 1.2773t1.1133 3.6797z"/>
   <path d="m390.53 117.74q-0.62109 0.16407-1.3594 0.26954-0.72656 0.10546-1.3008 0.10546-2.0039 0-3.0469-1.0781-1.043-1.0781-1.043-3.457v-6.9609h-1.4883v-1.8516h1.4883v-3.7617h2.2031v3.7617h4.5469v1.8516h-4.5469v5.9648q0 1.0312 0.0469 1.6172 0.0469 0.57422 0.32813 1.0781 0.25781 0.46875 0.70312 0.6914 0.45703 0.21094 1.3828 0.21094 0.53906 0 1.125-0.15234 0.58593-0.16407 0.84375-0.26953h0.11718z"/>
  </g>
 </g>
</svg>
