<?xml version="1.0" standalone="no"?>
<!DOCTYPE svg PUBLIC "-//W3C//DTD SVG 20010904//EN"
 "http://www.w3.org/TR/2001/REC-SVG-20010904/DTD/svg10.dtd">
<svg version="1.0" xmlns="http://www.w3.org/2000/svg"
 width="1000.000000pt" height="1000.000000pt" viewBox="0 0 1000.000000 1000.000000"
 preserveAspectRatio="xMidYMid meet">
<metadata>
Created by potrace 1.11, written by Peter Selinger 2001-2013
</metadata>
<g transform="translate(0.000000,1000.000000) scale(0.100000,-0.100000)"
fill="#000000" stroke="none">
<path d="M3328 9925 c-2 -1 -39 -5 -82 -9 -352 -30 -757 -185 -1170 -449 -24
-15 -20 -12 -130 -92 -307 -226 -515 -488 -550 -695 -21 -127 -25 -879 -12
-2335 8 -771 10 -992 20 -1850 3 -253 8 -680 11 -950 l6 -490 47 -70 c79 -117
145 -177 297 -271 77 -47 156 -96 175 -109 59 -38 269 -167 975 -600 374 -229
696 -427 715 -440 19 -12 87 -54 150 -92 194 -118 611 -373 675 -413 33 -21
101 -62 150 -92 253 -153 513 -312 537 -329 15 -11 30 -19 33 -19 3 0 28 -16
55 -35 27 -19 52 -35 54 -35 2 0 89 -52 192 -116 104 -64 201 -124 216 -133
15 -9 81 -49 146 -89 173 -106 258 -136 372 -133 104 3 183 45 293 157 l68 69
-4 2695 c-3 1482 -7 2733 -10 2780 -10 147 -22 249 -33 300 -3 14 -8 36 -11
50 -8 44 -47 111 -82 142 -19 17 -67 45 -106 63 -38 18 -110 55 -160 82 -49
27 -121 67 -160 88 -38 21 -115 63 -170 93 -55 30 -118 65 -140 77 -22 12 -69
37 -105 57 -56 31 -258 141 -440 240 -30 17 -68 38 -85 48 -16 9 -60 34 -97
54 -113 60 -198 107 -293 159 -49 27 -115 63 -145 80 -55 29 -74 40 -245 134
-49 28 -119 66 -155 85 -36 19 -130 71 -210 115 -80 43 -152 82 -160 86 -8 4
-29 16 -47 26 -17 11 -67 39 -110 62 -102 54 -171 92 -263 144 -41 23 -104 58
-140 77 -72 38 -70 37 -425 233 -383 211 -569 315 -577 324 -9 8 90 113 177
187 146 125 356 246 510 294 124 38 285 34 399 -11 60 -23 473 -232 831 -419
272 -142 328 -172 460 -240 77 -40 167 -87 200 -105 55 -30 123 -65 420 -220
61 -31 133 -70 160 -85 28 -15 118 -62 200 -105 83 -43 177 -92 210 -110 98
-53 231 -123 385 -203 80 -41 168 -87 195 -102 28 -15 109 -58 180 -95 72 -37
162 -85 200 -105 39 -21 115 -61 170 -90 254 -133 299 -158 440 -241 83 -49
156 -98 163 -109 15 -24 22 -68 28 -168 7 -127 14 -1367 19 -3162 2 -932 6
-1739 9 -1792 16 -310 31 -424 68 -490 27 -49 125 -121 190 -138 88 -24 185
-8 298 50 113 57 380 260 419 318 31 46 59 146 67 237 3 39 7 81 9 95 26 150
26 5276 1 5405 -2 11 -7 42 -11 70 -4 27 -13 62 -20 76 -47 90 -212 181 -1740
954 -225 114 -554 281 -730 370 -2161 1097 -2323 1175 -2550 1234 -60 15 -218
34 -227 26z"/>
</g>
</svg>
