<?xml version="1.0" encoding="UTF-8" standalone="no"?>
<svg
   xmlns:dc="http://purl.org/dc/elements/1.1/"
   xmlns:cc="http://creativecommons.org/ns#"
   xmlns:rdf="http://www.w3.org/1999/02/22-rdf-syntax-ns#"
   xmlns:svg="http://www.w3.org/2000/svg"
   xmlns="http://www.w3.org/2000/svg"
   xmlns:sodipodi="http://sodipodi.sourceforge.net/DTD/sodipodi-0.dtd"
   xmlns:inkscape="http://www.inkscape.org/namespaces/inkscape"
   sodipodi:docname="indicative-mood.svg"
   inkscape:version="1.0 (4035a4fb49, 2020-05-01)"
   id="svg8"
   version="1.1"
   viewBox="0 0 583.39494 106.04421"
   height="400.797"
   width="2204.9573">
  <defs
     id="defs2">
    <marker
       inkscape:isstock="true"
       style="overflow:visible"
       id="marker1316"
       refX="0"
       refY="0"
       orient="auto"
       inkscape:stockid="Arrow1Mend">
      <path
         transform="matrix(-0.4,0,0,-0.4,-4,0)"
         style="fill:#000000;fill-opacity:1;fill-rule:evenodd;stroke:#000000;stroke-width:1pt;stroke-opacity:1"
         d="M 0,0 5,-5 -12.5,0 5,5 Z"
         id="path1314" />
    </marker>
    <marker
       inkscape:isstock="true"
       style="overflow:visible"
       id="Arrow1Lend"
       refX="0"
       refY="0"
       orient="auto"
       inkscape:stockid="Arrow1Lend">
      <path
         transform="matrix(-0.8,0,0,-0.8,-10,0)"
         style="fill:#000000;fill-opacity:1;fill-rule:evenodd;stroke:#000000;stroke-width:1pt;stroke-opacity:1"
         d="M 0,0 5,-5 -12.5,0 5,5 Z"
         id="path925" />
    </marker>
    <marker
       inkscape:isstock="true"
       style="overflow:visible"
       id="Arrow1Mend"
       refX="0"
       refY="0"
       orient="auto"
       inkscape:stockid="Arrow1Mend">
      <path
         transform="matrix(-0.4,0,0,-0.4,-4,0)"
         style="fill:#000000;fill-opacity:1;fill-rule:evenodd;stroke:#000000;stroke-width:1pt;stroke-opacity:1"
         d="M 0,0 5,-5 -12.5,0 5,5 Z"
         id="path931" />
    </marker>
    <rect
       id="rect916"
       height="49.892857"
       width="257.77975"
       y="35.529762"
       x="173.1131" />
    <rect
       id="rect879"
       height="18.898809"
       width="46.113098"
       y="148.16667"
       x="43.089287" />
    <rect
       id="rect873"
       height="26.458332"
       width="73.327377"
       y="151.94643"
       x="53.672619" />
    <rect
       id="rect867"
       height="35.529762"
       width="139.8512"
       y="89.202377"
       x="37.041668" />
    <rect
       id="rect861"
       height="28.726191"
       width="133.04762"
       y="167.82143"
       x="91.470238" />
    <rect
       id="rect855"
       height="121.70833"
       width="320.5238"
       y="175.38095"
       x="132.29167" />
    <rect
       id="rect845"
       height="75.595238"
       width="247.95238"
       y="176.89285"
       x="166.30952" />
    <rect
       id="rect16"
       height="30.994047"
       width="157.2381"
       y="164.04167"
       x="52.916668" />
    <rect
       x="43.089287"
       y="148.16667"
       width="46.113098"
       height="18.898809"
       id="rect879-8" />
    <rect
       x="43.089287"
       y="148.16667"
       width="46.113098"
       height="18.898809"
       id="rect892" />
  </defs>
  <sodipodi:namedview
     fit-margin-right="50"
     fit-margin-left="50"
     fit-margin-bottom="50"
     fit-margin-top="50"
     inkscape:window-maximized="1"
     inkscape:window-y="-9"
     inkscape:window-x="-9"
     inkscape:window-height="1000"
     inkscape:window-width="1920"
     width="800mm"
     units="px"
     showgrid="false"
     inkscape:document-rotation="0"
     inkscape:current-layer="layer1"
     inkscape:document-units="mm"
     inkscape:cy="-115.19434"
     inkscape:cx="1037.807"
     inkscape:zoom="0.35"
     inkscape:pageshadow="2"
     inkscape:pageopacity="0.0"
     borderopacity="1.0"
     bordercolor="#666666"
     pagecolor="#ffffff"
     id="base" />
  <metadata
     id="metadata5">
    <rdf:RDF>
      <cc:Work
         rdf:about="">
        <dc:format>image/svg+xml</dc:format>
        <dc:type
           rdf:resource="http://purl.org/dc/dcmitype/StillImage" />
        <dc:title></dc:title>
      </cc:Work>
    </rdf:RDF>
  </metadata>
  <g
     transform="translate(-53.495261,-70.159317)"
     id="layer1"
     inkscape:groupmode="layer"
     inkscape:label="Layer 1">
    <path
       sodipodi:nodetypes="cc"
       id="path12"
       d="M 84.666664,135.31547 H 607.7857"
       style="fill:none;stroke:#000000;stroke-width:2.11667;stroke-linecap:butt;stroke-linejoin:miter;stroke-miterlimit:4;stroke-dasharray:none;stroke-opacity:1" />
    <text
       style="font-style:normal;font-weight:normal;font-size:10.5833px;line-height:1.25;font-family:sans-serif;white-space:pre;shape-inside:url(#rect16);fill:#000000;fill-opacity:1;stroke:none;"
       id="text14"
       xml:space="preserve" />
    <text
       style="font-style:normal;font-weight:normal;font-size:14.1111px;line-height:1.25;font-family:sans-serif;white-space:pre;shape-inside:url(#rect845);fill:#000000;fill-opacity:1;stroke:none;"
       id="text843"
       xml:space="preserve" />
    <text
       style="font-style:normal;font-weight:normal;font-size:10.5833px;line-height:1.25;font-family:sans-serif;white-space:pre;shape-inside:url(#rect855);fill:#000000;fill-opacity:1;stroke:none;"
       id="text853"
       xml:space="preserve" />
    <text
       style="font-style:normal;font-weight:normal;font-size:10.5833px;line-height:1.25;font-family:sans-serif;white-space:pre;shape-inside:url(#rect867);fill:#000000;fill-opacity:1;stroke:none;"
       id="text865"
       xml:space="preserve" />
    <g
       style="font-style:normal;font-weight:normal;font-size:10.5833px;line-height:1.25;font-family:sans-serif;white-space:pre;shape-inside:url(#rect861);fill:#000000;fill-opacity:1;stroke:none"
       id="text859"
       transform="translate(23.434519,-86.934524)"
       aria-label="plane of reality">
      <path
         id="path1420"
         style="font-size:16.9333px"
         d="m 101.12798,178.54161 q 0,1.12448 -0.32246,2.05879 -0.32246,0.92604 -0.909508,1.57096 -0.545702,0.61184 -1.289841,0.95084 -0.735871,0.33073 -1.562692,0.33073 -0.719335,0 -1.306378,-0.1571 -0.578775,-0.15709 -1.182354,-0.48782 v 3.86952 h -1.554424 v -12.6421 h 1.554424 v 0.96739 q 0.620116,-0.5209 1.389059,-0.86817 0.777212,-0.35553 1.653643,-0.35553 1.670179,0 2.596221,1.26504 0.93431,1.25677 0.93431,3.49745 z m -1.604038,0.0413 q 0,-1.67018 -0.570506,-2.497 -0.570507,-0.82682 -1.752861,-0.82682 -0.669726,0 -1.347719,0.28939 -0.677993,0.28939 -1.298109,0.76067 v 5.23378 q 0.661457,0.29766 1.132745,0.40514 0.479556,0.10749 1.083136,0.10749 1.298109,0 2.025712,-0.87643 0.727602,-0.87643 0.727602,-2.59622 z" />
      <path
         id="path1422"
         style="font-size:16.9333px"
         d="m 105.12152,183.27103 h -1.55442 v -12.86534 h 1.55442 z" />
      <path
         id="path1424"
         style="font-size:16.9333px"
         d="m 115.39064,183.27103 h -1.54615 v -0.98392 q -0.20671,0.14056 -0.56224,0.39688 -0.34727,0.24804 -0.67799,0.39687 -0.38861,0.19017 -0.89297,0.31419 -0.50436,0.13229 -1.18236,0.13229 -1.2485,0 -2.11666,-0.82682 -0.86816,-0.82682 -0.86816,-2.10839 0,-1.05007 0.44648,-1.69499 0.45475,-0.65318 1.28984,-1.02525 0.84336,-0.37207 2.02572,-0.50437 1.18235,-0.13229 2.53834,-0.19843 v -0.23978 q 0,-0.52917 -0.19017,-0.87643 -0.1819,-0.34727 -0.52917,-0.5457 -0.33073,-0.19017 -0.79375,-0.25632 -0.46302,-0.0661 -0.96738,-0.0661 -0.61184,0 -1.36425,0.16536 -0.75241,0.1571 -1.55443,0.46302 h -0.0827 v -1.57923 q 0.45475,-0.12402 1.31465,-0.27285 0.85989,-0.14883 1.69498,-0.14883 0.97565,0 1.69498,0.16537 0.72761,0.15709 1.25677,0.5457 0.5209,0.38034 0.79375,0.98392 0.27285,0.60358 0.27285,1.49654 z m -1.54615,-2.27376 v -2.57141 q -0.71107,0.0413 -1.67845,0.12402 -0.95911,0.0827 -1.52135,0.23978 -0.66973,0.19017 -1.08314,0.59531 -0.41341,0.39687 -0.41341,1.09967 0,0.79375 0.47956,1.19889 0.47955,0.39688 1.46347,0.39688 0.81856,0 1.49655,-0.3142 0.67799,-0.32246 1.25677,-0.76894 z" />
      <path
         id="path1426"
         style="font-size:16.9333px"
         d="m 126.12278,183.27103 h -1.55442 v -5.25858 q 0,-0.63666 -0.0744,-1.19063 -0.0744,-0.56224 -0.27286,-0.87643 -0.2067,-0.34726 -0.59531,-0.51263 -0.3886,-0.17363 -1.00872,-0.17363 -0.63665,0 -1.33118,0.31419 -0.69453,0.31419 -1.33118,0.80202 v 6.89569 h -1.55443 v -9.2356 h 1.55443 v 1.02526 q 0.7276,-0.60358 1.50481,-0.94257 0.77721,-0.339 1.59577,-0.339 1.49654,0 2.28202,0.90124 0.78548,0.90123 0.78548,2.59621 z" />
      <path
         id="path1428"
         style="font-size:16.9333px"
         d="m 136.84666,178.81446 h -6.80474 q 0,0.85163 0.25631,1.48828 0.25632,0.62838 0.7028,1.03353 0.42995,0.39687 1.01699,0.59531 0.59531,0.19844 1.30638,0.19844 0.94257,0 1.89342,-0.37207 0.95911,-0.38034 1.36425,-0.74414 h 0.0827 v 1.69498 q -0.78548,0.33073 -1.60404,0.55397 -0.81855,0.22324 -1.71979,0.22324 -2.29856,0 -3.5884,-1.24023 -1.28984,-1.2485 -1.28984,-3.53879 0,-2.2655 1.23196,-3.59668 1.24023,-1.33118 3.25768,-1.33118 1.86861,0 2.87734,1.0914 1.01699,1.09141 1.01699,3.10058 z m -1.51309,-1.19062 q -0.008,-1.2237 -0.62011,-1.89342 -0.60358,-0.66973 -1.84381,-0.66973 -1.2485,0 -1.99264,0.73587 -0.73587,0.73588 -0.83509,1.82728 z" />
      <path
         id="path1430"
         style="font-size:16.9333px"
         d="m 153.02755,178.65737 q 0,2.25722 -1.15755,3.5636 -1.15755,1.30637 -3.10058,1.30637 -1.95957,0 -3.11712,-1.30637 -1.14928,-1.30638 -1.14928,-3.5636 0,-2.25723 1.14928,-3.5636 1.15755,-1.31465 3.11712,-1.31465 1.94303,0 3.10058,1.31465 1.15755,1.30637 1.15755,3.5636 z m -1.60403,0 q 0,-1.79421 -0.7028,-2.66237 -0.7028,-0.87643 -1.9513,-0.87643 -1.26504,0 -1.96784,0.87643 -0.69453,0.86816 -0.69453,2.66237 0,1.73632 0.7028,2.63756 0.7028,0.89296 1.95957,0.89296 1.24023,0 1.94303,-0.8847 0.71107,-0.89296 0.71107,-2.64582 z" />
      <path
         id="path1432"
         style="font-size:16.9333px"
         d="m 160.41106,171.9105 h -0.0827 q -0.25631,-0.0744 -0.66973,-0.14882 -0.41341,-0.0827 -0.7276,-0.0827 -1.00045,0 -1.4552,0.44649 -0.44649,0.43821 -0.44649,1.59576 v 0.31419 h 2.80293 v 1.30638 h -2.75332 v 7.92922 h -1.55442 v -7.92922 h -1.05006 v -1.30638 h 1.05006 v -0.30592 q 0,-1.64537 0.81855,-2.5218 0.81855,-0.8847 2.36471,-0.8847 0.5209,0 0.93431,0.0496 0.42168,0.0496 0.76894,0.11575 z" />
      <path
         id="path1434"
         style="font-size:16.9333px"
         d="m 173.11104,175.73042 h -0.0827 q -0.34727,-0.0827 -0.678,-0.11576 -0.32246,-0.0413 -0.76894,-0.0413 -0.71934,0 -1.38906,0.32246 -0.66973,0.31419 -1.28984,0.81856 v 6.55669 h -1.55443 v -9.2356 h 1.55443 v 1.36426 q 0.92604,-0.74414 1.62884,-1.05006 0.71106,-0.3142 1.44693,-0.3142 0.40514,0 0.58705,0.0248 0.1819,0.0165 0.5457,0.0744 z" />
      <path
         id="path1436"
         style="font-size:16.9333px"
         d="m 182.32183,178.81446 h -6.80474 q 0,0.85163 0.25632,1.48828 0.25631,0.62838 0.70279,1.03353 0.42995,0.39687 1.01699,0.59531 0.59532,0.19844 1.30638,0.19844 0.94258,0 1.89342,-0.37207 0.95912,-0.38034 1.36426,-0.74414 h 0.0827 v 1.69498 q -0.78548,0.33073 -1.60403,0.55397 -0.81856,0.22324 -1.71979,0.22324 -2.29857,0 -3.58841,-1.24023 -1.28984,-1.2485 -1.28984,-3.53879 0,-2.2655 1.23197,-3.59668 1.24023,-1.33118 3.25767,-1.33118 1.86862,0 2.87734,1.0914 1.01699,1.09141 1.01699,3.10058 z m -1.51308,-1.19062 q -0.008,-1.2237 -0.62012,-1.89342 -0.60358,-0.66973 -1.84381,-0.66973 -1.2485,0 -1.99264,0.73587 -0.73587,0.73588 -0.83509,1.82728 z" />
      <path
         id="path1438"
         style="font-size:16.9333px"
         d="m 191.85508,183.27103 h -1.54616 v -0.98392 q -0.2067,0.14056 -0.56223,0.39688 -0.34727,0.24804 -0.678,0.39687 -0.3886,0.19017 -0.89297,0.31419 -0.50436,0.13229 -1.18235,0.13229 -1.2485,0 -2.11666,-0.82682 -0.86816,-0.82682 -0.86816,-2.10839 0,-1.05007 0.44648,-1.69499 0.45475,-0.65318 1.28984,-1.02525 0.84336,-0.37207 2.02571,-0.50437 1.18236,-0.13229 2.53834,-0.19843 v -0.23978 q 0,-0.52917 -0.19017,-0.87643 -0.1819,-0.34727 -0.52916,-0.5457 -0.33073,-0.19017 -0.79375,-0.25632 -0.46302,-0.0661 -0.96738,-0.0661 -0.61185,0 -1.36426,0.16536 -0.7524,0.1571 -1.55442,0.46302 h -0.0827 v -1.57923 q 0.45475,-0.12402 1.31464,-0.27285 0.8599,-0.14883 1.69499,-0.14883 0.97565,0 1.69498,0.16537 0.7276,0.15709 1.25677,0.5457 0.5209,0.38034 0.79375,0.98392 0.27285,0.60358 0.27285,1.49654 z m -1.54616,-2.27376 v -2.57141 q -0.71106,0.0413 -1.67844,0.12402 -0.95912,0.0827 -1.52135,0.23978 -0.66973,0.19017 -1.08314,0.59531 -0.41341,0.39687 -0.41341,1.09967 0,0.79375 0.47955,1.19889 0.47956,0.39688 1.46348,0.39688 0.81855,0 1.49655,-0.3142 0.67799,-0.32246 1.25676,-0.76894 z" />
      <path
         id="path1440"
         style="font-size:16.9333px"
         d="m 196.43566,183.27103 h -1.55442 v -12.86534 h 1.55442 z" />
      <path
         id="path1442"
         style="font-size:16.9333px"
         d="m 201.19816,172.48928 h -1.75286 v -1.6123 h 1.75286 z m -0.0992,10.78175 h -1.55442 v -9.2356 h 1.55442 z" />
      <path
         id="path1444"
         style="font-size:16.9333px"
         d="m 208.98681,183.18835 q -0.43821,0.11575 -0.95911,0.19017 -0.51263,0.0744 -0.91777,0.0744 -1.41387,0 -2.14974,-0.76068 -0.73587,-0.76067 -0.73587,-2.43912 v -4.91132 h -1.05006 v -1.30638 h 1.05006 v -2.65409 h 1.55442 v 2.65409 h 3.20807 v 1.30638 h -3.20807 v 4.20852 q 0,0.72761 0.0331,1.14102 0.0331,0.40514 0.23151,0.76067 0.1819,0.33073 0.49609,0.48783 0.32246,0.14882 0.97565,0.14882 0.38034,0 0.79375,-0.10748 0.41341,-0.11576 0.59531,-0.19017 h 0.0827 z" />
      <path
         id="path1446"
         style="font-size:16.9333px"
         d="m 218.79291,174.03543 -5.39087,12.6421 h -1.66191 l 1.71979,-3.85298 -3.67936,-8.78912 h 1.68672 l 2.83599,6.84609 2.8608,-6.84609 z" />
    </g>
    <text
       style="font-style:normal;font-weight:normal;font-size:10.5833px;line-height:1.25;font-family:sans-serif;white-space:pre;shape-inside:url(#rect873);fill:#000000;fill-opacity:1;stroke:none;"
       id="text871"
       xml:space="preserve" />
    <g
       style="font-style:normal;font-weight:normal;font-size:10.5833px;line-height:1.25;font-family:sans-serif;white-space:pre;shape-inside:url(#rect879);fill:#000000;fill-opacity:1;stroke:none"
       id="text877"
       transform="matrix(1.6325889,0,0,1.6325889,-5.1843463,-98.159127)"
       aria-label="past">
      <path
         id="path1449"
         d="m 49.125632,154.8656 q 0,0.7028 -0.201538,1.28674 -0.201537,0.57877 -0.568439,0.98185 -0.341063,0.3824 -0.806149,0.59427 -0.459919,0.20671 -0.976682,0.20671 -0.449583,0 -0.816485,-0.0982 -0.361734,-0.0982 -0.73897,-0.30489 v 2.41845 h -0.971514 v -7.9013 h 0.971514 v 0.60461 q 0.387572,-0.32556 0.868161,-0.5426 0.485757,-0.2222 1.033525,-0.2222 1.043861,0 1.622635,0.79064 0.583942,0.78548 0.583942,2.18591 z m -1.00252,0.0258 q 0,-1.04386 -0.356566,-1.56063 -0.356566,-0.51676 -1.095537,-0.51676 -0.418578,0 -0.842323,0.18087 -0.423745,0.18086 -0.811317,0.47542 v 3.27111 q 0.41341,0.18603 0.707964,0.25321 0.299723,0.0672 0.67696,0.0672 0.811317,0 1.266068,-0.54777 0.454751,-0.54777 0.454751,-1.62263 z" />
      <path
         id="path1451"
         d="M 55.125246,157.82148 H 54.1589 v -0.61495 q -0.129191,0.0879 -0.351398,0.24805 -0.217041,0.15503 -0.423746,0.24805 -0.242878,0.11885 -0.558104,0.19637 -0.315225,0.0827 -0.73897,0.0827 -0.780312,0 -1.322913,-0.51677 -0.5426,-0.51676 -0.5426,-1.31774 0,-0.65629 0.279051,-1.05936 0.28422,-0.40825 0.80615,-0.64079 0.527098,-0.23254 1.266069,-0.31522 0.73897,-0.0827 1.586461,-0.12403 v -0.14986 q 0,-0.33073 -0.118855,-0.54777 -0.113688,-0.21704 -0.330728,-0.34106 -0.206705,-0.11886 -0.496093,-0.1602 -0.289387,-0.0413 -0.604612,-0.0413 -0.382404,0 -0.852658,0.10335 -0.470254,0.0982 -0.971514,0.28939 h -0.05168 v -0.98702 q 0.284219,-0.0775 0.821652,-0.17053 0.537433,-0.093 1.059364,-0.093 0.60978,0 1.059363,0.10335 0.454751,0.0982 0.78548,0.34106 0.32556,0.23771 0.496092,0.61495 0.170531,0.37724 0.170531,0.93534 z m -0.966346,-1.4211 v -1.60713 q -0.444416,0.0258 -1.049028,0.0775 -0.599445,0.0517 -0.950843,0.14986 -0.418578,0.11885 -0.67696,0.37207 -0.258381,0.24804 -0.258381,0.68729 0,0.49609 0.299723,0.74931 0.299722,0.24804 0.914669,0.24804 0.511595,0 0.935341,-0.19637 0.423745,-0.20153 0.785479,-0.48059 z" />
      <path
         id="path1453"
         d="m 61.130028,156.1575 q 0,0.79065 -0.656288,1.29708 -0.651121,0.50643 -1.782832,0.50643 -0.640785,0 -1.178219,-0.14986 -0.532265,-0.15503 -0.893999,-0.3359 v -1.09037 h 0.05168 q 0.459919,0.34623 1.02319,0.55294 0.563272,0.20153 1.080034,0.20153 0.640786,0 1.00252,-0.2067 0.361734,-0.20671 0.361734,-0.65112 0,-0.34107 -0.19637,-0.51676 -0.19637,-0.1757 -0.754474,-0.29973 -0.206705,-0.0465 -0.5426,-0.10852 -0.330728,-0.062 -0.604613,-0.13436 -0.759641,-0.20153 -1.080034,-0.5891 -0.315225,-0.39274 -0.315225,-0.96118 0,-0.35657 0.144694,-0.6718 0.149861,-0.31522 0.449583,-0.56327 0.289387,-0.24287 0.733803,-0.3824 0.449584,-0.14469 1.00252,-0.14469 0.516762,0 1.04386,0.12919 0.532266,0.12402 0.883665,0.30489 v 1.03869 h -0.05168 q -0.372069,-0.27388 -0.904334,-0.45992 -0.532266,-0.1912 -1.043861,-0.1912 -0.532266,0 -0.899167,0.2067 -0.366902,0.20154 -0.366902,0.60462 0,0.35656 0.222208,0.53743 0.217041,0.18087 0.702798,0.29455 0.268716,0.062 0.599444,0.12403 0.335896,0.062 0.558104,0.11368 0.676959,0.15503 1.043861,0.53227 0.366901,0.3824 0.366901,1.01285 z" />
      <path
         id="path1455"
         d="m 65.522511,157.7698 q -0.273884,0.0724 -0.599444,0.11886 -0.320393,0.0465 -0.573607,0.0465 -0.883664,0 -1.343583,-0.47542 -0.459919,-0.47542 -0.459919,-1.52445 v -3.06957 H 61.88967 v -0.81649 h 0.656288 v -1.65881 h 0.971514 v 1.65881 h 2.005039 v 0.81649 h -2.005039 v 2.63032 q 0,0.45475 0.02067,0.71313 0.02067,0.25321 0.144693,0.47542 0.113688,0.20671 0.310058,0.30489 0.201537,0.093 0.60978,0.093 0.237711,0 0.496092,-0.0672 0.258381,-0.0724 0.372069,-0.11885 h 0.05168 z" />
    </g>
    <g
       style="font-style:normal;font-weight:normal;font-size:10.5833px;line-height:1.25;font-family:sans-serif;white-space:pre;shape-inside:url(#rect879-8);fill:#000000;fill-opacity:1;stroke:none"
       id="text877-7"
       transform="matrix(1.6325889,0,0,1.6325889,501.71471,-96.01201)"
       aria-label="future">
      <path
         id="path1458"
         d="m 47.151598,150.72116 h -0.05168 q -0.160196,-0.0465 -0.418578,-0.093 -0.258381,-0.0517 -0.454751,-0.0517 -0.625283,0 -0.909502,0.27905 -0.279052,0.27388 -0.279052,0.99735 v 0.19637 h 1.751826 v 0.81649 h -1.72082 v 4.95575 h -0.971514 v -4.95575 h -0.656289 v -0.81649 h 0.656289 v -0.1912 q 0,-1.02836 0.511595,-1.57613 0.511595,-0.55293 1.477941,-0.55293 0.325561,0 0.583942,0.031 0.263549,0.031 0.480589,0.0724 z" />
      <path
         id="path1460"
         d="m 52.551768,157.82148 h -0.971514 v -0.64078 q -0.490924,0.38757 -0.940508,0.59427 -0.449583,0.20671 -0.992184,0.20671 -0.909502,0 -1.41593,-0.55294 -0.506427,-0.5581 -0.506427,-1.63297 v -3.74653 h 0.971514 v 3.28661 q 0,0.43925 0.04134,0.75448 0.04134,0.31005 0.175699,0.53226 0.139526,0.22738 0.361734,0.33073 0.222208,0.10335 0.645953,0.10335 0.377237,0 0.821653,-0.19637 0.449583,-0.19637 0.837155,-0.50126 v -4.3098 h 0.971514 z" />
      <path
         id="path1462"
         d="m 57.461014,157.7698 q -0.273885,0.0724 -0.599445,0.11886 -0.320393,0.0465 -0.573607,0.0465 -0.883664,0 -1.343583,-0.47542 -0.459918,-0.47542 -0.459918,-1.52445 v -3.06957 h -0.656289 v -0.81649 h 0.656289 v -1.65881 h 0.971513 v 1.65881 h 2.00504 v 0.81649 h -2.00504 v 2.63032 q 0,0.45475 0.02067,0.71313 0.02067,0.25321 0.144693,0.47542 0.113688,0.20671 0.310058,0.30489 0.201538,0.093 0.60978,0.093 0.237711,0 0.496092,-0.0672 0.258382,-0.0724 0.372069,-0.11885 h 0.05168 z" />
      <path
         id="path1464"
         d="m 63.424455,157.82148 h -0.971514 v -0.64078 q -0.490924,0.38757 -0.940508,0.59427 -0.449583,0.20671 -0.992184,0.20671 -0.909502,0 -1.41593,-0.55294 -0.506427,-0.5581 -0.506427,-1.63297 v -3.74653 h 0.971514 v 3.28661 q 0,0.43925 0.04134,0.75448 0.04134,0.31005 0.175699,0.53226 0.139526,0.22738 0.361734,0.33073 0.222208,0.10335 0.645953,0.10335 0.377237,0 0.821653,-0.19637 0.449583,-0.19637 0.837155,-0.50126 v -4.3098 h 0.971514 z" />
      <path
         id="path1466"
         d="m 68.938313,153.10861 h -0.05168 q -0.21704,-0.0517 -0.423745,-0.0724 -0.201538,-0.0258 -0.48059,-0.0258 -0.449583,0 -0.868161,0.20154 -0.418578,0.19637 -0.80615,0.51159 v 4.09793 h -0.971514 v -5.77224 h 0.971514 v 0.85266 q 0.578774,-0.46509 1.018023,-0.65629 0.444416,-0.19637 0.904334,-0.19637 0.253214,0 0.366902,0.0155 0.113688,0.0103 0.341063,0.0465 z" />
      <path
         id="path1468"
         d="m 74.695049,155.03613 h -4.252957 q 0,0.53227 0.160196,0.93017 0.160197,0.39274 0.439249,0.64596 0.268716,0.24804 0.635618,0.37207 0.372069,0.12402 0.816485,0.12402 0.589109,0 1.183386,-0.23254 0.599445,-0.23772 0.852659,-0.46509 h 0.05168 v 1.05936 q -0.490925,0.20671 -1.00252,0.34623 -0.511595,0.13953 -1.074866,0.13953 -1.4366,0 -2.24275,-0.77514 -0.80615,-0.78032 -0.80615,-2.21175 0,-1.41593 0.769976,-2.24792 0.775145,-0.83198 2.036045,-0.83198 1.167884,0 1.798335,0.68212 0.635618,0.68213 0.635618,1.93786 z m -0.945676,-0.74414 q -0.0052,-0.76481 -0.387572,-1.18338 -0.377237,-0.41858 -1.152381,-0.41858 -0.780311,0 -1.245398,0.45992 -0.459919,0.45991 -0.52193,1.14204 z" />
    </g>
    <path
       d="m 279.04117,121.57015 h 134.37001 v 27.84166 H 279.04117 Z"
       style="fill:#ffffff;stroke:#1a1a1a;stroke-width:3.06214;stroke-miterlimit:4;stroke-dasharray:none"
       id="rect912" />
    <g
       style="font-style:normal;font-weight:normal;font-size:10.5833px;line-height:1.25;font-family:sans-serif;white-space:pre;shape-inside:url(#rect916);fill:#000000;fill-opacity:1;stroke:none"
       id="text914"
       transform="matrix(1.722316,0,0,1.722316,-10.35553,62.372724)"
       aria-label="present verb">
      <path
         id="path1472"
         d="m 179.14907,42.228879 q 0,0.702798 -0.20154,1.28674 -0.20154,0.578774 -0.56844,0.981849 -0.34106,0.382404 -0.80615,0.594277 -0.45992,0.206705 -0.97668,0.206705 -0.44958,0 -0.81648,-0.09819 -0.36174,-0.09819 -0.73897,-0.30489 v 2.418449 h -0.97152 v -7.901301 h 0.97152 v 0.604612 q 0.38757,-0.32556 0.86816,-0.542601 0.48575,-0.222208 1.03352,-0.222208 1.04386,0 1.62264,0.790647 0.58394,0.78548 0.58394,2.185906 z m -1.00252,0.02584 q 0,-1.043861 -0.35657,-1.560624 -0.35656,-0.516762 -1.09553,-0.516762 -0.41858,0 -0.84233,0.180867 -0.42374,0.180867 -0.81131,0.475421 v 3.271108 q 0.41341,0.186035 0.70796,0.253214 0.29972,0.06718 0.67696,0.06718 0.81132,0 1.26607,-0.547769 0.45475,-0.547768 0.45475,-1.622634 z" />
      <path
         id="path1474"
         d="m 184.26502,40.471886 h -0.0517 q -0.21704,-0.05168 -0.42374,-0.07235 -0.20154,-0.02584 -0.48059,-0.02584 -0.44958,0 -0.86816,0.201538 -0.41858,0.19637 -0.80615,0.511595 v 4.097928 h -0.97152 v -5.772239 h 0.97152 v 0.852658 q 0.57877,-0.465086 1.01802,-0.656288 0.44442,-0.19637 0.90433,-0.19637 0.25322,0 0.36691,0.0155 0.11368,0.01033 0.34106,0.04651 z" />
      <path
         id="path1476"
         d="m 190.02176,42.399411 h -4.25296 q 0,0.532266 0.1602,0.930173 0.16019,0.39274 0.43924,0.645953 0.26872,0.248046 0.63562,0.372069 0.37207,0.124023 0.81649,0.124023 0.58911,0 1.18338,-0.232543 0.59945,-0.237711 0.85266,-0.465086 h 0.0517 v 1.059363 q -0.49093,0.206705 -1.00252,0.346231 -0.5116,0.139526 -1.07487,0.139526 -1.4366,0 -2.24275,-0.775144 -0.80615,-0.780311 -0.80615,-2.211744 0,-1.41593 0.76998,-2.247918 0.77514,-0.831988 2.03604,-0.831988 1.16789,0 1.79834,0.682127 0.63562,0.682127 0.63562,1.93786 z m -0.94568,-0.744138 q -0.005,-0.764809 -0.38757,-1.183387 -0.37724,-0.418577 -1.15238,-0.418577 -0.78031,0 -1.2454,0.459918 -0.45992,0.459919 -0.52193,1.142046 z" />
      <path
         id="path1478"
         d="m 195.6183,43.520786 q 0,0.790647 -0.65629,1.297074 -0.65112,0.506428 -1.78283,0.506428 -0.64079,0 -1.17822,-0.149861 -0.53227,-0.155029 -0.894,-0.335896 v -1.090369 h 0.0517 q 0.45992,0.346231 1.02319,0.552936 0.56328,0.201537 1.08004,0.201537 0.64078,0 1.00252,-0.206705 0.36173,-0.206705 0.36173,-0.651121 0,-0.341063 -0.19637,-0.516762 -0.19637,-0.1757 -0.75447,-0.299723 -0.20671,-0.04651 -0.5426,-0.10852 -0.33073,-0.06201 -0.60461,-0.134358 -0.75965,-0.201538 -1.08004,-0.58911 -0.31522,-0.392739 -0.31522,-0.961178 0,-0.356567 0.14469,-0.671792 0.14986,-0.315225 0.44958,-0.563271 0.28939,-0.242879 0.73381,-0.382404 0.44958,-0.144694 1.00252,-0.144694 0.51676,0 1.04386,0.129191 0.53226,0.124023 0.88366,0.30489 v 1.038693 h -0.0517 q -0.37206,-0.273885 -0.90433,-0.459919 -0.53227,-0.191202 -1.04386,-0.191202 -0.53227,0 -0.89917,0.206705 -0.3669,0.201537 -0.3669,0.604612 0,0.356566 0.22221,0.537433 0.21704,0.180867 0.7028,0.294555 0.26871,0.06201 0.59944,0.124023 0.3359,0.06201 0.5581,0.113688 0.67696,0.155029 1.04386,0.532265 0.36691,0.382405 0.36691,1.012855 z" />
      <path
         id="path1480"
         d="m 201.84529,42.399411 h -4.25296 q 0,0.532266 0.1602,0.930173 0.16019,0.39274 0.43924,0.645953 0.26872,0.248046 0.63562,0.372069 0.37207,0.124023 0.81649,0.124023 0.58911,0 1.18338,-0.232543 0.59945,-0.237711 0.85266,-0.465086 h 0.0517 v 1.059363 q -0.49093,0.206705 -1.00252,0.346231 -0.5116,0.139526 -1.07487,0.139526 -1.4366,0 -2.24275,-0.775144 -0.80615,-0.780311 -0.80615,-2.211744 0,-1.41593 0.76998,-2.247918 0.77514,-0.831988 2.03604,-0.831988 1.16789,0 1.79834,0.682127 0.63562,0.682127 0.63562,1.93786 z m -0.94568,-0.744138 q -0.005,-0.764809 -0.38757,-1.183387 -0.37724,-0.418577 -1.15238,-0.418577 -0.78031,0 -1.2454,0.459918 -0.45992,0.459919 -0.52193,1.142046 z" />
      <path
         id="path1482"
         d="m 208.14462,45.184762 h -0.97151 v -3.286611 q 0,-0.397907 -0.0465,-0.744138 -0.0465,-0.351399 -0.17053,-0.547768 -0.12919,-0.217041 -0.37207,-0.320393 -0.24288,-0.10852 -0.63045,-0.10852 -0.39791,0 -0.83199,0.196369 -0.43408,0.19637 -0.83199,0.50126 v 4.309801 h -0.97151 v -5.772239 h 0.97151 v 0.640786 q 0.45476,-0.377237 0.94051,-0.58911 0.48576,-0.211873 0.99735,-0.211873 0.93534,0 1.42627,0.563272 0.49092,0.563271 0.49092,1.622635 z" />
      <path
         id="path1484"
         d="m 213.01253,45.133086 q -0.27389,0.07235 -0.59945,0.118855 -0.32039,0.04651 -0.5736,0.04651 -0.88367,0 -1.34359,-0.475422 -0.45992,-0.475422 -0.45992,-1.52445 v -3.06957 h -0.65629 v -0.816485 h 0.65629 v -1.658808 h 0.97152 v 1.658808 h 2.00504 v 0.816485 h -2.00504 v 2.630322 q 0,0.454751 0.0207,0.713132 0.0207,0.253214 0.14469,0.475422 0.11369,0.206705 0.31006,0.30489 0.20154,0.09302 0.60978,0.09302 0.23771,0 0.49609,-0.06718 0.25838,-0.07235 0.37207,-0.118855 h 0.0517 z" />
      <path
         id="path1486"
         d="m 222.90336,39.412523 -2.33576,5.772239 h -0.97669 l -2.32026,-5.772239 h 1.0542 l 1.788,4.59402 1.77249,-4.59402 z" />
      <path
         id="path1488"
         d="m 228.92365,42.399411 h -4.25295 q 0,0.532266 0.16019,0.930173 0.1602,0.39274 0.43925,0.645953 0.26872,0.248046 0.63562,0.372069 0.37207,0.124023 0.81648,0.124023 0.58911,0 1.18339,-0.232543 0.59944,-0.237711 0.85266,-0.465086 h 0.0517 v 1.059363 q -0.49092,0.206705 -1.00252,0.346231 -0.51159,0.139526 -1.07486,0.139526 -1.4366,0 -2.24275,-0.775144 -0.80615,-0.780311 -0.80615,-2.211744 0,-1.41593 0.76997,-2.247918 0.77515,-0.831988 2.03605,-0.831988 1.16788,0 1.79833,0.682127 0.63562,0.682127 0.63562,1.93786 z m -0.94567,-0.744138 q -0.005,-0.764809 -0.38758,-1.183387 -0.37723,-0.418577 -1.15238,-0.418577 -0.78031,0 -1.24539,0.459918 -0.45992,0.459919 -0.52193,1.142046 z" />
      <path
         id="path1490"
         d="m 233.99826,40.471886 h -0.0517 q -0.21704,-0.05168 -0.42374,-0.07235 -0.20154,-0.02584 -0.48059,-0.02584 -0.44958,0 -0.86816,0.201538 -0.41858,0.19637 -0.80615,0.511595 v 4.097928 h -0.97151 v -5.772239 h 0.97151 v 0.852658 q 0.57877,-0.465086 1.01802,-0.656288 0.44442,-0.19637 0.90434,-0.19637 0.25321,0 0.3669,0.0155 0.11369,0.01033 0.34106,0.04651 z" />
      <path
         id="path1492"
         d="m 240.00304,42.254718 q 0,0.723467 -0.2067,1.302242 -0.20154,0.578774 -0.54777,0.971513 -0.3669,0.408243 -0.80615,0.614948 -0.43925,0.201537 -0.96635,0.201537 -0.49092,0 -0.85782,-0.118855 -0.3669,-0.113688 -0.72347,-0.310058 l -0.062,0.268717 h -0.9095 v -8.040827 h 0.97151 v 2.8732 q 0.40824,-0.335896 0.86816,-0.547768 0.45992,-0.217041 1.03353,-0.217041 1.02319,0 1.6123,0.78548 0.59427,0.785479 0.59427,2.216912 z m -1.00252,0.02584 q 0,-1.033526 -0.34106,-1.565791 -0.34106,-0.537433 -1.1007,-0.537433 -0.42375,0 -0.85783,0.186034 -0.43408,0.180867 -0.80615,0.470254 v 3.307281 q 0.41341,0.186035 0.70796,0.258382 0.29973,0.07235 0.67696,0.07235 0.80615,0 1.2609,-0.527097 0.45992,-0.532266 0.45992,-1.663976 z" />
    </g>
    <path
       id="path920"
       d="m 177.64881,104.32143 12.09524,21.16666"
       style="fill:none;stroke:#000000;stroke-width:0.9525;stroke-linecap:butt;stroke-linejoin:miter;stroke-miterlimit:4;stroke-dasharray:none;stroke-opacity:1;marker-end:url(#marker1316)" />
  </g>
</svg>
