<?xml version="1.0" encoding="UTF-8" standalone="no"?>
<svg
   xmlns:dc="http://purl.org/dc/elements/1.1/"
   xmlns:cc="http://creativecommons.org/ns#"
   xmlns:rdf="http://www.w3.org/1999/02/22-rdf-syntax-ns#"
   xmlns:svg="http://www.w3.org/2000/svg"
   xmlns="http://www.w3.org/2000/svg"
   xmlns:sodipodi="http://sodipodi.sourceforge.net/DTD/sodipodi-0.dtd"
   xmlns:inkscape="http://www.inkscape.org/namespaces/inkscape"
   width="2204.9573"
   height="611.2085"
   viewBox="0 0 583.39494 161.71559"
   version="1.1"
   id="svg8"
   inkscape:version="1.0 (4035a4fb49, 2020-05-01)"
   sodipodi:docname="subjunctive-above-reality.svg">
  <defs
     id="defs2">
    <rect
       id="rect1786"
       height="24.588797"
       width="87.664405"
       y="147.58814"
       x="308.47039" />
    <rect
       id="rect1767"
       height="139.85119"
       width="294.82143"
       y="217.08315"
       x="248.53098" />
    <rect
       x="479.09644"
       y="34.531277"
       width="128.68925"
       height="100.78419"
       id="rect1565" />
    <rect
       x="362.67978"
       y="5.1474123"
       width="136.82738"
       height="40.065475"
       id="rect1511" />
    <marker
       inkscape:stockid="Arrow1Mend"
       orient="auto"
       refY="0"
       refX="0"
       id="marker1316"
       style="overflow:visible"
       inkscape:isstock="true">
      <path
         id="path1314"
         d="M 0,0 5,-5 -12.5,0 5,5 Z"
         style="fill:#000000;fill-opacity:1;fill-rule:evenodd;stroke:#000000;stroke-width:1pt;stroke-opacity:1"
         transform="matrix(-0.4,0,0,-0.4,-4,0)" />
    </marker>
    <marker
       inkscape:stockid="Arrow1Lend"
       orient="auto"
       refY="0"
       refX="0"
       id="Arrow1Lend"
       style="overflow:visible"
       inkscape:isstock="true">
      <path
         id="path925"
         d="M 0,0 5,-5 -12.5,0 5,5 Z"
         style="fill:#000000;fill-opacity:1;fill-rule:evenodd;stroke:#000000;stroke-width:1pt;stroke-opacity:1"
         transform="matrix(-0.8,0,0,-0.8,-10,0)" />
    </marker>
    <marker
       inkscape:stockid="Arrow1Mend"
       orient="auto"
       refY="0"
       refX="0"
       id="Arrow1Mend"
       style="overflow:visible"
       inkscape:isstock="true">
      <path
         id="path931"
         d="M 0,0 5,-5 -12.5,0 5,5 Z"
         style="fill:#000000;fill-opacity:1;fill-rule:evenodd;stroke:#000000;stroke-width:1pt;stroke-opacity:1"
         transform="matrix(-0.4,0,0,-0.4,-4,0)" />
    </marker>
    <rect
       x="173.1131"
       y="35.529762"
       width="257.77975"
       height="49.892857"
       id="rect916" />
    <rect
       x="43.089287"
       y="148.16667"
       width="46.113098"
       height="18.898809"
       id="rect879" />
    <rect
       x="53.672619"
       y="151.94643"
       width="73.327377"
       height="26.458332"
       id="rect873" />
    <rect
       x="37.041668"
       y="89.202377"
       width="139.8512"
       height="35.529762"
       id="rect867" />
    <rect
       x="91.470238"
       y="167.82143"
       width="133.04762"
       height="28.726191"
       id="rect861" />
    <rect
       x="132.29167"
       y="175.38095"
       width="320.5238"
       height="121.70833"
       id="rect855" />
    <rect
       x="166.30952"
       y="176.89285"
       width="247.95238"
       height="75.595238"
       id="rect845" />
    <rect
       x="52.916668"
       y="164.04167"
       width="157.2381"
       height="30.994047"
       id="rect16" />
    <rect
       id="rect879-8"
       height="18.898809"
       width="46.113098"
       y="148.16667"
       x="43.089287" />
    <rect
       id="rect892"
       height="18.898809"
       width="46.113098"
       y="148.16667"
       x="43.089287" />
    <rect
       id="rect1565-1"
       height="100.78419"
       width="128.68925"
       y="34.531277"
       x="479.09644" />
    <rect
       id="rect1578"
       height="100.78419"
       width="128.68925"
       y="34.531277"
       x="479.09644" />
    <rect
       id="rect1565-9"
       height="100.78419"
       width="128.68925"
       y="34.531277"
       x="479.09644" />
    <rect
       id="rect1642"
       height="100.78419"
       width="128.68925"
       y="34.531277"
       x="479.09644" />
    <rect
       id="rect1565-3"
       height="100.78419"
       width="128.68925"
       y="34.531277"
       x="479.09644" />
    <rect
       id="rect1706"
       height="100.78419"
       width="128.68925"
       y="34.531277"
       x="479.09644" />
    <rect
       id="rect1565-19"
       height="100.78419"
       width="128.68925"
       y="34.531277"
       x="479.09644" />
    <rect
       id="rect1769"
       height="100.78419"
       width="128.68925"
       y="34.531277"
       x="479.09644" />
    <rect
       id="rect1565-0"
       height="100.78419"
       width="128.68925"
       y="34.531277"
       x="479.09644" />
    <rect
       id="rect1831"
       height="100.78419"
       width="128.68925"
       y="34.531277"
       x="479.09644" />
    <rect
       x="479.09644"
       y="34.531277"
       width="128.68925"
       height="100.78419"
       id="rect1565-0-4" />
    <rect
       x="479.09644"
       y="34.531277"
       width="128.68925"
       height="100.78419"
       id="rect1866" />
  </defs>
  <sodipodi:namedview
     id="base"
     pagecolor="#ffffff"
     bordercolor="#666666"
     borderopacity="1.0"
     inkscape:pageopacity="0.0"
     inkscape:pageshadow="2"
     inkscape:zoom="0.49497475"
     inkscape:cx="279.10515"
     inkscape:cy="327.06258"
     inkscape:document-units="mm"
     inkscape:current-layer="layer1"
     inkscape:document-rotation="0"
     showgrid="false"
     units="px"
     width="800mm"
     inkscape:window-width="1920"
     inkscape:window-height="1001"
     inkscape:window-x="-9"
     inkscape:window-y="-9"
     inkscape:window-maximized="1"
     fit-margin-top="50"
     fit-margin-bottom="50"
     fit-margin-left="50"
     fit-margin-right="50" />
  <metadata
     id="metadata5">
    <rdf:RDF>
      <cc:Work
         rdf:about="">
        <dc:format>image/svg+xml</dc:format>
        <dc:type
           rdf:resource="http://purl.org/dc/dcmitype/StillImage" />
        <dc:title />
      </cc:Work>
    </rdf:RDF>
  </metadata>
  <g
     inkscape:label="Layer 1"
     inkscape:groupmode="layer"
     id="layer1"
     transform="translate(-53.495261,-14.487916)">
    <path
       style="fill:none;stroke:#000000;stroke-width:2.11667;stroke-linecap:butt;stroke-linejoin:miter;stroke-miterlimit:4;stroke-dasharray:none;stroke-opacity:1"
       d="M 84.666664,135.31547 H 607.7857"
       id="path12"
       sodipodi:nodetypes="cc" />
    <text
       xml:space="preserve"
       id="text14"
       style="font-style:normal;font-weight:normal;font-size:10.5833px;line-height:1.25;font-family:sans-serif;white-space:pre;shape-inside:url(#rect16);fill:#000000;fill-opacity:1;stroke:none;" />
    <text
       xml:space="preserve"
       id="text843"
       style="font-style:normal;font-weight:normal;font-size:14.1111px;line-height:1.25;font-family:sans-serif;white-space:pre;shape-inside:url(#rect845);fill:#000000;fill-opacity:1;stroke:none;" />
    <text
       xml:space="preserve"
       id="text853"
       style="font-style:normal;font-weight:normal;font-size:10.5833px;line-height:1.25;font-family:sans-serif;white-space:pre;shape-inside:url(#rect855);fill:#000000;fill-opacity:1;stroke:none;" />
    <text
       xml:space="preserve"
       id="text865"
       style="font-style:normal;font-weight:normal;font-size:10.5833px;line-height:1.25;font-family:sans-serif;white-space:pre;shape-inside:url(#rect867);fill:#000000;fill-opacity:1;stroke:none;" />
    <g
       aria-label="plane of reality"
       transform="translate(23.434519,-86.934524)"
       id="text859"
       style="font-style:normal;font-weight:normal;font-size:10.5833px;line-height:1.25;font-family:sans-serif;white-space:pre;shape-inside:url(#rect861);fill:#000000;fill-opacity:1;stroke:none">
      <path
         d="m 101.12798,178.54161 q 0,1.12448 -0.32246,2.05879 -0.32246,0.92604 -0.909508,1.57096 -0.545702,0.61184 -1.289841,0.95084 -0.735871,0.33073 -1.562692,0.33073 -0.719335,0 -1.306378,-0.1571 -0.578775,-0.15709 -1.182354,-0.48782 v 3.86952 h -1.554424 v -12.6421 h 1.554424 v 0.96739 q 0.620116,-0.5209 1.389059,-0.86817 0.777212,-0.35553 1.653643,-0.35553 1.670179,0 2.596221,1.26504 0.93431,1.25677 0.93431,3.49745 z m -1.604038,0.0413 q 0,-1.67018 -0.570506,-2.497 -0.570507,-0.82682 -1.752861,-0.82682 -0.669726,0 -1.347719,0.28939 -0.677993,0.28939 -1.298109,0.76067 v 5.23378 q 0.661457,0.29766 1.132745,0.40514 0.479556,0.10749 1.083136,0.10749 1.298109,0 2.025712,-0.87643 0.727602,-0.87643 0.727602,-2.59622 z"
         style="font-size:16.9333px"
         id="path1420" />
      <path
         d="m 105.12152,183.27103 h -1.55442 v -12.86534 h 1.55442 z"
         style="font-size:16.9333px"
         id="path1422" />
      <path
         d="m 115.39064,183.27103 h -1.54615 v -0.98392 q -0.20671,0.14056 -0.56224,0.39688 -0.34727,0.24804 -0.67799,0.39687 -0.38861,0.19017 -0.89297,0.31419 -0.50436,0.13229 -1.18236,0.13229 -1.2485,0 -2.11666,-0.82682 -0.86816,-0.82682 -0.86816,-2.10839 0,-1.05007 0.44648,-1.69499 0.45475,-0.65318 1.28984,-1.02525 0.84336,-0.37207 2.02572,-0.50437 1.18235,-0.13229 2.53834,-0.19843 v -0.23978 q 0,-0.52917 -0.19017,-0.87643 -0.1819,-0.34727 -0.52917,-0.5457 -0.33073,-0.19017 -0.79375,-0.25632 -0.46302,-0.0661 -0.96738,-0.0661 -0.61184,0 -1.36425,0.16536 -0.75241,0.1571 -1.55443,0.46302 h -0.0827 v -1.57923 q 0.45475,-0.12402 1.31465,-0.27285 0.85989,-0.14883 1.69498,-0.14883 0.97565,0 1.69498,0.16537 0.72761,0.15709 1.25677,0.5457 0.5209,0.38034 0.79375,0.98392 0.27285,0.60358 0.27285,1.49654 z m -1.54615,-2.27376 v -2.57141 q -0.71107,0.0413 -1.67845,0.12402 -0.95911,0.0827 -1.52135,0.23978 -0.66973,0.19017 -1.08314,0.59531 -0.41341,0.39687 -0.41341,1.09967 0,0.79375 0.47956,1.19889 0.47955,0.39688 1.46347,0.39688 0.81856,0 1.49655,-0.3142 0.67799,-0.32246 1.25677,-0.76894 z"
         style="font-size:16.9333px"
         id="path1424" />
      <path
         d="m 126.12278,183.27103 h -1.55442 v -5.25858 q 0,-0.63666 -0.0744,-1.19063 -0.0744,-0.56224 -0.27286,-0.87643 -0.2067,-0.34726 -0.59531,-0.51263 -0.3886,-0.17363 -1.00872,-0.17363 -0.63665,0 -1.33118,0.31419 -0.69453,0.31419 -1.33118,0.80202 v 6.89569 h -1.55443 v -9.2356 h 1.55443 v 1.02526 q 0.7276,-0.60358 1.50481,-0.94257 0.77721,-0.339 1.59577,-0.339 1.49654,0 2.28202,0.90124 0.78548,0.90123 0.78548,2.59621 z"
         style="font-size:16.9333px"
         id="path1426" />
      <path
         d="m 136.84666,178.81446 h -6.80474 q 0,0.85163 0.25631,1.48828 0.25632,0.62838 0.7028,1.03353 0.42995,0.39687 1.01699,0.59531 0.59531,0.19844 1.30638,0.19844 0.94257,0 1.89342,-0.37207 0.95911,-0.38034 1.36425,-0.74414 h 0.0827 v 1.69498 q -0.78548,0.33073 -1.60404,0.55397 -0.81855,0.22324 -1.71979,0.22324 -2.29856,0 -3.5884,-1.24023 -1.28984,-1.2485 -1.28984,-3.53879 0,-2.2655 1.23196,-3.59668 1.24023,-1.33118 3.25768,-1.33118 1.86861,0 2.87734,1.0914 1.01699,1.09141 1.01699,3.10058 z m -1.51309,-1.19062 q -0.008,-1.2237 -0.62011,-1.89342 -0.60358,-0.66973 -1.84381,-0.66973 -1.2485,0 -1.99264,0.73587 -0.73587,0.73588 -0.83509,1.82728 z"
         style="font-size:16.9333px"
         id="path1428" />
      <path
         d="m 153.02755,178.65737 q 0,2.25722 -1.15755,3.5636 -1.15755,1.30637 -3.10058,1.30637 -1.95957,0 -3.11712,-1.30637 -1.14928,-1.30638 -1.14928,-3.5636 0,-2.25723 1.14928,-3.5636 1.15755,-1.31465 3.11712,-1.31465 1.94303,0 3.10058,1.31465 1.15755,1.30637 1.15755,3.5636 z m -1.60403,0 q 0,-1.79421 -0.7028,-2.66237 -0.7028,-0.87643 -1.9513,-0.87643 -1.26504,0 -1.96784,0.87643 -0.69453,0.86816 -0.69453,2.66237 0,1.73632 0.7028,2.63756 0.7028,0.89296 1.95957,0.89296 1.24023,0 1.94303,-0.8847 0.71107,-0.89296 0.71107,-2.64582 z"
         style="font-size:16.9333px"
         id="path1430" />
      <path
         d="m 160.41106,171.9105 h -0.0827 q -0.25631,-0.0744 -0.66973,-0.14882 -0.41341,-0.0827 -0.7276,-0.0827 -1.00045,0 -1.4552,0.44649 -0.44649,0.43821 -0.44649,1.59576 v 0.31419 h 2.80293 v 1.30638 h -2.75332 v 7.92922 h -1.55442 v -7.92922 h -1.05006 v -1.30638 h 1.05006 v -0.30592 q 0,-1.64537 0.81855,-2.5218 0.81855,-0.8847 2.36471,-0.8847 0.5209,0 0.93431,0.0496 0.42168,0.0496 0.76894,0.11575 z"
         style="font-size:16.9333px"
         id="path1432" />
      <path
         d="m 173.11104,175.73042 h -0.0827 q -0.34727,-0.0827 -0.678,-0.11576 -0.32246,-0.0413 -0.76894,-0.0413 -0.71934,0 -1.38906,0.32246 -0.66973,0.31419 -1.28984,0.81856 v 6.55669 h -1.55443 v -9.2356 h 1.55443 v 1.36426 q 0.92604,-0.74414 1.62884,-1.05006 0.71106,-0.3142 1.44693,-0.3142 0.40514,0 0.58705,0.0248 0.1819,0.0165 0.5457,0.0744 z"
         style="font-size:16.9333px"
         id="path1434" />
      <path
         d="m 182.32183,178.81446 h -6.80474 q 0,0.85163 0.25632,1.48828 0.25631,0.62838 0.70279,1.03353 0.42995,0.39687 1.01699,0.59531 0.59532,0.19844 1.30638,0.19844 0.94258,0 1.89342,-0.37207 0.95912,-0.38034 1.36426,-0.74414 h 0.0827 v 1.69498 q -0.78548,0.33073 -1.60403,0.55397 -0.81856,0.22324 -1.71979,0.22324 -2.29857,0 -3.58841,-1.24023 -1.28984,-1.2485 -1.28984,-3.53879 0,-2.2655 1.23197,-3.59668 1.24023,-1.33118 3.25767,-1.33118 1.86862,0 2.87734,1.0914 1.01699,1.09141 1.01699,3.10058 z m -1.51308,-1.19062 q -0.008,-1.2237 -0.62012,-1.89342 -0.60358,-0.66973 -1.84381,-0.66973 -1.2485,0 -1.99264,0.73587 -0.73587,0.73588 -0.83509,1.82728 z"
         style="font-size:16.9333px"
         id="path1436" />
      <path
         d="m 191.85508,183.27103 h -1.54616 v -0.98392 q -0.2067,0.14056 -0.56223,0.39688 -0.34727,0.24804 -0.678,0.39687 -0.3886,0.19017 -0.89297,0.31419 -0.50436,0.13229 -1.18235,0.13229 -1.2485,0 -2.11666,-0.82682 -0.86816,-0.82682 -0.86816,-2.10839 0,-1.05007 0.44648,-1.69499 0.45475,-0.65318 1.28984,-1.02525 0.84336,-0.37207 2.02571,-0.50437 1.18236,-0.13229 2.53834,-0.19843 v -0.23978 q 0,-0.52917 -0.19017,-0.87643 -0.1819,-0.34727 -0.52916,-0.5457 -0.33073,-0.19017 -0.79375,-0.25632 -0.46302,-0.0661 -0.96738,-0.0661 -0.61185,0 -1.36426,0.16536 -0.7524,0.1571 -1.55442,0.46302 h -0.0827 v -1.57923 q 0.45475,-0.12402 1.31464,-0.27285 0.8599,-0.14883 1.69499,-0.14883 0.97565,0 1.69498,0.16537 0.7276,0.15709 1.25677,0.5457 0.5209,0.38034 0.79375,0.98392 0.27285,0.60358 0.27285,1.49654 z m -1.54616,-2.27376 v -2.57141 q -0.71106,0.0413 -1.67844,0.12402 -0.95912,0.0827 -1.52135,0.23978 -0.66973,0.19017 -1.08314,0.59531 -0.41341,0.39687 -0.41341,1.09967 0,0.79375 0.47955,1.19889 0.47956,0.39688 1.46348,0.39688 0.81855,0 1.49655,-0.3142 0.67799,-0.32246 1.25676,-0.76894 z"
         style="font-size:16.9333px"
         id="path1438" />
      <path
         d="m 196.43566,183.27103 h -1.55442 v -12.86534 h 1.55442 z"
         style="font-size:16.9333px"
         id="path1440" />
      <path
         d="m 201.19816,172.48928 h -1.75286 v -1.6123 h 1.75286 z m -0.0992,10.78175 h -1.55442 v -9.2356 h 1.55442 z"
         style="font-size:16.9333px"
         id="path1442" />
      <path
         d="m 208.98681,183.18835 q -0.43821,0.11575 -0.95911,0.19017 -0.51263,0.0744 -0.91777,0.0744 -1.41387,0 -2.14974,-0.76068 -0.73587,-0.76067 -0.73587,-2.43912 v -4.91132 h -1.05006 v -1.30638 h 1.05006 v -2.65409 h 1.55442 v 2.65409 h 3.20807 v 1.30638 h -3.20807 v 4.20852 q 0,0.72761 0.0331,1.14102 0.0331,0.40514 0.23151,0.76067 0.1819,0.33073 0.49609,0.48783 0.32246,0.14882 0.97565,0.14882 0.38034,0 0.79375,-0.10748 0.41341,-0.11576 0.59531,-0.19017 h 0.0827 z"
         style="font-size:16.9333px"
         id="path1444" />
      <path
         d="m 218.79291,174.03543 -5.39087,12.6421 h -1.66191 l 1.71979,-3.85298 -3.67936,-8.78912 h 1.68672 l 2.83599,6.84609 2.8608,-6.84609 z"
         style="font-size:16.9333px"
         id="path1446" />
    </g>
    <text
       xml:space="preserve"
       id="text871"
       style="font-style:normal;font-weight:normal;font-size:10.5833px;line-height:1.25;font-family:sans-serif;white-space:pre;shape-inside:url(#rect873);fill:#000000;fill-opacity:1;stroke:none;" />
    <g
       aria-label="past"
       transform="matrix(1.6325889,0,0,1.6325889,-5.1843463,-98.159109)"
       id="text877"
       style="font-style:normal;font-weight:normal;font-size:10.5833px;line-height:1.25;font-family:sans-serif;white-space:pre;shape-inside:url(#rect879);fill:#000000;fill-opacity:1;stroke:none">
      <path
         d="m 49.125632,154.8656 q 0,0.7028 -0.201538,1.28674 -0.201537,0.57877 -0.568439,0.98185 -0.341063,0.3824 -0.806149,0.59427 -0.459919,0.20671 -0.976682,0.20671 -0.449583,0 -0.816485,-0.0982 -0.361734,-0.0982 -0.73897,-0.30489 v 2.41845 h -0.971514 v -7.9013 h 0.971514 v 0.60461 q 0.387572,-0.32556 0.868161,-0.5426 0.485757,-0.2222 1.033525,-0.2222 1.043861,0 1.622635,0.79064 0.583942,0.78548 0.583942,2.18591 z m -1.00252,0.0258 q 0,-1.04386 -0.356566,-1.56063 -0.356566,-0.51676 -1.095537,-0.51676 -0.418578,0 -0.842323,0.18087 -0.423745,0.18086 -0.811317,0.47542 v 3.27111 q 0.41341,0.18603 0.707964,0.25321 0.299723,0.0672 0.67696,0.0672 0.811317,0 1.266068,-0.54777 0.454751,-0.54777 0.454751,-1.62263 z"
         id="path1449" />
      <path
         d="M 55.125246,157.82148 H 54.1589 v -0.61495 q -0.129191,0.0879 -0.351398,0.24805 -0.217041,0.15503 -0.423746,0.24805 -0.242878,0.11885 -0.558104,0.19637 -0.315225,0.0827 -0.73897,0.0827 -0.780312,0 -1.322913,-0.51677 -0.5426,-0.51676 -0.5426,-1.31774 0,-0.65629 0.279051,-1.05936 0.28422,-0.40825 0.80615,-0.64079 0.527098,-0.23254 1.266069,-0.31522 0.73897,-0.0827 1.586461,-0.12403 v -0.14986 q 0,-0.33073 -0.118855,-0.54777 -0.113688,-0.21704 -0.330728,-0.34106 -0.206705,-0.11886 -0.496093,-0.1602 -0.289387,-0.0413 -0.604612,-0.0413 -0.382404,0 -0.852658,0.10335 -0.470254,0.0982 -0.971514,0.28939 h -0.05168 v -0.98702 q 0.284219,-0.0775 0.821652,-0.17053 0.537433,-0.093 1.059364,-0.093 0.60978,0 1.059363,0.10335 0.454751,0.0982 0.78548,0.34106 0.32556,0.23771 0.496092,0.61495 0.170531,0.37724 0.170531,0.93534 z m -0.966346,-1.4211 v -1.60713 q -0.444416,0.0258 -1.049028,0.0775 -0.599445,0.0517 -0.950843,0.14986 -0.418578,0.11885 -0.67696,0.37207 -0.258381,0.24804 -0.258381,0.68729 0,0.49609 0.299723,0.74931 0.299722,0.24804 0.914669,0.24804 0.511595,0 0.935341,-0.19637 0.423745,-0.20153 0.785479,-0.48059 z"
         id="path1451" />
      <path
         d="m 61.130028,156.1575 q 0,0.79065 -0.656288,1.29708 -0.651121,0.50643 -1.782832,0.50643 -0.640785,0 -1.178219,-0.14986 -0.532265,-0.15503 -0.893999,-0.3359 v -1.09037 h 0.05168 q 0.459919,0.34623 1.02319,0.55294 0.563272,0.20153 1.080034,0.20153 0.640786,0 1.00252,-0.2067 0.361734,-0.20671 0.361734,-0.65112 0,-0.34107 -0.19637,-0.51676 -0.19637,-0.1757 -0.754474,-0.29973 -0.206705,-0.0465 -0.5426,-0.10852 -0.330728,-0.062 -0.604613,-0.13436 -0.759641,-0.20153 -1.080034,-0.5891 -0.315225,-0.39274 -0.315225,-0.96118 0,-0.35657 0.144694,-0.6718 0.149861,-0.31522 0.449583,-0.56327 0.289387,-0.24287 0.733803,-0.3824 0.449584,-0.14469 1.00252,-0.14469 0.516762,0 1.04386,0.12919 0.532266,0.12402 0.883665,0.30489 v 1.03869 h -0.05168 q -0.372069,-0.27388 -0.904334,-0.45992 -0.532266,-0.1912 -1.043861,-0.1912 -0.532266,0 -0.899167,0.2067 -0.366902,0.20154 -0.366902,0.60462 0,0.35656 0.222208,0.53743 0.217041,0.18087 0.702798,0.29455 0.268716,0.062 0.599444,0.12403 0.335896,0.062 0.558104,0.11368 0.676959,0.15503 1.043861,0.53227 0.366901,0.3824 0.3669,1.01285 z"
         id="path1453" />
      <path
         d="m 65.522511,157.7698 q -0.273884,0.0724 -0.599444,0.11886 -0.320393,0.0465 -0.573607,0.0465 -0.883664,0 -1.343583,-0.47542 -0.459919,-0.47542 -0.459919,-1.52445 v -3.06957 H 61.88967 v -0.81649 h 0.656288 v -1.65881 h 0.971514 v 1.65881 h 2.005039 v 0.81649 h -2.005039 v 2.63032 q 0,0.45475 0.02067,0.71313 0.02067,0.25321 0.144693,0.47542 0.113688,0.20671 0.310058,0.30489 0.201537,0.093 0.60978,0.093 0.237711,0 0.496092,-0.0672 0.258381,-0.0724 0.372069,-0.11885 h 0.05168 z"
         id="path1455" />
    </g>
    <g
       aria-label="future"
       transform="matrix(1.6325889,0,0,1.6325889,501.71471,-96.01201)"
       id="text877-7"
       style="font-style:normal;font-weight:normal;font-size:10.5833px;line-height:1.25;font-family:sans-serif;white-space:pre;shape-inside:url(#rect879-8);fill:#000000;fill-opacity:1;stroke:none">
      <path
         d="m 47.151598,150.72116 h -0.05168 q -0.160196,-0.0465 -0.418578,-0.093 -0.258381,-0.0517 -0.454751,-0.0517 -0.625283,0 -0.909502,0.27905 -0.279052,0.27388 -0.279052,0.99735 v 0.19637 h 1.751826 v 0.81649 h -1.72082 v 4.95575 h -0.971514 v -4.95575 h -0.656289 v -0.81649 h 0.656289 v -0.1912 q 0,-1.02836 0.511595,-1.57613 0.511595,-0.55293 1.477941,-0.55293 0.325561,0 0.583942,0.031 0.263549,0.031 0.480589,0.0724 z"
         id="path1458" />
      <path
         d="m 52.551768,157.82148 h -0.971514 v -0.64078 q -0.490924,0.38757 -0.940508,0.59427 -0.449583,0.20671 -0.992184,0.20671 -0.909502,0 -1.41593,-0.55294 -0.506427,-0.5581 -0.506427,-1.63297 v -3.74653 h 0.971514 v 3.28661 q 0,0.43925 0.04134,0.75448 0.04134,0.31005 0.175699,0.53226 0.139526,0.22738 0.361734,0.33073 0.222208,0.10335 0.645953,0.10335 0.377237,0 0.821653,-0.19637 0.449583,-0.19637 0.837155,-0.50126 v -4.3098 h 0.971514 z"
         id="path1460" />
      <path
         d="m 57.461014,157.7698 q -0.273885,0.0724 -0.599445,0.11886 -0.320393,0.0465 -0.573607,0.0465 -0.883664,0 -1.343583,-0.47542 -0.459918,-0.47542 -0.459918,-1.52445 v -3.06957 h -0.656289 v -0.81649 h 0.656289 v -1.65881 h 0.971513 v 1.65881 h 2.00504 v 0.81649 h -2.00504 v 2.63032 q 0,0.45475 0.02067,0.71313 0.02067,0.25321 0.144693,0.47542 0.113688,0.20671 0.310058,0.30489 0.201538,0.093 0.60978,0.093 0.237711,0 0.496092,-0.0672 0.258382,-0.0724 0.372069,-0.11885 h 0.05168 z"
         id="path1462" />
      <path
         d="m 63.424455,157.82148 h -0.971514 v -0.64078 q -0.490924,0.38757 -0.940508,0.59427 -0.449583,0.20671 -0.992184,0.20671 -0.909502,0 -1.41593,-0.55294 -0.506427,-0.5581 -0.506427,-1.63297 v -3.74653 h 0.971514 v 3.28661 q 0,0.43925 0.04134,0.75448 0.04134,0.31005 0.175699,0.53226 0.139526,0.22738 0.361734,0.33073 0.222208,0.10335 0.645953,0.10335 0.377237,0 0.821653,-0.19637 0.449583,-0.19637 0.837155,-0.50126 v -4.3098 h 0.971514 z"
         id="path1464" />
      <path
         d="m 68.938313,153.10861 h -0.05168 q -0.21704,-0.0517 -0.423745,-0.0724 -0.201538,-0.0258 -0.48059,-0.0258 -0.449583,0 -0.868161,0.20154 -0.418578,0.19637 -0.80615,0.51159 v 4.09793 h -0.971514 v -5.77224 h 0.971514 v 0.85266 q 0.578774,-0.46509 1.018023,-0.65629 0.444416,-0.19637 0.904334,-0.19637 0.253214,0 0.366902,0.0155 0.113688,0.0103 0.341063,0.0465 z"
         id="path1466" />
      <path
         d="m 74.695049,155.03613 h -4.252957 q 0,0.53227 0.160196,0.93017 0.160197,0.39274 0.439249,0.64596 0.268716,0.24804 0.635618,0.37207 0.372069,0.12402 0.816485,0.12402 0.589109,0 1.183386,-0.23254 0.599445,-0.23772 0.852659,-0.46509 h 0.05168 v 1.05936 q -0.490925,0.20671 -1.00252,0.34623 -0.511595,0.13953 -1.074866,0.13953 -1.4366,0 -2.24275,-0.77514 -0.80615,-0.78032 -0.80615,-2.21175 0,-1.41593 0.769976,-2.24792 0.775145,-0.83198 2.036045,-0.83198 1.167884,0 1.798335,0.68212 0.635618,0.68213 0.635618,1.93786 z m -0.945676,-0.74414 q -0.0052,-0.76481 -0.387572,-1.18338 -0.377237,-0.41858 -1.152381,-0.41858 -0.780311,0 -1.245398,0.45992 -0.459919,0.45991 -0.52193,1.14204 z"
         id="path1468" />
    </g>
    <path
       style="fill:none;stroke:#000000;stroke-width:0.9525;stroke-linecap:butt;stroke-linejoin:miter;stroke-miterlimit:4;stroke-dasharray:none;stroke-opacity:1;marker-end:url(#marker1316)"
       d="m 177.64881,104.32143 12.09524,21.16666"
       id="path920" />
    <path
       id="path1507"
       style="fill:#ffffff;stroke:#1a1a1a;stroke-width:0.989323;stroke-miterlimit:4;stroke-dasharray:3.95731, 0.989323;stroke-dashoffset:0"
       d="M 487.81284,70.485231 A 57.279903,26.69248 0 0 1 430.53292,97.177712 57.279903,26.69248 0 0 1 373.25303,70.485231 57.279903,26.69248 0 0 1 430.53292,43.79275 57.279903,26.69248 0 0 1 487.81284,70.485231 Z" />
    <g
       aria-label="subjunctive"
       transform="matrix(1.6460169,0,0,1.6460169,-215.73737,50.298331)"
       id="text1509"
       style="font-style:normal;font-weight:normal;font-size:10.5833px;line-height:1.25;font-family:sans-serif;white-space:pre;shape-inside:url(#rect1511);fill:#000000;fill-opacity:1;stroke:none">
      <path
         d="m 367.75946,13.137974 q 0,0.790647 -0.65628,1.297074 -0.65112,0.506427 -1.78284,0.506427 -0.64078,0 -1.17821,-0.149861 -0.53227,-0.155029 -0.894,-0.335896 v -1.090369 h 0.0517 q 0.45992,0.346231 1.02319,0.552936 0.56327,0.201538 1.08004,0.201538 0.64078,0 1.00252,-0.206705 0.36173,-0.206705 0.36173,-0.651121 0,-0.341064 -0.19637,-0.516763 -0.19637,-0.175699 -0.75447,-0.299722 -0.20671,-0.04651 -0.5426,-0.10852 -0.33073,-0.06201 -0.60462,-0.134359 -0.75964,-0.201537 -1.08003,-0.589109 -0.31523,-0.39274 -0.31523,-0.961179 0,-0.356566 0.1447,-0.6717913 0.14986,-0.3152252 0.44958,-0.5632713 0.28939,-0.2428785 0.7338,-0.3824044 0.44959,-0.1446935 1.00252,-0.1446935 0.51677,0 1.04386,0.1291906 0.53227,0.1240231 0.88367,0.30489 v 1.0386929 h -0.0517 q -0.37207,-0.273884 -0.90433,-0.4599187 -0.53227,-0.1912022 -1.04386,-0.1912022 -0.53227,0 -0.89917,0.2067051 -0.3669,0.2015378 -0.3669,0.6046128 0,0.356566 0.22221,0.537433 0.21704,0.180867 0.70279,0.294554 0.26872,0.06201 0.59945,0.124023 0.33589,0.06201 0.5581,0.113688 0.67696,0.155029 1.04386,0.532266 0.3669,0.382404 0.3669,1.012855 z"
         id="path1528" />
      <path
         d="m 373.93995,14.801949 h -0.97152 v -0.640785 q -0.49092,0.387572 -0.94051,0.594277 -0.44958,0.206705 -0.99218,0.206705 -0.9095,0 -1.41593,-0.552936 -0.50643,-0.558104 -0.50643,-1.63297 V 9.0297104 h 0.97152 v 3.2866106 q 0,0.439248 0.0413,0.754474 0.0413,0.310057 0.1757,0.532265 0.13952,0.227376 0.36173,0.330728 0.22221,0.103353 0.64595,0.103353 0.37724,0 0.82166,-0.19637 0.44958,-0.19637 0.83715,-0.50126 V 9.0297104 h 0.97152 z"
         id="path1530" />
      <path
         d="m 380.93175,11.871905 q 0,0.723468 -0.20671,1.302242 -0.20154,0.578774 -0.54777,0.971514 -0.3669,0.408242 -0.80615,0.614947 -0.43925,0.201538 -0.96634,0.201538 -0.49093,0 -0.85783,-0.118856 -0.3669,-0.113687 -0.72347,-0.310057 l -0.062,0.268716 h -0.9095 V 6.7611222 h 0.97151 v 2.8732005 q 0.40824,-0.3358957 0.86816,-0.5477684 0.45992,-0.2170404 1.03353,-0.2170404 1.02319,0 1.6123,0.7854793 0.59428,0.7854788 0.59428,2.2169118 z m -1.00252,0.02584 q 0,-1.033525 -0.34107,-1.565791 -0.34106,-0.5374329 -1.1007,-0.5374329 -0.42375,0 -0.85783,0.1860346 -0.43408,0.1808673 -0.80615,0.4702543 v 3.307281 q 0.41341,0.186034 0.70797,0.258381 0.29972,0.07235 0.67696,0.07235 0.80615,0 1.2609,-0.527098 0.45992,-0.532265 0.45992,-1.663976 z"
         id="path1532" />
      <path
         d="m 384.24419,8.0633642 h -1.09553 V 7.0556769 h 1.09553 z m -0.062,6.8781108 q 0,1.012855 -0.51676,1.529618 -0.51676,0.516763 -1.38492,0.516763 -0.20671,0 -0.54777,-0.04134 -0.3359,-0.04134 -0.56327,-0.103353 v -0.925005 h 0.0517 q 0.1447,0.05684 0.38757,0.129191 0.24805,0.07235 0.48059,0.07235 0.37207,0 0.59945,-0.103352 0.22737,-0.103353 0.34106,-0.310058 0.11369,-0.206705 0.1447,-0.50126 0.0362,-0.289387 0.0362,-0.707964 V 9.8461954 h -1.20406 v -0.816485 h 2.17557 z"
         id="path1534" />
      <path
         d="m 390.86909,14.801949 h -0.97151 v -0.640785 q -0.49093,0.387572 -0.94051,0.594277 -0.44958,0.206705 -0.99219,0.206705 -0.9095,0 -1.41593,-0.552936 -0.50642,-0.558104 -0.50642,-1.63297 V 9.0297104 h 0.97151 v 3.2866106 q 0,0.439248 0.0413,0.754474 0.0413,0.310057 0.1757,0.532265 0.13953,0.227376 0.36174,0.330728 0.2222,0.103353 0.64595,0.103353 0.37724,0 0.82165,-0.19637 0.44958,-0.19637 0.83716,-0.50126 V 9.0297104 h 0.97151 z"
         id="path1536" />
      <path
         d="m 397.60768,14.801949 h -0.97152 v -3.28661 q 0,-0.397907 -0.0465,-0.744138 -0.0465,-0.351399 -0.17053,-0.547769 -0.12919,-0.21704 -0.37207,-0.3203927 -0.24288,-0.1085202 -0.63045,-0.1085202 -0.3979,0 -0.83199,0.1963699 -0.43408,0.19637 -0.83198,0.50126 v 4.3098 h -0.97152 V 9.0297104 h 0.97152 v 0.6407857 q 0.45475,-0.3772368 0.9405,-0.5891095 0.48576,-0.2118727 0.99736,-0.2118727 0.93534,0 1.42626,0.5632714 0.49093,0.5632713 0.49093,1.6226347 z"
         id="path1538" />
      <path
         d="m 403.74682,14.440216 q -0.48576,0.232543 -0.92501,0.361733 -0.43408,0.129191 -0.925,0.129191 -0.62529,0 -1.14722,-0.180867 -0.52193,-0.186034 -0.894,-0.558103 -0.37723,-0.37207 -0.58394,-0.940509 -0.2067,-0.568438 -0.2067,-1.32808 0,-1.415929 0.77514,-2.2220791 0.78031,-0.8061498 2.05672,-0.8061498 0.49609,0 0.97151,0.1395259 0.48059,0.1395259 0.8785,0.3410634 v 1.0800336 h -0.0517 q -0.44442,-0.346231 -0.91984,-0.5322652 -0.47025,-0.1860346 -0.91983,-0.1860346 -0.82682,0 -1.30741,0.5581038 -0.47543,0.552936 -0.47543,1.627802 0,1.043861 0.46509,1.607132 0.47025,0.558104 1.31775,0.558104 0.29455,0 0.59944,-0.07751 0.30489,-0.07752 0.54777,-0.201538 0.21187,-0.10852 0.39791,-0.227375 0.18603,-0.124023 0.29455,-0.211873 h 0.0517 z"
         id="path1540" />
      <path
         d="m 407.9946,14.750273 q -0.27388,0.07235 -0.59944,0.118856 -0.32039,0.04651 -0.57361,0.04651 -0.88366,0 -1.34358,-0.475421 -0.45992,-0.475422 -0.45992,-1.52445 V 9.8461954 h -0.65629 v -0.816485 h 0.65629 V 7.3709022 h 0.97152 v 1.6588082 h 2.00503 v 0.816485 h -2.00503 v 2.6303216 q 0,0.454752 0.0207,0.713133 0.0207,0.253214 0.14469,0.475422 0.11369,0.206705 0.31006,0.30489 0.20153,0.09302 0.60978,0.09302 0.23771,0 0.49609,-0.06718 0.25838,-0.07235 0.37207,-0.118856 h 0.0517 z"
         id="path1542" />
      <path
         d="m 410.21668,8.0633642 h -1.09553 V 7.0556769 h 1.09553 z m -0.062,6.7385848 h -0.97151 V 9.0297104 h 0.97151 z"
         id="path1544" />
      <path
         d="m 417.07929,9.0297104 -2.33576,5.7722386 h -0.97669 l -2.32026,-5.7722386 h 1.0542 l 1.788,4.5940206 1.77249,-4.5940206 z"
         id="path1546" />
      <path
         d="m 423.09958,12.016599 h -4.25296 q 0,0.532265 0.1602,0.930172 0.16019,0.39274 0.43925,0.645954 0.26871,0.248046 0.63561,0.372069 0.37207,0.124023 0.81649,0.124023 0.58911,0 1.18339,-0.232543 0.59944,-0.237711 0.85265,-0.465087 h 0.0517 v 1.059364 q -0.49092,0.206705 -1.00252,0.346231 -0.51159,0.139526 -1.07487,0.139526 -1.4366,0 -2.24275,-0.775144 -0.80615,-0.780312 -0.80615,-2.211744 0,-1.41593 0.76998,-2.2479181 0.77515,-0.831988 2.03605,-0.831988 1.16788,0 1.79833,0.6821268 0.63562,0.6821263 0.63562,1.9378603 z M 422.1539,11.27246 q -0.005,-0.764808 -0.38757,-1.183386 -0.37724,-0.4185779 -1.15238,-0.4185779 -0.78031,0 -1.2454,0.4599189 -0.45992,0.459919 -0.52193,1.142045 z"
         id="path1548" />
    </g>
    <g
       aria-label=" opinion "
       transform="matrix(1.4475454,0,0,1.4475454,-272.61014,-35.343017)"
       id="text1563"
       style="font-style:normal;font-weight:normal;font-size:10.5833px;line-height:1.25;font-family:sans-serif;text-align:center;text-anchor:middle;white-space:pre;shape-inside:url(#rect1565);fill:#808080;fill-opacity:1;stroke:none">
      <path
         d="m 529.97876,54.532305 q 0,1.410762 -0.72347,2.227247 -0.72346,0.816486 -1.93786,0.816486 -1.22472,0 -1.94819,-0.816486 -0.7183,-0.816485 -0.7183,-2.227247 0,-1.410762 0.7183,-2.227247 0.72347,-0.821652 1.94819,-0.821652 1.2144,0 1.93786,0.821652 0.72347,0.816485 0.72347,2.227247 z m -1.00252,0 q 0,-1.121375 -0.43925,-1.663975 -0.43924,-0.547769 -1.21956,-0.547769 -0.79064,0 -1.22989,0.547769 -0.43408,0.5426 -0.43408,1.663975 0,1.085202 0.43925,1.648473 0.43924,0.558104 1.22472,0.558104 0.77515,0 1.2144,-0.552936 0.44441,-0.558104 0.44441,-1.653641 z"
         style="text-align:center;text-anchor:middle;fill:#808080"
         id="path1907" />
      <path
         d="m 536.56749,54.459959 q 0,0.702797 -0.20154,1.286739 -0.20154,0.578774 -0.56844,0.981849 -0.34106,0.382404 -0.80615,0.594277 -0.45992,0.206705 -0.97668,0.206705 -0.44958,0 -0.81649,-0.09818 -0.36173,-0.09819 -0.73897,-0.30489 v 2.418449 h -0.97151 v -7.901301 h 0.97151 v 0.604612 q 0.38757,-0.32556 0.86816,-0.542601 0.48576,-0.222207 1.03353,-0.222207 1.04386,0 1.62263,0.790646 0.58395,0.78548 0.58395,2.185907 z m -1.00252,0.02584 q 0,-1.043861 -0.35657,-1.560624 -0.35657,-0.516762 -1.09554,-0.516762 -0.41857,0 -0.84232,0.180867 -0.42375,0.180867 -0.81132,0.475421 v 3.271108 q 0.41341,0.186035 0.70797,0.253214 0.29972,0.06718 0.67696,0.06718 0.81131,0 1.26607,-0.547768 0.45475,-0.547769 0.45475,-1.622636 z"
         style="text-align:center;text-anchor:middle;fill:#808080"
         id="path1909" />
      <path
         d="m 539.12546,50.677256 h -1.09554 v -1.007687 h 1.09554 z m -0.062,6.738585 h -0.97151 v -5.772239 h 0.97151 z"
         style="text-align:center;text-anchor:middle;fill:#808080"
         id="path1911" />
      <path
         d="m 545.82271,57.415841 h -0.97152 V 54.12923 q 0,-0.397907 -0.0465,-0.744138 -0.0465,-0.351398 -0.17053,-0.547768 -0.12919,-0.217041 -0.37207,-0.320393 -0.24288,-0.10852 -0.63045,-0.10852 -0.39791,0 -0.83199,0.19637 -0.43408,0.196369 -0.83198,0.501259 v 4.309801 h -0.97152 v -5.772239 h 0.97152 v 0.640786 q 0.45475,-0.377237 0.9405,-0.58911 0.48576,-0.211872 0.99736,-0.211872 0.93534,0 1.42626,0.563271 0.49093,0.563271 0.49093,1.622635 z"
         style="text-align:center;text-anchor:middle;fill:#808080"
         id="path1913" />
      <path
         d="m 548.73725,50.677256 h -1.09554 v -1.007687 h 1.09554 z m -0.062,6.738585 h -0.97152 v -5.772239 h 0.97152 z"
         style="text-align:center;text-anchor:middle;fill:#808080"
         id="path1915" />
      <path
         d="m 555.52751,54.532305 q 0,1.410762 -0.72347,2.227247 -0.72347,0.816486 -1.93786,0.816486 -1.22473,0 -1.9482,-0.816486 -0.7183,-0.816485 -0.7183,-2.227247 0,-1.410762 0.7183,-2.227247 0.72347,-0.821652 1.9482,-0.821652 1.21439,0 1.93786,0.821652 0.72347,0.816485 0.72347,2.227247 z m -1.00252,0 q 0,-1.121375 -0.43925,-1.663975 -0.43925,-0.547769 -1.21956,-0.547769 -0.79065,0 -1.22989,0.547769 -0.43409,0.5426 -0.43409,1.663975 0,1.085202 0.43925,1.648473 0.43925,0.558104 1.22473,0.558104 0.77514,0 1.21439,-0.552936 0.44442,-0.558104 0.44442,-1.653641 z"
         style="text-align:center;text-anchor:middle;fill:#808080"
         id="path1917" />
      <path
         d="M 561.86302,57.415841 H 560.8915 V 54.12923 q 0,-0.397907 -0.0465,-0.744138 -0.0465,-0.351398 -0.17054,-0.547768 -0.12919,-0.217041 -0.37206,-0.320393 -0.24288,-0.10852 -0.63046,-0.10852 -0.3979,0 -0.83198,0.19637 -0.43408,0.196369 -0.83199,0.501259 v 4.309801 h -0.97151 v -5.772239 h 0.97151 v 0.640786 q 0.45475,-0.377237 0.94051,-0.58911 0.48575,-0.211872 0.99735,-0.211872 0.93534,0 1.42626,0.563271 0.49093,0.563271 0.49093,1.622635 z"
         style="text-align:center;text-anchor:middle;fill:#808080"
         id="path1919" />
    </g>
    <g
       aria-label=" desire "
       transform="matrix(1.5326469,0,0,1.5326469,-494.31831,-0.13515055)"
       id="text1563-2"
       style="font-style:normal;font-weight:normal;font-size:10.5833px;line-height:1.25;font-family:sans-serif;text-align:center;white-space:pre;shape-inside:url(#rect1565-9);fill:#808080;fill-opacity:1;stroke:none">
      <path
         d="m 532.99666,57.415841 h -0.97152 v -0.604612 q -0.41858,0.361734 -0.87333,0.563271 -0.45475,0.201538 -0.98701,0.201538 -1.03353,0 -1.64331,-0.795815 -0.60461,-0.795815 -0.60461,-2.206577 0,-0.733803 0.2067,-1.307409 0.21188,-0.573607 0.56844,-0.976682 0.3514,-0.392739 0.81649,-0.599444 0.47025,-0.206705 0.97151,-0.206705 0.45475,0 0.80615,0.09818 0.3514,0.09302 0.73897,0.294555 V 49.37501 h 0.97152 z m -0.97152,-1.421097 v -3.312449 q -0.39274,-0.175699 -0.7028,-0.242878 -0.31005,-0.06718 -0.67695,-0.06718 -0.81649,0 -1.27124,0.568439 -0.45475,0.568439 -0.45475,1.6123 0,1.028358 0.3514,1.565791 0.3514,0.532265 1.12654,0.532265 0.41341,0 0.83716,-0.180867 0.42374,-0.186034 0.79064,-0.475421 z"
         style="text-align:center;text-anchor:middle;fill:#808080"
         id="path1922" />
      <path
         d="m 539.74041,54.63049 h -4.25296 q 0,0.532266 0.1602,0.930173 0.16019,0.39274 0.43925,0.645953 0.26871,0.248047 0.63561,0.37207 0.37207,0.124023 0.81649,0.124023 0.58911,0 1.18339,-0.232544 0.59944,-0.23771 0.85265,-0.465086 h 0.0517 v 1.059363 q -0.49092,0.206706 -1.00252,0.346231 -0.51159,0.139526 -1.07486,0.139526 -1.43661,0 -2.24276,-0.775144 -0.80614,-0.780311 -0.80614,-2.211744 0,-1.41593 0.76997,-2.247918 0.77515,-0.831987 2.03605,-0.831987 1.16788,0 1.79833,0.682126 0.63562,0.682127 0.63562,1.93786 z m -0.94568,-0.744138 q -0.005,-0.764809 -0.38757,-1.183387 -0.37724,-0.418577 -1.15238,-0.418577 -0.78031,0 -1.2454,0.459918 -0.45992,0.459919 -0.52193,1.142046 z"
         style="text-align:center;text-anchor:middle;fill:#808080"
         id="path1924" />
      <path
         d="m 545.33695,55.751865 q 0,0.790647 -0.65629,1.297075 -0.65112,0.506427 -1.78283,0.506427 -0.64079,0 -1.17822,-0.149861 -0.53227,-0.155029 -0.894,-0.335896 v -1.090369 h 0.0517 q 0.45992,0.346231 1.02319,0.552936 0.56327,0.201537 1.08003,0.201537 0.64079,0 1.00252,-0.206705 0.36173,-0.206705 0.36173,-0.651121 0,-0.341063 -0.19637,-0.516762 -0.19637,-0.1757 -0.75447,-0.299723 -0.2067,-0.04651 -0.5426,-0.10852 -0.33073,-0.06201 -0.60461,-0.134358 -0.75964,-0.201538 -1.08004,-0.58911 -0.31522,-0.392739 -0.31522,-0.961178 0,-0.356566 0.14469,-0.671792 0.14986,-0.315225 0.44959,-0.563271 0.28938,-0.242878 0.7338,-0.382404 0.44958,-0.144694 1.00252,-0.144694 0.51676,0 1.04386,0.129191 0.53226,0.124023 0.88366,0.30489 v 1.038693 h -0.0517 q -0.37207,-0.273885 -0.90434,-0.459919 -0.53226,-0.191202 -1.04386,-0.191202 -0.53226,0 -0.89917,0.206705 -0.3669,0.201537 -0.3669,0.604612 0,0.356566 0.22221,0.537433 0.21704,0.180867 0.7028,0.294555 0.26871,0.06201 0.59944,0.124023 0.3359,0.06201 0.55811,0.113688 0.67696,0.155029 1.04386,0.532265 0.3669,0.382405 0.3669,1.012855 z"
         style="text-align:center;text-anchor:middle;fill:#808080"
         id="path1926" />
      <path
         d="m 547.77607,50.677256 h -1.09554 v -1.007687 h 1.09554 z m -0.062,6.738585 h -0.97152 v -5.772239 h 0.97152 z"
         style="text-align:center;text-anchor:middle;fill:#808080"
         id="path1928" />
      <path
         d="m 553.24858,52.702965 h -0.0517 q -0.21704,-0.05168 -0.42375,-0.07235 -0.20153,-0.02584 -0.48059,-0.02584 -0.44958,0 -0.86816,0.201537 -0.41858,0.19637 -0.80615,0.511595 v 4.097928 h -0.97151 v -5.772239 h 0.97151 v 0.852658 q 0.57878,-0.465086 1.01803,-0.656288 0.44441,-0.19637 0.90433,-0.19637 0.25321,0 0.3669,0.0155 0.11369,0.01034 0.34106,0.04651 z"
         style="text-align:center;text-anchor:middle;fill:#808080"
         id="path1930" />
      <path
         d="m 559.00532,54.63049 h -4.25295 q 0,0.532266 0.16019,0.930173 0.1602,0.39274 0.43925,0.645953 0.26872,0.248047 0.63562,0.37207 0.37207,0.124023 0.81648,0.124023 0.58911,0 1.18339,-0.232544 0.59944,-0.23771 0.85266,-0.465086 h 0.0517 v 1.059363 q -0.49092,0.206706 -1.00252,0.346231 -0.51159,0.139526 -1.07486,0.139526 -1.4366,0 -2.24275,-0.775144 -0.80615,-0.780311 -0.80615,-2.211744 0,-1.41593 0.76997,-2.247918 0.77515,-0.831987 2.03605,-0.831987 1.16788,0 1.79833,0.682126 0.63562,0.682127 0.63562,1.93786 z m -0.94567,-0.744138 q -0.005,-0.764809 -0.38758,-1.183387 -0.37723,-0.418577 -1.15238,-0.418577 -0.78031,0 -1.24539,0.459918 -0.45992,0.459919 -0.52193,1.142046 z"
         style="text-align:center;text-anchor:middle;fill:#808080"
         id="path1932" />
    </g>
    <g
       aria-label=" judgement "
       transform="matrix(1.3169934,0,0,1.3169934,-218.23466,35.350308)"
       id="text1563-5"
       style="font-style:normal;font-weight:normal;font-size:10.5833px;line-height:1.25;font-family:sans-serif;text-align:center;white-space:pre;shape-inside:url(#rect1565-3);fill:#808080;fill-opacity:1;stroke:none">
      <path
         d="m 517.54545,50.677256 h -1.09553 v -1.007687 h 1.09553 z m -0.062,6.878111 q 0,1.012855 -0.51676,1.529618 -0.51676,0.516762 -1.38493,0.516762 -0.2067,0 -0.54776,-0.04134 -0.3359,-0.04134 -0.56328,-0.103352 v -0.925006 h 0.0517 q 0.14469,0.05684 0.38757,0.129191 0.24805,0.07235 0.48059,0.07235 0.37207,0 0.59945,-0.103353 0.22737,-0.103352 0.34106,-0.310057 0.11369,-0.206705 0.14469,-0.50126 0.0362,-0.289387 0.0362,-0.707965 v -4.650864 h -1.20406 v -0.816485 h 2.17557 z"
         style="text-align:center;text-anchor:middle;fill:#808080"
         id="path1935" />
      <path
         d="m 524.17035,57.415841 h -0.97151 v -0.640786 q -0.49093,0.387572 -0.94051,0.594277 -0.44959,0.206706 -0.99219,0.206706 -0.9095,0 -1.41593,-0.552937 -0.50642,-0.558103 -0.50642,-1.63297 v -3.746529 h 0.97151 v 3.286611 q 0,0.439248 0.0413,0.754473 0.0413,0.310058 0.1757,0.532266 0.13953,0.227375 0.36173,0.330728 0.22221,0.103352 0.64596,0.103352 0.37723,0 0.82165,-0.196369 0.44958,-0.19637 0.83716,-0.50126 v -4.309801 h 0.97151 z"
         style="text-align:center;text-anchor:middle;fill:#808080"
         id="path1937" />
      <path
         d="m 530.76424,57.415841 h -0.97151 v -0.604612 q -0.41858,0.361734 -0.87333,0.563271 -0.45475,0.201538 -0.98702,0.201538 -1.03352,0 -1.6433,-0.795815 -0.60462,-0.795815 -0.60462,-2.206577 0,-0.733803 0.20671,-1.307409 0.21187,-0.573607 0.56844,-0.976682 0.3514,-0.392739 0.81648,-0.599444 0.47026,-0.206705 0.97152,-0.206705 0.45475,0 0.80615,0.09818 0.3514,0.09302 0.73897,0.294555 V 49.37501 h 0.97151 z m -0.97151,-1.421097 v -3.312449 q -0.39274,-0.175699 -0.7028,-0.242878 -0.31006,-0.06718 -0.67696,-0.06718 -0.81648,0 -1.27123,0.568439 -0.45476,0.568439 -0.45476,1.6123 0,1.028358 0.3514,1.565791 0.3514,0.532265 1.12655,0.532265 0.41341,0 0.83715,-0.180867 0.42375,-0.186034 0.79065,-0.475421 z"
         style="text-align:center;text-anchor:middle;fill:#808080"
         id="path1939" />
      <path
         d="m 537.35813,56.759552 q 0,1.467606 -0.66662,2.154901 -0.66662,0.687294 -2.05155,0.687294 -0.45992,0 -0.89917,-0.06718 -0.43408,-0.06201 -0.85782,-0.180867 v -0.992184 h 0.0517 q 0.23772,0.09302 0.75448,0.227375 0.51676,0.139526 1.03352,0.139526 0.4961,0 0.82166,-0.118855 0.32556,-0.118856 0.50642,-0.330728 0.18087,-0.201538 0.25839,-0.485757 0.0775,-0.28422 0.0775,-0.635618 v -0.527098 q -0.43925,0.351398 -0.84232,0.527098 -0.39791,0.170531 -1.01803,0.170531 -1.03352,0 -1.6433,-0.744138 -0.60461,-0.749306 -0.60461,-2.108392 0,-0.744138 0.2067,-1.281571 0.21187,-0.542601 0.57361,-0.93534 0.33589,-0.366902 0.81648,-0.568439 0.48059,-0.206705 0.95601,-0.206705 0.50126,0 0.83716,0.103352 0.34106,0.09818 0.7183,0.30489 l 0.062,-0.248046 h 0.9095 z m -0.97151,-0.930172 v -3.147085 q -0.38757,-0.175699 -0.72347,-0.248046 -0.33073,-0.07751 -0.66145,-0.07751 -0.80099,0 -1.26091,0.537434 -0.45991,0.537433 -0.45991,1.560623 0,0.971514 0.34106,1.472774 0.34106,0.501259 1.13171,0.501259 0.42374,0 0.84749,-0.160196 0.42891,-0.165364 0.78548,-0.439248 z"
         style="text-align:center;text-anchor:middle;fill:#808080"
         id="path1941" />
      <path
         d="m 544.10189,54.63049 h -4.25296 q 0,0.532266 0.1602,0.930173 0.16019,0.39274 0.43924,0.645953 0.26872,0.248047 0.63562,0.37207 0.37207,0.124023 0.81649,0.124023 0.58911,0 1.18338,-0.232544 0.59945,-0.23771 0.85266,-0.465086 h 0.0517 v 1.059363 q -0.49093,0.206706 -1.00252,0.346231 -0.5116,0.139526 -1.07487,0.139526 -1.4366,0 -2.24275,-0.775144 -0.80615,-0.780311 -0.80615,-2.211744 0,-1.41593 0.76998,-2.247918 0.77514,-0.831987 2.03604,-0.831987 1.16789,0 1.79834,0.682126 0.63562,0.682127 0.63562,1.93786 z m -0.94568,-0.744138 q -0.005,-0.764809 -0.38757,-1.183387 -0.37724,-0.418577 -1.15238,-0.418577 -0.78031,0 -1.2454,0.459918 -0.45992,0.459919 -0.52193,1.142046 z"
         style="text-align:center;text-anchor:middle;fill:#808080"
         id="path1943" />
      <path
         d="m 553.99789,57.415841 h -0.97151 V 54.12923 q 0,-0.372069 -0.0362,-0.7183 -0.031,-0.346231 -0.13952,-0.552936 -0.11886,-0.222208 -0.34107,-0.335895 -0.2222,-0.113688 -0.64078,-0.113688 -0.40824,0 -0.81649,0.206705 -0.40824,0.201537 -0.81648,0.516762 0.0155,0.118856 0.0258,0.279052 0.0103,0.155029 0.0103,0.310058 v 3.694853 h -0.97151 V 54.12923 q 0,-0.382404 -0.0362,-0.723467 -0.031,-0.346231 -0.13952,-0.552936 -0.11886,-0.222208 -0.34106,-0.330728 -0.22221,-0.113688 -0.64079,-0.113688 -0.39791,0 -0.80098,0.19637 -0.39791,0.196369 -0.79582,0.501259 v 4.309801 h -0.97151 v -5.772239 h 0.97151 v 0.640786 q 0.45475,-0.377237 0.90434,-0.58911 0.45475,-0.211872 0.96634,-0.211872 0.58911,0 0.99736,0.248046 0.41341,0.248046 0.61494,0.687294 0.58911,-0.496092 1.07487,-0.713133 0.48576,-0.222207 1.03869,-0.222207 0.95085,0 1.40043,0.578774 0.45475,0.573606 0.45475,1.607132 z"
         style="text-align:center;text-anchor:middle;fill:#808080"
         id="path1945" />
      <path
         d="m 560.7003,54.63049 h -4.25295 q 0,0.532266 0.16019,0.930173 0.1602,0.39274 0.43925,0.645953 0.26872,0.248047 0.63562,0.37207 0.37207,0.124023 0.81649,0.124023 0.58911,0 1.18338,-0.232544 0.59945,-0.23771 0.85266,-0.465086 h 0.0517 v 1.059363 q -0.49093,0.206706 -1.00252,0.346231 -0.5116,0.139526 -1.07487,0.139526 -1.4366,0 -2.24275,-0.775144 -0.80615,-0.780311 -0.80615,-2.211744 0,-1.41593 0.76998,-2.247918 0.77514,-0.831987 2.03604,-0.831987 1.16789,0 1.79834,0.682126 0.63561,0.682127 0.63561,1.93786 z m -0.94567,-0.744138 q -0.005,-0.764809 -0.38757,-1.183387 -0.37724,-0.418577 -1.15238,-0.418577 -0.78032,0 -1.2454,0.459918 -0.45992,0.459919 -0.52193,1.142046 z"
         style="text-align:center;text-anchor:middle;fill:#808080"
         id="path1947" />
      <path
         d="m 566.99964,57.415841 h -0.97151 V 54.12923 q 0,-0.397907 -0.0465,-0.744138 -0.0465,-0.351398 -0.17053,-0.547768 -0.12919,-0.217041 -0.37207,-0.320393 -0.24288,-0.10852 -0.63045,-0.10852 -0.39791,0 -0.83199,0.19637 -0.43408,0.196369 -0.83199,0.501259 v 4.309801 h -0.97151 v -5.772239 h 0.97151 v 0.640786 q 0.45475,-0.377237 0.94051,-0.58911 0.48576,-0.211872 0.99735,-0.211872 0.93534,0 1.42627,0.563271 0.49092,0.563271 0.49092,1.622635 z"
         style="text-align:center;text-anchor:middle;fill:#808080"
         id="path1949" />
      <path
         d="m 571.86754,57.364165 q -0.27388,0.07235 -0.59944,0.118855 -0.32039,0.04651 -0.57361,0.04651 -0.88366,0 -1.34358,-0.475422 -0.45992,-0.475421 -0.45992,-1.52445 v -3.06957 h -0.65629 v -0.816485 h 0.65629 v -1.658808 h 0.97152 v 1.658808 h 2.00503 v 0.816485 h -2.00503 v 2.630322 q 0,0.454751 0.0207,0.713133 0.0207,0.253213 0.14469,0.475421 0.11369,0.206705 0.31006,0.30489 0.20153,0.09302 0.60978,0.09302 0.23771,0 0.49609,-0.06718 0.25838,-0.07235 0.37207,-0.118855 h 0.0517 z"
         style="text-align:center;text-anchor:middle;fill:#808080"
         id="path1951" />
    </g>
    <g
       aria-label=" possibility "
       transform="matrix(1.3210211,0,0,1.3210211,-286.70977,-38.210584)"
       id="text1563-3"
       style="font-style:normal;font-weight:normal;font-size:10.5833px;line-height:1.25;font-family:sans-serif;text-align:center;white-space:pre;shape-inside:url(#rect1565-19);fill:#808080;fill-opacity:1;stroke:none">
      <path
         d="m 523.12132,54.459959 q 0,0.702797 -0.20154,1.286739 -0.20153,0.578774 -0.56844,0.981849 -0.34106,0.382404 -0.80614,0.594277 -0.45992,0.206705 -0.97669,0.206705 -0.44958,0 -0.81648,-0.09818 -0.36174,-0.09819 -0.73897,-0.30489 v 2.418449 h -0.97152 v -7.901301 h 0.97152 v 0.604612 q 0.38757,-0.32556 0.86816,-0.542601 0.48576,-0.222207 1.03352,-0.222207 1.04387,0 1.62264,0.790646 0.58394,0.78548 0.58394,2.185907 z m -1.00252,0.02584 q 0,-1.043861 -0.35656,-1.560624 -0.35657,-0.516762 -1.09554,-0.516762 -0.41858,0 -0.84232,0.180867 -0.42375,0.180867 -0.81132,0.475421 v 3.271108 q 0.41341,0.186035 0.70796,0.253214 0.29973,0.06718 0.67696,0.06718 0.81132,0 1.26607,-0.547768 0.45475,-0.547769 0.45475,-1.622636 z"
         style="text-align:center;text-anchor:middle;fill:#808080"
         id="path1954" />
      <path
         d="m 529.55502,54.532305 q 0,1.410762 -0.72347,2.227247 -0.72347,0.816486 -1.93786,0.816486 -1.22473,0 -1.9482,-0.816486 -0.7183,-0.816485 -0.7183,-2.227247 0,-1.410762 0.7183,-2.227247 0.72347,-0.821652 1.9482,-0.821652 1.21439,0 1.93786,0.821652 0.72347,0.816485 0.72347,2.227247 z m -1.00252,0 q 0,-1.121375 -0.43925,-1.663975 -0.43925,-0.547769 -1.21956,-0.547769 -0.79065,0 -1.2299,0.547769 -0.43408,0.5426 -0.43408,1.663975 0,1.085202 0.43925,1.648473 0.43925,0.558104 1.22473,0.558104 0.77514,0 1.21439,-0.552936 0.44442,-0.558104 0.44442,-1.653641 z"
         style="text-align:center;text-anchor:middle;fill:#808080"
         id="path1956" />
      <path
         d="m 535.18773,55.751865 q 0,0.790647 -0.65629,1.297075 -0.65112,0.506427 -1.78283,0.506427 -0.64079,0 -1.17822,-0.149861 -0.53227,-0.155029 -0.894,-0.335896 v -1.090369 h 0.0517 q 0.45992,0.346231 1.02319,0.552936 0.56327,0.201537 1.08003,0.201537 0.64079,0 1.00252,-0.206705 0.36173,-0.206705 0.36173,-0.651121 0,-0.341063 -0.19636,-0.516762 -0.19637,-0.1757 -0.75448,-0.299723 -0.2067,-0.04651 -0.5426,-0.10852 -0.33073,-0.06201 -0.60461,-0.134358 -0.75964,-0.201538 -1.08004,-0.58911 -0.31522,-0.392739 -0.31522,-0.961178 0,-0.356566 0.14469,-0.671792 0.14986,-0.315225 0.44959,-0.563271 0.28938,-0.242878 0.7338,-0.382404 0.44958,-0.144694 1.00252,-0.144694 0.51676,0 1.04386,0.129191 0.53227,0.124023 0.88366,0.30489 v 1.038693 h -0.0517 q -0.37207,-0.273885 -0.90434,-0.459919 -0.53226,-0.191202 -1.04386,-0.191202 -0.53226,0 -0.89916,0.206705 -0.36691,0.201537 -0.36691,0.604612 0,0.356566 0.22221,0.537433 0.21704,0.180867 0.7028,0.294555 0.26872,0.06201 0.59944,0.124023 0.3359,0.06201 0.55811,0.113688 0.67696,0.155029 1.04386,0.532265 0.3669,0.382405 0.3669,1.012855 z"
         style="text-align:center;text-anchor:middle;fill:#808080"
         id="path1958" />
      <path
         d="m 540.70676,55.751865 q 0,0.790647 -0.65629,1.297075 -0.65112,0.506427 -1.78283,0.506427 -0.64079,0 -1.17822,-0.149861 -0.53227,-0.155029 -0.894,-0.335896 v -1.090369 h 0.0517 q 0.45992,0.346231 1.02319,0.552936 0.56327,0.201537 1.08004,0.201537 0.64078,0 1.00252,-0.206705 0.36173,-0.206705 0.36173,-0.651121 0,-0.341063 -0.19637,-0.516762 -0.19637,-0.1757 -0.75447,-0.299723 -0.20671,-0.04651 -0.5426,-0.10852 -0.33073,-0.06201 -0.60462,-0.134358 -0.75964,-0.201538 -1.08003,-0.58911 -0.31523,-0.392739 -0.31523,-0.961178 0,-0.356566 0.1447,-0.671792 0.14986,-0.315225 0.44958,-0.563271 0.28939,-0.242878 0.73381,-0.382404 0.44958,-0.144694 1.00251,-0.144694 0.51677,0 1.04387,0.129191 0.53226,0.124023 0.88366,0.30489 v 1.038693 h -0.0517 q -0.37207,-0.273885 -0.90433,-0.459919 -0.53227,-0.191202 -1.04386,-0.191202 -0.53227,0 -0.89917,0.206705 -0.3669,0.201537 -0.3669,0.604612 0,0.356566 0.22221,0.537433 0.21704,0.180867 0.70279,0.294555 0.26872,0.06201 0.59945,0.124023 0.33589,0.06201 0.5581,0.113688 0.67696,0.155029 1.04386,0.532265 0.36691,0.382405 0.36691,1.012855 z"
         style="text-align:center;text-anchor:middle;fill:#808080"
         id="path1960" />
      <path
         d="m 543.14588,50.677256 h -1.09554 v -1.007687 h 1.09554 z m -0.062,6.738585 h -0.97151 v -5.772239 h 0.97151 z"
         style="text-align:center;text-anchor:middle;fill:#808080"
         id="path1962" />
      <path
         d="m 550.09633,54.485797 q 0,0.723467 -0.2067,1.302242 -0.20154,0.578774 -0.54777,0.971513 -0.3669,0.408243 -0.80615,0.614948 -0.43925,0.201538 -0.96635,0.201538 -0.49092,0 -0.85782,-0.118856 -0.3669,-0.113688 -0.72347,-0.310058 l -0.062,0.268717 h -0.9095 v -8.040827 h 0.97151 v 2.8732 q 0.40824,-0.335895 0.86816,-0.547768 0.45992,-0.21704 1.03353,-0.21704 1.02319,0 1.6123,0.785479 0.59427,0.785479 0.59427,2.216912 z m -1.00252,0.02584 q 0,-1.033526 -0.34106,-1.565791 -0.34106,-0.537433 -1.1007,-0.537433 -0.42375,0 -0.85783,0.186034 -0.43408,0.180867 -0.80615,0.470254 v 3.307281 q 0.41341,0.186035 0.70796,0.258382 0.29973,0.07235 0.67696,0.07235 0.80615,0 1.2609,-0.527098 0.45992,-0.532266 0.45992,-1.663976 z"
         style="text-align:center;text-anchor:middle;fill:#808080"
         id="path1964" />
      <path
         d="m 552.65431,50.677256 h -1.09554 v -1.007687 h 1.09554 z m -0.062,6.738585 h -0.97152 v -5.772239 h 0.97152 z"
         style="text-align:center;text-anchor:middle;fill:#808080"
         id="path1966" />
      <path
         d="m 555.50684,57.415841 h -0.97152 v -8.040827 h 0.97152 z"
         style="text-align:center;text-anchor:middle;fill:#808080"
         id="path1968" />
      <path
         d="m 558.48339,50.677256 h -1.09553 v -1.007687 h 1.09553 z m -0.062,6.738585 h -0.97151 v -5.772239 h 0.97151 z"
         style="text-align:center;text-anchor:middle;fill:#808080"
         id="path1970" />
      <path
         d="m 563.35129,57.364165 q -0.27388,0.07235 -0.59944,0.118855 -0.32039,0.04651 -0.57361,0.04651 -0.88366,0 -1.34358,-0.475422 -0.45992,-0.475421 -0.45992,-1.52445 v -3.06957 h -0.65629 v -0.816485 h 0.65629 v -1.658808 h 0.97152 v 1.658808 h 2.00503 v 0.816485 h -2.00503 v 2.630322 q 0,0.454751 0.0207,0.713133 0.0207,0.253213 0.14469,0.475421 0.11369,0.206705 0.31006,0.30489 0.20153,0.09302 0.60978,0.09302 0.23771,0 0.49609,-0.06718 0.25838,-0.07235 0.37207,-0.118855 h 0.0517 z"
         style="text-align:center;text-anchor:middle;fill:#808080"
         id="path1972" />
      <path
         d="m 569.4801,51.643602 -3.36929,7.901301 h -1.0387 l 1.07487,-2.408114 -2.29959,-5.493187 h 1.05419 l 1.7725,4.278795 1.788,-4.278795 z"
         style="text-align:center;text-anchor:middle;fill:#808080"
         id="path1974" />
    </g>
    <g
       aria-label=" obligation "
       transform="matrix(1.2930764,0,0,1.2930764,-306.56105,39.300559)"
       id="text1563-53"
       style="font-style:normal;font-weight:normal;font-size:10.5833px;line-height:1.25;font-family:sans-serif;text-align:center;white-space:pre;shape-inside:url(#rect1565-0);fill:#808080;fill-opacity:1;stroke:none">
      <path
         d="m 523.30219,54.532305 q 0,1.410762 -0.72347,2.227247 -0.72347,0.816486 -1.93786,0.816486 -1.22473,0 -1.94819,-0.816486 -0.71831,-0.816485 -0.71831,-2.227247 0,-1.410762 0.71831,-2.227247 0.72346,-0.821652 1.94819,-0.821652 1.21439,0 1.93786,0.821652 0.72347,0.816485 0.72347,2.227247 z m -1.00252,0 q 0,-1.121375 -0.43925,-1.663975 -0.43925,-0.547769 -1.21956,-0.547769 -0.79065,0 -1.22989,0.547769 -0.43409,0.5426 -0.43409,1.663975 0,1.085202 0.43925,1.648473 0.43925,0.558104 1.22473,0.558104 0.77514,0 1.21439,-0.552936 0.44442,-0.558104 0.44442,-1.653641 z"
         style="text-align:center;text-anchor:middle;fill:#808080"
         id="path1977" />
      <path
         d="m 529.89091,54.485797 q 0,0.723467 -0.2067,1.302242 -0.20154,0.578774 -0.54777,0.971513 -0.3669,0.408243 -0.80615,0.614948 -0.43925,0.201538 -0.96635,0.201538 -0.49092,0 -0.85782,-0.118856 -0.3669,-0.113688 -0.72347,-0.310058 l -0.062,0.268717 h -0.9095 v -8.040827 h 0.97151 v 2.8732 q 0.40824,-0.335895 0.86816,-0.547768 0.45992,-0.21704 1.03353,-0.21704 1.02319,0 1.6123,0.785479 0.59427,0.785479 0.59427,2.216912 z m -1.00252,0.02584 q 0,-1.033526 -0.34106,-1.565791 -0.34106,-0.537433 -1.10071,-0.537433 -0.42374,0 -0.85782,0.186034 -0.43408,0.180867 -0.80615,0.470254 v 3.307281 q 0.41341,0.186035 0.70796,0.258382 0.29973,0.07235 0.67696,0.07235 0.80615,0 1.2609,-0.527098 0.45992,-0.532266 0.45992,-1.663976 z"
         style="text-align:center;text-anchor:middle;fill:#808080"
         id="path1979" />
      <path
         d="m 532.38688,57.415841 h -0.97152 v -8.040827 h 0.97152 z"
         style="text-align:center;text-anchor:middle;fill:#808080"
         id="path1981" />
      <path
         d="m 535.36343,50.677256 h -1.09554 v -1.007687 h 1.09554 z m -0.062,6.738585 h -0.97152 v -5.772239 h 0.97152 z"
         style="text-align:center;text-anchor:middle;fill:#808080"
         id="path1983" />
      <path
         d="m 541.91598,56.759552 q 0,1.467606 -0.66663,2.154901 -0.66662,0.687294 -2.05154,0.687294 -0.45992,0 -0.89917,-0.06718 -0.43408,-0.06201 -0.85783,-0.180867 v -0.992184 h 0.0517 q 0.23771,0.09302 0.75447,0.227375 0.51677,0.139526 1.03353,0.139526 0.49609,0 0.82165,-0.118855 0.32556,-0.118856 0.50643,-0.330728 0.18087,-0.201538 0.25838,-0.485757 0.0775,-0.28422 0.0775,-0.635618 v -0.527098 q -0.43924,0.351398 -0.84232,0.527098 -0.39791,0.170531 -1.01802,0.170531 -1.03353,0 -1.64331,-0.744138 -0.60461,-0.749306 -0.60461,-2.108392 0,-0.744138 0.20671,-1.281571 0.21187,-0.542601 0.5736,-0.93534 0.3359,-0.366902 0.81649,-0.568439 0.48059,-0.206705 0.95601,-0.206705 0.50126,0 0.83715,0.103352 0.34107,0.09818 0.7183,0.30489 l 0.062,-0.248046 h 0.9095 z m -0.97152,-0.930172 v -3.147085 q -0.38757,-0.175699 -0.72346,-0.248046 -0.33073,-0.07751 -0.66146,-0.07751 -0.80098,0 -1.2609,0.537434 -0.45992,0.537433 -0.45992,1.560623 0,0.971514 0.34106,1.472774 0.34107,0.501259 1.13171,0.501259 0.42375,0 0.8475,-0.160196 0.42891,-0.165364 0.78547,-0.439248 z"
         style="text-align:center;text-anchor:middle;fill:#808080"
         id="path1985" />
      <path
         d="m 548.3135,57.415841 h -0.96634 v -0.614947 q -0.12919,0.08785 -0.3514,0.248046 -0.21704,0.155028 -0.42375,0.248046 -0.24288,0.118855 -0.5581,0.196369 -0.31523,0.08268 -0.73897,0.08268 -0.78031,0 -1.32291,-0.516763 -0.54261,-0.516763 -0.54261,-1.317745 0,-0.656289 0.27906,-1.059363 0.28422,-0.408243 0.80615,-0.640786 0.52709,-0.232543 1.26606,-0.315225 0.73898,-0.08268 1.58647,-0.124023 v -0.149862 q 0,-0.330728 -0.11886,-0.547768 -0.11369,-0.21704 -0.33073,-0.341063 -0.2067,-0.118856 -0.49609,-0.160197 -0.28939,-0.04134 -0.60461,-0.04134 -0.38241,0 -0.85266,0.103353 -0.47025,0.09819 -0.97151,0.289387 h -0.0517 v -0.987017 q 0.28422,-0.07751 0.82165,-0.170532 0.53744,-0.09302 1.05937,-0.09302 0.60978,0 1.05936,0.103353 0.45475,0.09818 0.78548,0.341063 0.32556,0.237711 0.49609,0.614948 0.17053,0.377236 0.17053,0.93534 z m -0.96634,-1.421097 v -1.607132 q -0.44442,0.02584 -1.04903,0.07751 -0.59945,0.05168 -0.95085,0.149861 -0.41857,0.118856 -0.67695,0.37207 -0.25839,0.248046 -0.25839,0.687294 0,0.496092 0.29973,0.749306 0.29972,0.248046 0.91467,0.248046 0.51159,0 0.93534,-0.19637 0.42374,-0.201537 0.78548,-0.480589 z"
         style="text-align:center;text-anchor:middle;fill:#808080"
         id="path1987" />
      <path
         d="m 553.19174,57.364165 q -0.27388,0.07235 -0.59944,0.118855 -0.3204,0.04651 -0.57361,0.04651 -0.88366,0 -1.34358,-0.475422 -0.45992,-0.475421 -0.45992,-1.52445 v -3.06957 h -0.65629 v -0.816485 h 0.65629 v -1.658808 h 0.97151 v 1.658808 h 2.00504 v 0.816485 h -2.00504 v 2.630322 q 0,0.454751 0.0207,0.713133 0.0207,0.253213 0.1447,0.475421 0.11368,0.206705 0.31005,0.30489 0.20154,0.09302 0.60978,0.09302 0.23771,0 0.4961,-0.06718 0.25838,-0.07235 0.37207,-0.118855 h 0.0517 z"
         style="text-align:center;text-anchor:middle;fill:#808080"
         id="path1989" />
      <path
         d="m 555.41382,50.677256 h -1.09554 v -1.007687 h 1.09554 z m -0.062,6.738585 h -0.97152 v -5.772239 h 0.97152 z"
         style="text-align:center;text-anchor:middle;fill:#808080"
         id="path1991" />
      <path
         d="m 562.20408,54.532305 q 0,1.410762 -0.72347,2.227247 -0.72346,0.816486 -1.93786,0.816486 -1.22472,0 -1.94819,-0.816486 -0.7183,-0.816485 -0.7183,-2.227247 0,-1.410762 0.7183,-2.227247 0.72347,-0.821652 1.94819,-0.821652 1.2144,0 1.93786,0.821652 0.72347,0.816485 0.72347,2.227247 z m -1.00252,0 q 0,-1.121375 -0.43925,-1.663975 -0.43924,-0.547769 -1.21956,-0.547769 -0.79064,0 -1.22989,0.547769 -0.43408,0.5426 -0.43408,1.663975 0,1.085202 0.43925,1.648473 0.43924,0.558104 1.22472,0.558104 0.77515,0 1.2144,-0.552936 0.44441,-0.558104 0.44441,-1.653641 z"
         style="text-align:center;text-anchor:middle;fill:#808080"
         id="path1993" />
      <path
         d="m 568.53959,57.415841 h -0.97151 V 54.12923 q 0,-0.397907 -0.0465,-0.744138 -0.0465,-0.351398 -0.17053,-0.547768 -0.12919,-0.217041 -0.37207,-0.320393 -0.24288,-0.10852 -0.63045,-0.10852 -0.39791,0 -0.83199,0.19637 -0.43408,0.196369 -0.83199,0.501259 v 4.309801 h -0.97151 v -5.772239 h 0.97151 v 0.640786 q 0.45475,-0.377237 0.94051,-0.58911 0.48576,-0.211872 0.99735,-0.211872 0.93534,0 1.42627,0.563271 0.49092,0.563271 0.49092,1.622635 z"
         style="text-align:center;text-anchor:middle;fill:#808080"
         id="path1995" />
    </g>
    <g
       aria-label=" wish "
       transform="matrix(1.4948589,0,0,1.4948589,-463.26581,-31.579616)"
       id="text1563-53-0"
       style="font-style:normal;font-weight:normal;font-size:10.5833px;line-height:1.25;font-family:sans-serif;text-align:center;white-space:pre;shape-inside:url(#rect1565-0-4);fill:#808080;fill-opacity:1;stroke:none">
      <path
         d="m 539.76108,51.643602 -1.50378,5.772239 h -0.89917 l -1.48311,-4.449327 -1.47277,4.449327 h -0.894 l -1.51928,-5.772239 h 1.01285 l 1.05937,4.469997 1.44176,-4.469997 h 0.80099 l 1.47794,4.469997 1.00252,-4.469997 z"
         style="text-align:center;text-anchor:middle;fill:#808080"
         id="path1998" />
      <path
         d="m 542.20537,50.677256 h -1.09554 v -1.007687 h 1.09554 z m -0.062,6.738585 h -0.97151 v -5.772239 h 0.97151 z"
         style="text-align:center;text-anchor:middle;fill:#808080"
         id="path2000" />
      <path
         d="m 548.19981,55.751865 q 0,0.790647 -0.65629,1.297075 -0.65112,0.506427 -1.78283,0.506427 -0.64078,0 -1.17822,-0.149861 -0.53226,-0.155029 -0.89399,-0.335896 v -1.090369 h 0.0517 q 0.45992,0.346231 1.02319,0.552936 0.56327,0.201537 1.08004,0.201537 0.64078,0 1.00252,-0.206705 0.36173,-0.206705 0.36173,-0.651121 0,-0.341063 -0.19637,-0.516762 -0.19637,-0.1757 -0.75447,-0.299723 -0.20671,-0.04651 -0.54261,-0.10852 -0.33072,-0.06201 -0.60461,-0.134358 -0.75964,-0.201538 -1.08003,-0.58911 -0.31523,-0.392739 -0.31523,-0.961178 0,-0.356566 0.1447,-0.671792 0.14986,-0.315225 0.44958,-0.563271 0.28939,-0.242878 0.7338,-0.382404 0.44959,-0.144694 1.00252,-0.144694 0.51677,0 1.04386,0.129191 0.53227,0.124023 0.88367,0.30489 v 1.038693 h -0.0517 q -0.37207,-0.273885 -0.90433,-0.459919 -0.53227,-0.191202 -1.04386,-0.191202 -0.53227,0 -0.89917,0.206705 -0.3669,0.201537 -0.3669,0.604612 0,0.356566 0.22221,0.537433 0.21704,0.180867 0.70279,0.294555 0.26872,0.06201 0.59945,0.124023 0.33589,0.06201 0.5581,0.113688 0.67696,0.155029 1.04386,0.532265 0.3669,0.382405 0.3669,1.012855 z"
         style="text-align:center;text-anchor:middle;fill:#808080"
         id="path2002" />
      <path
         d="m 554.42164,57.415841 h -0.97152 V 54.12923 q 0,-0.397907 -0.0465,-0.744138 -0.0465,-0.351398 -0.17053,-0.547768 -0.12919,-0.217041 -0.37207,-0.320393 -0.24288,-0.10852 -0.63045,-0.10852 -0.3979,0 -0.83199,0.19637 -0.43408,0.196369 -0.83198,0.501259 v 4.309801 h -0.97152 v -8.040827 h 0.97152 v 2.909374 q 0.45475,-0.377237 0.9405,-0.58911 0.48576,-0.211872 0.99736,-0.211872 0.93534,0 1.42626,0.563271 0.49093,0.563271 0.49093,1.622635 z"
         style="text-align:center;text-anchor:middle;fill:#808080"
         id="path2004" />
    </g>
    <g
       style="font-style:normal;font-weight:normal;font-size:10.5833px;line-height:1.25;font-family:sans-serif;white-space:pre;shape-inside:url(#rect1767);fill:#808080;fill-opacity:1;stroke:none"
       id="text1765"
       transform="matrix(1.4726521,0,0,1.4726521,132.20537,-255.15797)"
       aria-label="purpose">
      <path
         id="path1802"
         style="fill:#808080"
         d="m 250.44844,225.57956 v 3.06957 h -0.95601 v -7.98915 h 0.95601 v 0.8785 q 0.29972,-0.51676 0.75447,-0.76481 0.45992,-0.25321 1.09554,-0.25321 1.0542,0 1.71048,0.83715 0.66146,0.83716 0.66146,2.20141 0,1.36425 -0.66146,2.20141 -0.65628,0.83716 -1.71048,0.83716 -0.63562,0 -1.09554,-0.24805 -0.45475,-0.25321 -0.75447,-0.76998 z m 3.23493,-2.02054 q 0,-1.04903 -0.43408,-1.6433 -0.42891,-0.59945 -1.18338,-0.59945 -0.75448,0 -1.18856,0.59945 -0.42891,0.59427 -0.42891,1.6433 0,1.04903 0.42891,1.64847 0.43408,0.59428 1.18856,0.59428 0.75447,0 1.18338,-0.59428 0.43408,-0.59944 0.43408,-1.64847 z" />
      <path
         id="path1804"
         style="fill:#808080"
         d="m 256.14833,224.16363 v -3.50365 h 0.95084 v 3.46748 q 0,0.82165 0.3204,1.23506 0.32039,0.40824 0.96118,0.40824 0.76997,0 1.21439,-0.49092 0.44958,-0.49092 0.44958,-1.33841 v -3.28145 h 0.95085 v 5.78774 h -0.95085 v -0.88883 q -0.34623,0.5271 -0.80615,0.78548 -0.45475,0.25322 -1.05936,0.25322 -0.99735,0 -1.51412,-0.62012 -0.51676,-0.62012 -0.51676,-1.81384 z m 2.39261,-3.64317 z" />
      <path
         id="path1806"
         style="fill:#808080"
         d="m 266.31822,221.54881 q -0.1602,-0.093 -0.3514,-0.13435 -0.18603,-0.0465 -0.41341,-0.0465 -0.80615,0 -1.24023,0.52709 -0.42891,0.52194 -0.42891,1.50378 v 3.0489 h -0.95601 v -5.78774 h 0.95601 v 0.89917 q 0.29972,-0.5271 0.78031,-0.78031 0.48059,-0.25838 1.16788,-0.25838 0.0982,0 0.21704,0.0155 0.11886,0.0103 0.26355,0.0362 z" />
      <path
         id="path1808"
         style="fill:#808080"
         d="m 268.24575,225.57956 v 3.06957 h -0.95602 v -7.98915 h 0.95602 v 0.8785 q 0.29972,-0.51676 0.75447,-0.76481 0.45992,-0.25321 1.09554,-0.25321 1.05419,0 1.71048,0.83715 0.66146,0.83716 0.66146,2.20141 0,1.36425 -0.66146,2.20141 -0.65629,0.83716 -1.71048,0.83716 -0.63562,0 -1.09554,-0.24805 -0.45475,-0.25321 -0.75447,-0.76998 z m 3.23493,-2.02054 q 0,-1.04903 -0.43408,-1.6433 -0.42891,-0.59945 -1.18339,-0.59945 -0.75447,0 -1.18855,0.59945 -0.42891,0.59427 -0.42891,1.6433 0,1.04903 0.42891,1.64847 0.43408,0.59428 1.18855,0.59428 0.75448,0 1.18339,-0.59428 0.43408,-0.59944 0.43408,-1.64847 z" />
      <path
         id="path1810"
         style="fill:#808080"
         d="m 276.28657,221.32661 q -0.76481,0 -1.20922,0.59944 -0.44442,0.59428 -0.44442,1.63297 0,1.03869 0.43925,1.63814 0.44442,0.59428 1.21439,0.59428 0.75964,0 1.20406,-0.59945 0.44442,-0.59944 0.44442,-1.63297 0,-1.02836 -0.44442,-1.6278 -0.44442,-0.60461 -1.20406,-0.60461 z m 0,-0.80615 q 1.24023,0 1.9482,0.80615 0.70796,0.80615 0.70796,2.23241 0,1.4211 -0.70796,2.23242 -0.70797,0.80615 -1.9482,0.80615 -1.2454,0 -1.95336,-0.80615 -0.7028,-0.81132 -0.7028,-2.23242 0,-1.42626 0.7028,-2.23241 0.70796,-0.80615 1.95336,-0.80615 z" />
      <path
         id="path1812"
         style="fill:#808080"
         d="m 284.20338,220.83051 v 0.89917 q -0.40308,-0.2067 -0.83716,-0.31006 -0.43408,-0.10335 -0.89917,-0.10335 -0.70796,0 -1.06453,0.21704 -0.3514,0.21704 -0.3514,0.65112 0,0.33073 0.25322,0.52193 0.25321,0.18604 1.01802,0.35657 l 0.32556,0.0724 q 1.01286,0.21704 1.4366,0.61494 0.42891,0.39274 0.42891,1.10071 0,0.80615 -0.64078,1.2764 -0.63562,0.47026 -1.75183,0.47026 -0.46508,0 -0.97151,-0.093 -0.50126,-0.0879 -1.05937,-0.26872 V 225.254 q 0.5271,0.27389 1.0387,0.41341 0.51159,0.13436 1.01285,0.13436 0.67179,0 1.03353,-0.22737 0.36173,-0.23255 0.36173,-0.65113 0,-0.38757 -0.26355,-0.59427 -0.25838,-0.20671 -1.14204,-0.39791 l -0.33073,-0.0775 q -0.88366,-0.18604 -1.2764,-0.56844 -0.39274,-0.38758 -0.39274,-1.05937 0,-0.81648 0.57877,-1.2609 0.57877,-0.44441 1.64331,-0.44441 0.52709,0 0.99218,0.0775 0.46509,0.0775 0.85783,0.23254 z" />
      <path
         id="path1814"
         style="fill:#808080"
         d="m 290.9833,223.31614 v 0.46509 h -4.37181 q 0.062,0.98185 0.58911,1.49861 0.53227,0.5116 1.47794,0.5116 0.54777,0 1.05937,-0.13436 0.51676,-0.13436 1.02319,-0.40308 v 0.89917 q -0.5116,0.21704 -1.04903,0.33073 -0.53743,0.11369 -1.09037,0.11369 -1.38492,0 -2.19624,-0.80615 -0.80615,-0.80615 -0.80615,-2.18074 0,-1.4211 0.76481,-2.25309 0.76997,-0.83715 2.07221,-0.83715 1.16789,0 1.84485,0.75447 0.68212,0.74931 0.68212,2.04121 z m -0.95084,-0.27905 q -0.0103,-0.78031 -0.43925,-1.2454 -0.42374,-0.46508 -1.12654,-0.46508 -0.79581,0 -1.2764,0.44958 -0.47543,0.44958 -0.54777,1.26607 z" />
    </g>
    <g
       style="font-style:normal;font-weight:normal;font-size:10.5833px;line-height:1.25;font-family:sans-serif;white-space:pre;shape-inside:url(#rect1786);fill:#000000;fill-opacity:1;stroke:none"
       id="text1784"
       transform="translate(0,-3.2156909)"
       aria-label="present">
      <path
         id="path1817"
         style="font-size:16.9333px"
         d="m 311.53821,161.18083 v 4.91132 h -1.52962 v -12.78266 h 1.52962 v 1.4056 q 0.47956,-0.82682 1.20716,-1.2237 0.73587,-0.40514 1.75286,-0.40514 1.68672,0 2.73678,1.33945 1.05833,1.33945 1.05833,3.52226 0,2.18281 -1.05833,3.52226 -1.05006,1.33945 -2.73678,1.33945 -1.01699,0 -1.75286,-0.39687 -0.7276,-0.40515 -1.20716,-1.23197 z m 5.1759,-3.23287 q 0,-1.67845 -0.69453,-2.62929 -0.68626,-0.95911 -1.89342,-0.95911 -1.20716,0 -1.90169,0.95911 -0.68626,0.95084 -0.68626,2.62929 0,1.67845 0.68626,2.63756 0.69453,0.95085 1.90169,0.95085 1.20716,0 1.89342,-0.95085 0.69453,-0.95911 0.69453,-2.63756 z" />
      <path
         id="path1819"
         style="font-size:16.9333px"
         d="m 326.18121,154.73163 q -0.25631,-0.14883 -0.56223,-0.21498 -0.29766,-0.0744 -0.66146,-0.0744 -1.28984,0 -1.98437,0.84336 -0.68626,0.83509 -0.68626,2.40605 v 4.87824 h -1.52962 v -9.2604 h 1.52962 v 1.43867 q 0.47955,-0.84335 1.2485,-1.2485 0.76894,-0.41341 1.86861,-0.41341 0.1571,0 0.34727,0.0248 0.19017,0.0165 0.42168,0.0579 z" />
      <path
         id="path1821"
         style="font-size:16.9333px"
         d="m 335.35066,157.55936 v 0.74413 h -6.99491 q 0.0992,1.57096 0.94258,2.39779 0.85163,0.81855 2.36471,0.81855 0.87643,0 1.69498,-0.21497 0.82683,-0.21498 1.63711,-0.64492 v 1.43866 q -0.81855,0.34727 -1.67845,0.52917 -0.85989,0.1819 -1.74459,0.1819 -2.21588,0 -3.51399,-1.28984 -1.28984,-1.28984 -1.28984,-3.48919 0,-2.27376 1.22369,-3.60494 1.23197,-1.33945 3.31556,-1.33945 1.86861,0 2.95175,1.20716 1.0914,1.19889 1.0914,3.26595 z m -1.52135,-0.44649 q -0.0165,-1.2485 -0.7028,-1.99264 -0.67799,-0.74414 -1.80247,-0.74414 -1.2733,0 -2.04225,0.71934 -0.76067,0.71933 -0.87643,2.02571 z" />
      <path
         id="path1823"
         style="font-size:16.9333px"
         d="m 343.75117,153.58234 v 1.43867 q -0.64492,-0.33072 -1.33945,-0.49609 -0.69453,-0.16536 -1.43867,-0.16536 -1.13275,0 -1.70325,0.34726 -0.56224,0.34727 -0.56224,1.0418 0,0.52916 0.40514,0.83509 0.40514,0.29765 1.62884,0.5705 l 0.52089,0.11576 q 1.62057,0.34726 2.29857,0.98392 0.68626,0.62838 0.68626,1.76112 0,1.28985 -1.02526,2.04225 -1.01699,0.75241 -2.80292,0.75241 -0.74414,0 -1.55443,-0.14883 -0.80201,-0.14056 -1.69498,-0.42994 v -1.57096 q 0.84336,0.43821 1.66191,0.66145 0.81855,0.21498 1.62057,0.21498 1.07487,0 1.65364,-0.36381 0.57878,-0.37207 0.57878,-1.04179 0,-0.62012 -0.42168,-0.95084 -0.41341,-0.33073 -1.82728,-0.63666 l -0.52916,-0.12402 q -1.41387,-0.29766 -2.04225,-0.9095 -0.62838,-0.62012 -0.62838,-1.69499 0,-1.30638 0.92603,-2.01744 0.92604,-0.71107 2.6293,-0.71107 0.84335,0 1.58749,0.12403 0.74414,0.12402 1.37253,0.37206 z" />
      <path
         id="path1825"
         style="font-size:16.9333px"
         d="m 354.59906,157.55936 v 0.74413 h -6.99491 q 0.0992,1.57096 0.94258,2.39779 0.85163,0.81855 2.36471,0.81855 0.87643,0 1.69498,-0.21497 0.82682,-0.21498 1.63711,-0.64492 v 1.43866 q -0.81856,0.34727 -1.67845,0.52917 -0.85989,0.1819 -1.74459,0.1819 -2.21588,0 -3.51399,-1.28984 -1.28984,-1.28984 -1.28984,-3.48919 0,-2.27376 1.22369,-3.60494 1.23197,-1.33945 3.31555,-1.33945 1.86862,0 2.95176,1.20716 1.0914,1.19889 1.0914,3.26595 z m -1.52135,-0.44649 q -0.0165,-1.2485 -0.7028,-1.99264 -0.67799,-0.74414 -1.80247,-0.74414 -1.2733,0 -2.04225,0.71934 -0.76067,0.71933 -0.87643,2.02571 z" />
      <path
         id="path1827"
         style="font-size:16.9333px"
         d="m 364.79377,156.98058 v 5.58931 h -1.52135 v -5.5397 q 0,-1.31465 -0.51263,-1.96783 -0.51263,-0.65319 -1.53789,-0.65319 -1.23196,0 -1.94303,0.78548 -0.71107,0.78548 -0.71107,2.14146 v 5.23378 h -1.52961 v -9.2604 h 1.52961 v 1.43867 q 0.54571,-0.83509 1.28158,-1.2485 0.74414,-0.41341 1.71152,-0.41341 1.59576,0 2.41432,0.99219 0.81855,0.98392 0.81855,2.90214 z" />
      <path
         id="path1829"
         style="font-size:16.9333px"
         d="m 369.34955,150.6802 v 2.62929 h 3.13366 v 1.18236 h -3.13366 v 5.02707 q 0,1.13275 0.30593,1.45521 0.31419,0.32246 1.26503,0.32246 h 1.5627 v 1.2733 h -1.5627 q -1.76113,0 -2.43085,-0.65319 -0.66973,-0.66145 -0.66973,-2.39778 v -5.02707 h -1.1162 v -1.18236 h 1.1162 v -2.62929 z" />
    </g>
  </g>
</svg>
